<svg width="37" height="38" viewBox="0 0 37 38" fill="none" xmlns="http://www.w3.org/2000/svg">
  <path d="M23.5346 19.5134C24.6686 18.2671 25.3075 16.6328 25.3262 14.93C25.3262 13.0921 24.6127 11.3294 23.3426 10.0298C22.0725 8.73014 20.3499 8.00002 18.5537 8.00002C16.7576 8.00002 15.0349 8.73014 13.7649 10.0298C12.4948 11.3294 11.7812 13.0921 11.7812 14.93C11.7999 16.6328 12.4388 18.2671 13.5729 19.5134C11.9938 20.3179 10.635 21.5116 9.61854 22.9869C8.60211 24.4621 7.96001 26.1728 7.74998 27.965C7.69771 28.4512 7.83635 28.9388 8.13539 29.3204C8.43443 29.7021 8.86938 29.9465 9.34456 30C9.81974 30.0535 10.2962 29.9116 10.6692 29.6056C11.0422 29.2997 11.281 28.8546 11.3333 28.3684C11.5471 26.5921 12.3883 24.9572 13.6985 23.7716C15.0086 22.5859 16.6972 21.9315 18.4462 21.9315C20.1952 21.9315 21.8839 22.5859 23.194 23.7716C24.5041 24.9572 25.3453 26.5921 25.5591 28.3684C25.609 28.8384 25.8344 29.2707 26.1883 29.5747C26.5422 29.8788 26.9972 30.0311 27.4583 30H27.6554C28.1251 29.9447 28.5543 29.7017 28.8497 29.324C29.145 28.9462 29.2824 28.4644 29.2321 27.9834C29.0376 26.2006 28.4158 24.4946 27.4218 23.0169C26.4278 21.5393 25.0925 20.3358 23.5346 19.5134ZM18.5 18.1934C17.8692 18.1934 17.2526 18.002 16.7282 17.6434C16.2037 17.2848 15.795 16.7751 15.5536 16.1788C15.3122 15.5825 15.249 14.9264 15.3721 14.2934C15.4951 13.6604 15.7989 13.0789 16.2449 12.6225C16.6909 12.1661 17.2592 11.8553 17.8778 11.7294C18.4964 11.6035 19.1377 11.6681 19.7204 11.9151C20.3032 12.1621 20.8012 12.5804 21.1517 13.117C21.5021 13.6537 21.6891 14.2846 21.6891 14.93C21.6891 15.7955 21.3531 16.6256 20.7551 17.2375C20.157 17.8495 19.3458 18.1934 18.5 18.1934ZM31.0416 0.666687H5.95831C4.53277 0.666687 3.16562 1.24615 2.15761 2.2776C1.14961 3.30905 0.583313 4.708 0.583313 6.16669V31.8334C0.583313 33.292 1.14961 34.691 2.15761 35.7224C3.16562 36.7539 4.53277 37.3334 5.95831 37.3334H31.0416C32.4672 37.3334 33.8343 36.7539 34.8423 35.7224C35.8504 34.691 36.4166 33.292 36.4166 31.8334V6.16669C36.4166 4.708 35.8504 3.30905 34.8423 2.2776C33.8343 1.24615 32.4672 0.666687 31.0416 0.666687ZM32.8333 31.8334C32.8333 32.3196 32.6446 32.7859 32.3085 33.1297C31.9725 33.4735 31.5168 33.6667 31.0416 33.6667H5.95831C5.48313 33.6667 5.02742 33.4735 4.69141 33.1297C4.35541 32.7859 4.16665 32.3196 4.16665 31.8334V6.16669C4.16665 5.68046 4.35541 5.21414 4.69141 4.87032C5.02742 4.52651 5.48313 4.33335 5.95831 4.33335H31.0416C31.5168 4.33335 31.9725 4.52651 32.3085 4.87032C32.6446 5.21414 32.8333 5.68046 32.8333 6.16669V31.8334Z" fill="#FFC20F"/>
  </svg>
  