<svg xmlns="http://www.w3.org/2000/svg" width="21.662" height="21.662" viewBox="0 0 21.662 21.662">
  <path id="fi-br-box-alt" d="M16.158,0H4.8A4.81,4.81,0,0,0,0,4.8V16.158a4.81,4.81,0,0,0,4.8,4.8H16.158a4.81,4.81,0,0,0,4.8-4.8V4.8a4.81,4.81,0,0,0-4.8-4.8ZM18.3,4.367H13.975V2.62h2.184A2.183,2.183,0,0,1,18.3,4.367ZM9.608,2.62h1.747V6.114a.873.873,0,0,1-1.747,0Zm-4.8,0H6.987V4.367H2.665A2.184,2.184,0,0,1,4.8,2.62ZM16.158,18.342H4.8A2.184,2.184,0,0,1,2.62,16.158V6.987H7.111a3.477,3.477,0,0,0,6.739,0h4.491v9.171a2.184,2.184,0,0,1-2.184,2.184Zm.437-3.057a1.31,1.31,0,0,1-1.31,1.31h-2.62a1.31,1.31,0,1,1,0-2.62h2.62A1.31,1.31,0,0,1,16.6,15.285Z" transform="translate(0.35 0.35)" fill="#00171f" stroke="#fff" stroke-width="0.7"/>
</svg>
