<svg xmlns="http://www.w3.org/2000/svg" width="19.981" height="20.382" viewBox="0 0 19.981 20.382">
  <g id="bank" transform="translate(-2.698 -2.273)">
    <path id="Path_33052" data-name="Path 33052" d="M12.271,2.667a.753.753,0,0,1,.836,0L22.081,8.65a.753.753,0,0,1-.418,1.38H3.714A.753.753,0,0,1,3.3,8.65Zm.418,1.015L4.78,8.954H20.6Zm8.8,5.864h0Z" transform="translate(0 0)" fill="#1a2d4c" stroke="#1a2d4c" stroke-width="0.5" fill-rule="evenodd"/>
    <path id="Path_33053" data-name="Path 33053" d="M18.038,17.5a.538.538,0,0,1-.538-.538V11.038a.538.538,0,0,1,1.076,0v5.919A.538.538,0,0,1,18.038,17.5Z" transform="translate(1.107 0.606)" fill="#1a2d4c" stroke="#1a2d4c" stroke-width="0.5" fill-rule="evenodd"/>
    <path id="Path_33054" data-name="Path 33054" d="M14.038,17.5a.538.538,0,0,1-.538-.538V11.038a.538.538,0,0,1,1.076,0v5.919A.538.538,0,0,1,14.038,17.5Z" transform="translate(0.803 0.606)" fill="#1a2d4c" stroke="#1a2d4c" stroke-width="0.5" fill-rule="evenodd"/>
    <path id="Path_33055" data-name="Path 33055" d="M10.038,17.5a.538.538,0,0,1-.538-.538V11.038a.538.538,0,1,1,1.076,0v5.919A.538.538,0,0,1,10.038,17.5Z" transform="translate(0.498 0.606)" fill="#1a2d4c" stroke="#1a2d4c" stroke-width="0.5" fill-rule="evenodd"/>
    <path id="Path_33056" data-name="Path 33056" d="M6.038,17.5a.538.538,0,0,1-.538-.538V11.038a.538.538,0,0,1,1.076,0v5.919A.538.538,0,0,1,6.038,17.5Z" transform="translate(0.193 0.606)" fill="#1a2d4c" stroke="#1a2d4c" stroke-width="0.5" fill-rule="evenodd"/>
    <path id="Path_33057" data-name="Path 33057" d="M3.5,19.614A1.614,1.614,0,0,1,5.114,18H20.18a1.614,1.614,0,0,1,0,3.228H5.114A1.614,1.614,0,0,1,3.5,19.614Zm1.614-.538a.538.538,0,1,0,0,1.076H20.18a.538.538,0,1,0,0-1.076Z" transform="translate(0.041 1.177)" fill="#1a2d4c" stroke="#1a2d4c" stroke-width="0.5" fill-rule="evenodd"/>
  </g>
</svg>
