<svg xmlns="http://www.w3.org/2000/svg" width="19" height="21.992" viewBox="0 0 19 21.992">
  <g id="box" transform="translate(-3 -1.008)">
    <path id="Path_33940" data-name="Path 33940" d="M12.5,23a1,1,0,0,1-.54-.147L3.54,17.9A1.1,1.1,0,0,1,3,16.949v-9.9A1.1,1.1,0,0,1,3.54,6.1l8.42-4.95a1.128,1.128,0,0,1,1.08,0L21.46,6.1a1.1,1.1,0,0,1,.54.953v9.9a1.1,1.1,0,0,1-.54.953l-8.42,4.95A1,1,0,0,1,12.5,23ZM5.159,16.326,12.5,20.653l7.341-4.327V7.672L12.5,3.382,5.159,7.672Z" fill="#fff"/>
    <path id="Path_33941" data-name="Path 33941" d="M12.5,13.5a1,1,0,0,1-.54-.147L3.54,8.407a1.135,1.135,0,0,1-.4-1.5,1.09,1.09,0,0,1,1.475-.4L12.5,11.12,20.381,6.5a1.09,1.09,0,0,1,1.475.4,1.134,1.134,0,0,1-.4,1.5l-8.421,4.95A1.484,1.484,0,0,1,12.5,13.5Z" fill="#fff"/>
    <path id="Path_33942" data-name="Path 33942" d="M12.5,23a1.07,1.07,0,0,1-1.08-1.1V12.367a1.08,1.08,0,1,1,2.159,0V21.9A1.07,1.07,0,0,1,12.5,23Z" fill="#fff"/>
  </g>
</svg>
