<svg id="ic_Dashboard" xmlns="http://www.w3.org/2000/svg" width="20" height="20" viewBox="0 0 20 20">
  <path id="Shape" d="M16,0H15a4,4,0,0,0-4,4V7a4,4,0,0,0,4,4h1a4,4,0,0,0,4-4V4A4,4,0,0,0,16,0ZM15,9a2,2,0,0,1-2-2V4a2,2,0,0,1,2-2h1a2,2,0,0,1,2,2V7a2,2,0,0,1-2,2ZM5,0H4A4,4,0,0,0,0,4V6a4,4,0,0,0,4,4H5A4,4,0,0,0,9,6V4A4,4,0,0,0,5,0ZM4,8A2,2,0,0,1,2,6V4A2,2,0,0,1,4,2H5A2,2,0,0,1,7,4V6A2,2,0,0,1,5,8Zm-.5,4A3.5,3.5,0,0,0,0,15.5v1a3.5,3.5,0,0,0,7,0v-1A3.5,3.5,0,0,0,3.5,12Zm0,6A1.5,1.5,0,0,1,2,16.5v-1a1.5,1.5,0,0,1,3,0v1A1.5,1.5,0,0,1,3.5,18Zm13-5h-4a3.5,3.5,0,1,0,0,7h4a3.5,3.5,0,0,0,0-7Zm-4,5a1.5,1.5,0,1,1,0-3h4a1.5,1.5,0,0,1,0,3Z" transform="translate(20 20) rotate(180)" fill="#fff"/>
</svg>
