<svg xmlns="http://www.w3.org/2000/svg" width="24.436" height="26.522" viewBox="0 0 24.436 26.522">
  <g id="fi-br-trash" transform="translate(0.75 0.75)">
    <path id="Path_53681" data-name="Path 53681" d="M23.936,4.692a1.564,1.564,0,0,0-1.564-1.564H18.436A4.685,4.685,0,0,0,14.032,0H10.9A4.685,4.685,0,0,0,6.5,3.128H2.564A1.564,1.564,0,0,0,1,4.692H1A1.564,1.564,0,0,0,2.564,6.255h.521V19.287a5.734,5.734,0,0,0,5.734,5.734h7.3a5.734,5.734,0,0,0,5.734-5.734V6.255h.521A1.564,1.564,0,0,0,23.936,4.692Zm-5.213,14.6a2.606,2.606,0,0,1-2.606,2.606h-7.3a2.606,2.606,0,0,1-2.606-2.606V6.255H18.724Z" transform="translate(-1)" fill="#e96161" stroke="#fff" stroke-width="1.5"/>
    <path id="Path_53682" data-name="Path 53682" d="M9.564,18.383a1.564,1.564,0,0,0,1.564-1.564V10.564a1.564,1.564,0,0,0-3.128,0v6.255A1.564,1.564,0,0,0,9.564,18.383Z" transform="translate(-0.702 0.383)" fill="#e96161" stroke="#fff" stroke-width="1.5"/>
    <path id="Path_53683" data-name="Path 53683" d="M14.564,18.383a1.564,1.564,0,0,0,1.564-1.564V10.564a1.564,1.564,0,0,0-3.128,0v6.255A1.564,1.564,0,0,0,14.564,18.383Z" transform="translate(-0.489 0.383)" fill="#e96161" stroke="#fff" stroke-width="1.5"/>
  </g>
</svg>
