<svg width="8" height="6" viewBox="0 0 8 6" fill="none" xmlns="http://www.w3.org/2000/svg">
  <path d="M3.08604 5.18478L0.73604 2.93408C0.668441 2.86909 0.630485 2.7811 0.630485 2.68937C0.630485 2.59764 0.668441 2.50965 0.73604 2.44467L1.24704 1.95526C1.31489 1.89052 1.40676 1.85416 1.50254 1.85416C1.59832 1.85416 1.69019 1.89052 1.75804 1.95526L3.34204 3.47425L6.73204 0.223654C6.79989 0.158911 6.89176 0.122559 6.98754 0.122559C7.08332 0.122559 7.17519 0.158911 7.24304 0.223654L7.75504 0.713063C7.82264 0.778045 7.8606 0.866037 7.8606 0.957767C7.8606 1.0495 7.82264 1.13749 7.75504 1.20247L3.59704 5.18478C3.52919 5.24952 3.43732 5.28588 3.34154 5.28588C3.24576 5.28588 3.15389 5.24952 3.08604 5.18478Z" fill="white"/>
</svg>
  