<svg id="disc" xmlns="http://www.w3.org/2000/svg" width="20.539" height="20.539" viewBox="0 0 20.539 20.539">
  <path id="Path_53845" data-name="Path 53845" d="M11.7,15.956A4.259,4.259,0,1,0,7.438,11.7,4.28,4.28,0,0,0,11.7,15.956Zm0-6.457a2.2,2.2,0,1,1-2.2,2.2A2.214,2.214,0,0,1,11.7,9.5Z" transform="translate(-1.428 -1.428)" fill="#00171f"/>
  <path id="Path_53846" data-name="Path 53846" d="M11.27,21.539A10.27,10.27,0,1,0,1,11.27,10.275,10.275,0,0,0,11.27,21.539Zm0-18.478A8.209,8.209,0,1,1,3.061,11.27,8.209,8.209,0,0,1,11.27,3.061Z" transform="translate(-1 -1)" fill="#00171f"/>
</svg>
