<svg xmlns="http://www.w3.org/2000/svg" width="23.683" height="23.624" viewBox="0 0 23.683 23.624">
  <path id="fi-br-pencil" d="M21.815,1.126a3.926,3.926,0,0,0-5.425,0L1.54,15.976A5.222,5.222,0,0,0,0,19.691v1.816a1.434,1.434,0,0,0,1.434,1.434H3.25A5.222,5.222,0,0,0,6.967,21.4L21.815,6.551a3.84,3.84,0,0,0,0-5.425ZM4.938,19.374a2.408,2.408,0,0,1-1.688.7H2.867v-.382a2.409,2.409,0,0,1,.7-1.69L14.624,6.947l1.37,1.37ZM19.785,4.524,18.02,6.291,16.65,4.92l1.768-1.764a.991.991,0,0,1,1.37,0,.97.97,0,0,1,0,1.368Z" transform="translate(0.25 0.434)" fill="#00171f" stroke="#fff" stroke-width="0.5"/>
</svg>
