<svg xmlns="http://www.w3.org/2000/svg" xmlns:xlink="http://www.w3.org/1999/xlink" width="19" height="22" viewBox="0 0 19 22">
  <defs>
    <clipPath id="clip-path">
      <rect id="Rectangle_11624" data-name="Rectangle 11624" width="19" height="22" fill="#00171f"/>
    </clipPath>
  </defs>
  <g id="database" clip-path="url(#clip-path)">
    <path id="Path_53847" data-name="Path 53847" d="M11.519,23a19.014,19.014,0,0,0,8.924-2.24,1.057,1.057,0,0,0,.595-.955V4.2a1.057,1.057,0,0,0-.595-.955,18.892,18.892,0,0,0-17.847,0A1.057,1.057,0,0,0,2,4.2V19.768a1.058,1.058,0,0,0,.595.955A18.626,18.626,0,0,0,11.519,23Zm7.288-3.893a16.689,16.689,0,0,1-7.288,1.69,16.191,16.191,0,0,1-7.288-1.69V4.893A16.305,16.305,0,0,1,11.519,3.2a16.305,16.305,0,0,1,7.288,1.689Z" transform="translate(-2.037 -1)" fill="#00171f"/>
    <path id="Path_53848" data-name="Path 53848" d="M11.511,8.9a19.014,19.014,0,0,0,8.924-2.24,1.088,1.088,0,0,0,.446-1.506,1.115,1.115,0,0,0-1.524-.441,16.366,16.366,0,0,1-7.845,1.983A16.366,16.366,0,0,1,3.666,4.709a1.148,1.148,0,0,0-1.524.441,1.12,1.12,0,0,0,.446,1.506A19.014,19.014,0,0,0,11.511,8.9Z" transform="translate(-2.03 -1)" fill="#00171f"/>
    <path id="Path_53849" data-name="Path 53849" d="M11.511,15.948a19.013,19.013,0,0,0,8.924-2.24,1.088,1.088,0,0,0,.446-1.506,1.115,1.115,0,0,0-1.524-.441,16.366,16.366,0,0,1-7.845,1.983,16.366,16.366,0,0,1-7.845-1.983,1.148,1.148,0,0,0-1.524.441,1.12,1.12,0,0,0,.446,1.506A19.013,19.013,0,0,0,11.511,15.948Z" transform="translate(-2.03 -1)" fill="#00171f"/>
  </g>
</svg>
