<svg xmlns="http://www.w3.org/2000/svg" width="17" height="19.684" viewBox="0 0 17 19.684">
  <g id="file" transform="translate(-2 -1)">
    <path id="Path_33794" data-name="Path 33794" d="M18.008,20.684H2.992A.97.97,0,0,1,2,19.7V1.983A.97.97,0,0,1,2.992,1h8.335a.97.97,0,0,1,.992.983V7.616h5.689A.97.97,0,0,1,19,8.6V19.7A.99.99,0,0,1,18.008,20.684ZM3.984,18.719H17.016V9.581H11.327a.97.97,0,0,1-.992-.983V2.965H3.984Z" transform="translate(0 0)" fill="#00171f"/>
    <path id="Path_33795" data-name="Path 33795" d="M18.988,9.581a.956.956,0,0,1-.695-.295L11.613,2.67a.943.943,0,0,1,0-1.376.965.965,0,0,1,1.389,0l6.681,6.583a.943.943,0,0,1,0,1.376A.877.877,0,0,1,18.988,9.581Z" transform="translate(-0.981 0)" fill="#00171f"/>
  </g>
</svg>
