<svg xmlns="http://www.w3.org/2000/svg" xmlns:xlink="http://www.w3.org/1999/xlink" width="20" height="22" viewBox="0 0 20 22">
  <defs>
    <clipPath id="clip-path">
      <rect id="Rectangle_11623" data-name="Rectangle 11623" width="20" height="22" fill="#00171f"/>
    </clipPath>
  </defs>
  <g id="flag" clip-path="url(#clip-path)">
    <path id="Path_53843" data-name="Path 53843" d="M3.2,23a1.113,1.113,0,0,0,1.165-1.1V2.1A1.113,1.113,0,0,0,3.2,1,1.113,1.113,0,0,0,2.039,2.1V21.9A1.137,1.137,0,0,0,3.2,23Z" transform="translate(15.592 -1)" fill="#00171f"/>
    <path id="Path_53844" data-name="Path 53844" d="M3.156,17.582a.7.7,0,0,0,.272-.037l7.146-1.537a2.923,2.923,0,0,0,2.175-1.94l.388-1.281a.816.816,0,0,1,.7-.586l7.185-1.208a1.193,1.193,0,0,0,.971-1.318,1.153,1.153,0,0,0-1.359-.915L13.408,9.932a3.161,3.161,0,0,0-2.563,2.2l-.388,1.281a.485.485,0,0,1-.388.366L4.4,15.02V9.529l6.213-1.354a2.923,2.923,0,0,0,2.175-1.94l.388-1.281a.816.816,0,0,1,.7-.586L21.02,3.233a1.193,1.193,0,0,0,.971-1.318A1.2,1.2,0,0,0,20.593,1L13.37,2.171a3.161,3.161,0,0,0-2.563,2.2l-.388,1.281a.485.485,0,0,1-.388.366L2.923,7.589a1.151,1.151,0,0,0-.932,1.1v7.76a1.071,1.071,0,0,0,.466.878A1.032,1.032,0,0,0,3.156,17.582Z" transform="translate(-1.991 -1)" fill="#00171f"/>
  </g>
</svg>
