<svg xmlns="http://www.w3.org/2000/svg" width="19.468" height="19.468" viewBox="0 0 19.468 19.468">
  <g id="globe" transform="translate(-1 -1)">
    <path id="Path_33802" data-name="Path 33802" d="M10.734,20.468a9.734,9.734,0,1,1,9.734-9.734A9.739,9.739,0,0,1,10.734,20.468Zm0-17.514a7.781,7.781,0,1,0,7.781,7.781A7.78,7.78,0,0,0,10.734,2.953Z" fill="#00171f"/>
    <path id="Path_33803" data-name="Path 33803" d="M11.627,19.587a1.149,1.149,0,0,1-.456-.1,9.721,9.721,0,0,1,0-17.254.937.937,0,0,1,1.3.423.937.937,0,0,1-.423,1.3,7.813,7.813,0,0,0,.033,13.8.982.982,0,0,1,.423,1.3A.962.962,0,0,1,11.627,19.587Z" transform="translate(-0.567 -0.129)" fill="#00171f"/>
    <path id="Path_33804" data-name="Path 33804" d="M11.5,19.589a1.026,1.026,0,0,1-.879-.521.937.937,0,0,1,.423-1.3,7.8,7.8,0,0,0,0-13.8.968.968,0,0,1,.879-1.725,9.721,9.721,0,0,1,0,17.254A.815.815,0,0,1,11.5,19.589Z" transform="translate(-1.094 -0.131)" fill="#00171f"/>
    <path id="Path_33805" data-name="Path 33805" d="M19.491,12.85H1.977a.977.977,0,0,1,0-1.953H19.491a.977.977,0,1,1,0,1.953Z" transform="translate(0 -1.139)" fill="#00171f"/>
  </g>
</svg>
