<svg xmlns="http://www.w3.org/2000/svg" width="20.001" height="20" viewBox="0 0 20.001 20">
  <g id="ic_Dashboard" transform="translate(0 0)">
    <path id="Shape" d="M17.2,0H2.8A1.9,1.9,0,0,0,.9,1.9V12.417a2.622,2.622,0,0,0-.788,2.737l1.044,3.428A1.989,1.989,0,0,0,3.07,20H16.93a1.989,1.989,0,0,0,1.913-1.417l1.043-3.428a2.613,2.613,0,0,0-.787-2.736V1.9A1.9,1.9,0,0,0,17.2,0ZM8,9h4.5a1,1,0,0,0,1-1V2h3.6v9.7h-.388a2.993,2.993,0,0,0-1.918.689,2.994,2.994,0,0,0-1.918-.689h-.958A2.993,2.993,0,0,0,10,12.389,2.994,2.994,0,0,0,8.082,11.7H7.123a2.993,2.993,0,0,0-1.918.689A2.994,2.994,0,0,0,3.288,11.7H2.9V2H7V8A1,1,0,0,0,8,9ZM9,7V2h2.5V7Zm5.794,8.5a.958.958,0,0,0,1-1,.866.866,0,0,1,.918-.8h.479a.924.924,0,0,1,.239.031.778.778,0,0,1,.49.365.607.607,0,0,1,.053.475L16.93,18H3.07L2.026,14.572A.614.614,0,0,1,2,14.4a.76.76,0,0,1,.808-.7h.48a.866.866,0,0,1,.918.8.958.958,0,0,0,1,1,.958.958,0,0,0,1-1,.866.866,0,0,1,.918-.8h.958A.866.866,0,0,1,9,14.5a1,1,0,0,0,2,0,.866.866,0,0,1,.918-.8h.958a.866.866,0,0,1,.918.8A.958.958,0,0,0,14.794,15.5Z" transform="translate(20.001 20) rotate(180)" fill="#ffc20f"/>
  </g>
</svg>    