<svg xmlns="http://www.w3.org/2000/svg" width="16" height="20.037" viewBox="0 0 16 20.037">
  <g id="Group_55519" data-name="Group 55519" transform="translate(-4 -3.032)">
    <path id="Path_33785" data-name="Path 33785" d="M18.243,23.068H5.757C4.8,23.068,4,21.968,4,20.648v-7.3c0-1.357.8-2.42,1.757-2.42H18.243c.958,0,1.757,1.1,1.757,2.42v7.3C19.973,21.968,19.2,23.068,18.243,23.068ZM5.757,13.132c-.08,0-.16.11-.16.22v7.3c0,.11.08.22.16.22H18.243c.08,0,.16-.11.16-.22v-7.3c0-.11-.08-.22-.16-.22Z" transform="translate(0)" fill="#00171f"/>
    <path id="Path_33786" data-name="Path 33786" d="M16.877,12.178a1.08,1.08,0,0,1-1.1-1.1V9.008a3.777,3.777,0,1,0-7.553,0v2.07a1.1,1.1,0,0,1-2.2,0V9.008a5.977,5.977,0,1,1,11.953,0v2.07A1.1,1.1,0,0,1,16.877,12.178Z" fill="#00171f"/>
  </g>
</svg>
