<svg xmlns="http://www.w3.org/2000/svg" xmlns:xlink="http://www.w3.org/1999/xlink" width="20" height="17" viewBox="0 0 20 17">
  <defs>
    <clipPath id="clip-path">
      <rect id="Rectangle_4855" data-name="Rectangle 4855" width="20" height="17" transform="translate(2 3)" fill="#00171f"/>
    </clipPath>
  </defs>
  <g id="mail" transform="translate(-2 -3)" clip-path="url(#clip-path)">
    <path id="Path_33783" data-name="Path 33783" d="M12,12.511a.883.883,0,0,1-.633-.232l-9-7.522a.994.994,0,0,1-.133-1.392,1.008,1.008,0,0,1,1.4-.133L12,10.191l8.367-6.959a.973.973,0,0,1,1.4.133.96.96,0,0,1-.133,1.392l-8.967,7.522A1.246,1.246,0,0,1,12,12.511Z" fill="#00171f"/>
    <path id="Path_33784" data-name="Path 33784" d="M21,20H3a.979.979,0,0,1-1-.994V3.994A.979.979,0,0,1,3,3H21a.979.979,0,0,1,1,.994V19.006A.979.979,0,0,1,21,20ZM4,18.012H20V4.988H4Z" fill="#00171f"/>
  </g>
</svg>
