<svg xmlns="http://www.w3.org/2000/svg" width="18.361" height="13.771" viewBox="0 0 18.361 13.771">
  <g id="menu" transform="translate(0 -58.025)">
    <g id="grip-solid-horizontal_1_" transform="translate(0 58.025)">
      <path id="Path_33368" data-name="Path 33368" d="M17.213,350.449H1.148a1.148,1.148,0,0,1,0-2.3H17.213a1.148,1.148,0,1,1,0,2.3Z" transform="translate(0 -336.679)" fill="#1a2d4c"/>
      <path id="Path_33369" data-name="Path 33369" d="M17.213,205.385H1.148a1.148,1.148,0,1,1,0-2.3H17.213a1.148,1.148,0,1,1,0,2.3Z" transform="translate(0 -197.352)" fill="#1a2d4c"/>
      <path id="Path_33370" data-name="Path 33370" d="M17.213,60.32H1.148a1.148,1.148,0,0,1,0-2.3H17.213a1.148,1.148,0,1,1,0,2.3Z" transform="translate(0 -58.025)" fill="#1a2d4c"/>
    </g>
  </g>
</svg>
