<svg id="ic_Dashboard" xmlns="http://www.w3.org/2000/svg" width="22" height="22" viewBox="0 0 22 22">
  <path id="Shape" d="M20.783.024l-4.939,1.1A11,11,0,0,0,0,11a11,11,0,0,0,18.778,7.778,11.007,11.007,0,0,0,2.1-12.622l1.1-4.939A1,1,0,0,0,21,0,1.022,1.022,0,0,0,20.783.024ZM2,11A9,9,0,0,1,15.237,3.058a1.007,1.007,0,0,0,.472.118,1.024,1.024,0,0,0,.216-.023l3.758-.835-.835,3.757a1,1,0,0,0,.094.688A9,9,0,1,1,2,11Zm10,0a2,2,0,1,0,2-2A2,2,0,0,0,12,11ZM6,11A2,2,0,1,0,8,9,2,2,0,0,0,6,11Z" transform="translate(22 22) rotate(180)" fill="#fff"/>
</svg>
