<svg xmlns="http://www.w3.org/2000/svg" width="21.662" height="21.662" viewBox="0 0 21.662 21.662">
  <path id="fi-br-box-alt" d="M4.8,0H16.158a4.81,4.81,0,0,1,4.8,4.8V16.158a4.81,4.81,0,0,1-4.8,4.8H4.8a4.81,4.81,0,0,1-4.8-4.8V4.8A4.81,4.81,0,0,1,4.8,0ZM2.665,4.367H6.987V2.62H4.8A2.183,2.183,0,0,0,2.665,4.367Zm8.69-1.747H9.608V6.114a.873.873,0,1,0,1.747,0Zm4.8,0H13.975V4.367H18.3A2.184,2.184,0,0,0,16.158,2.62ZM4.8,18.342H16.158a2.184,2.184,0,0,0,2.184-2.184V6.987H13.851a3.477,3.477,0,0,1-6.739,0H2.62v9.171A2.184,2.184,0,0,0,4.8,18.342Zm-.437-3.057a1.31,1.31,0,0,0,1.31,1.31H8.3a1.31,1.31,0,1,0,0-2.62H5.677A1.31,1.31,0,0,0,4.367,15.285Z" transform="translate(0.35 0.35)" fill="#00171f" stroke="#fff" stroke-width="0.7"/>
</svg>
