<svg xmlns="http://www.w3.org/2000/svg" xmlns:xlink="http://www.w3.org/1999/xlink" width="20.003" height="20.037" viewBox="0 0 20.003 20.037">
  <defs>
    <clipPath id="clip-path">
      <rect id="Rectangle_4857" data-name="Rectangle 4857" width="20.003" height="20.037" transform="translate(0 0)" fill="#00171f"/>
    </clipPath>
  </defs>
  <g id="phone" transform="translate(0 0)" clip-path="url(#clip-path)">
    <path id="Path_33793" data-name="Path 33793" d="M3.767,21.068a17.323,17.323,0,0,0,17.269-17.3A2.746,2.746,0,0,0,18.3,1.032H14.9A1.95,1.95,0,0,0,12.935,3a9.673,9.673,0,0,1-.9,4.1,1.026,1.026,0,0,0,.2,1.134L13.7,9.666a.757.757,0,0,1,.2.533.817.817,0,0,1-.2.533L10.735,13.7a.767.767,0,0,1-1.034,0L8.268,12.267a1.015,1.015,0,0,0-1.134-.2,9.861,9.861,0,0,1-4.167.9A1.971,1.971,0,0,0,1,14.934v3.4A2.775,2.775,0,0,0,3.767,21.068ZM18.3,3.032a.74.74,0,0,1,.733.733,15.317,15.317,0,0,1-15.269,15.3.74.74,0,0,1-.733-.733V14.967a11.1,11.1,0,0,0,4.3-.833l.934.934a2.751,2.751,0,0,0,1.934.8,2.811,2.811,0,0,0,1.934-.8L15.1,12.1a2.751,2.751,0,0,0,.8-1.934,2.811,2.811,0,0,0-.8-1.934l-.967-.967A11.68,11.68,0,0,0,14.936,3H18.3Z" transform="translate(-1.033 -1.032)" fill="#00171f"/>
  </g>
</svg>
