<svg xmlns="http://www.w3.org/2000/svg" xmlns:xlink="http://www.w3.org/1999/xlink" width="21.9" height="18.657" viewBox="0 0 21.9 18.657">
  <defs>
    <clipPath id="clip-path">
      <rect id="Rectangle_11626" data-name="Rectangle 11626" width="21.9" height="18.657" fill="#00171f"/>
    </clipPath>
  </defs>
  <g id="layers" clip-path="url(#clip-path)">
    <path id="Path_53918" data-name="Path 53918" d="M12.032,13.056a1.548,1.548,0,0,1-.4-.073L1.756,8.975a1.012,1.012,0,0,1,0-1.895l9.912-4.008a.934.934,0,0,1,.765,0l9.912,3.972a1.012,1.012,0,0,1,0,1.895l-9.912,4.045A1.548,1.548,0,0,1,12.032,13.056ZM4.926,8.028l7.106,2.842,7.106-2.879L12.032,5.149Z" transform="translate(-1.1 -3)" fill="#00171f"/>
    <path id="Path_53919" data-name="Path 53919" d="M12.032,17.5a1.548,1.548,0,0,1-.4-.073L1.756,13.422a1.032,1.032,0,0,1-.583-1.348,1.02,1.02,0,0,1,1.348-.583l9.511,3.826,9.511-3.826a1.039,1.039,0,1,1,.765,1.931L12.433,17.43A1.308,1.308,0,0,1,12.032,17.5Z" transform="translate(-1.1 -3)" fill="#00171f"/>
    <path id="Path_53920" data-name="Path 53920" d="M12.032,21.657a1.548,1.548,0,0,1-.4-.073L1.756,17.612a1.032,1.032,0,0,1-.583-1.348,1.02,1.02,0,0,1,1.348-.583l9.511,3.826,9.511-3.826a1.039,1.039,0,1,1,.765,1.931l-9.875,3.972A.721.721,0,0,1,12.032,21.657Z" transform="translate(-1.1 -3)" fill="#00171f"/>
  </g>
</svg>
