<svg id="ic_Dashboard" xmlns="http://www.w3.org/2000/svg" width="19.994" height="22" viewBox="0 0 19.994 22">
  <path id="Combined_Shape" data-name="Combined Shape" d="M7.091,2.339,7.035,2.6A8.946,8.946,0,0,0,4.147,4.256l-.257-.084A2.984,2.984,0,0,0,.395,5.5a2.941,2.941,0,0,0,.59,3.666l.2.18a8.769,8.769,0,0,0,0,3.307l-.2.181A2.944,2.944,0,0,0,.395,16.5a2.98,2.98,0,0,0,3.495,1.327l.258-.084A9.061,9.061,0,0,0,7.035,19.4l.057.264a2.974,2.974,0,0,0,5.811,0l.056-.265a8.932,8.932,0,0,0,2.888-1.652l.257.084A2.98,2.98,0,0,0,19.6,16.5a2.945,2.945,0,0,0-.589-3.667l-.2-.179a8.792,8.792,0,0,0,0-3.307l.2-.181A2.941,2.941,0,0,0,19.6,5.5,2.984,2.984,0,0,0,16.1,4.172l-.258.084A9.081,9.081,0,0,0,12.959,2.6L12.9,2.339a2.974,2.974,0,0,0-5.811,0ZM5.105,6.1a6.968,6.968,0,0,1,3.06-1.75,1,1,0,0,0,.72-.759l.178-.84a.956.956,0,0,1,1.867,0l.177.838a1,1,0,0,0,.72.758,7.065,7.065,0,0,1,1.644.682A6.982,6.982,0,0,1,14.889,6.1a1,1,0,0,0,.709.289,1.031,1.031,0,0,0,.313-.05l.819-.266a.947.947,0,0,1,.933,1.6l-.643.572a.99.99,0,0,0-.3,1,6.85,6.85,0,0,1,0,3.5.99.99,0,0,0,.3,1l.642.571a.945.945,0,0,1,.189,1.177.959.959,0,0,1-1.122.426l-.819-.266a1.015,1.015,0,0,0-1.023.24,6.973,6.973,0,0,1-3.06,1.751,1,1,0,0,0-.72.759l-.178.839a.955.955,0,0,1-1.867,0l-.177-.837a1,1,0,0,0-.72-.759A7.027,7.027,0,0,1,5.1,15.9a1.014,1.014,0,0,0-1.022-.239l-.82.266a.947.947,0,0,1-.933-1.6l.643-.573a.991.991,0,0,0,.3-1,6.83,6.83,0,0,1,0-3.5.993.993,0,0,0-.3-1L2.33,7.677A.944.944,0,0,1,2.141,6.5a.958.958,0,0,1,.826-.473.947.947,0,0,1,.3.047l.82.266a1.021,1.021,0,0,0,.312.05A1.008,1.008,0,0,0,5.105,6.1ZM6.336,11A3.66,3.66,0,1,0,10,7.368,3.65,3.65,0,0,0,6.336,11Zm2.016,0A1.644,1.644,0,1,1,10,12.632,1.64,1.64,0,0,1,8.352,11Z" transform="translate(19.994 22) rotate(180)" fill="#fff"/>
</svg>
