<svg width="22" height="11" viewBox="0 0 22 11" fill="none" xmlns="http://www.w3.org/2000/svg">
  <path d="M10.9818 10.0659C10.8458 10.0593 10.7113 10.0347 10.5818 9.99291L0.705806 5.98491C0.512958 5.91256 0.346782 5.78308 0.229475 5.61377C0.112168 5.44446 0.0493164 5.24339 0.0493164 5.03741C0.0493164 4.83144 0.112168 4.63037 0.229475 4.46106C0.346782 4.29175 0.512958 4.16227 0.705806 4.08991L10.6178 0.0819144C10.7381 0.027917 10.8685 0 11.0003 0C11.1322 0 11.2625 0.027917 11.3828 0.0819144L21.2948 4.05391C21.4877 4.12627 21.6538 4.25575 21.7711 4.42506C21.8884 4.59437 21.9513 4.79544 21.9513 5.00141C21.9513 5.20739 21.8884 5.40846 21.7711 5.57777C21.6538 5.74708 21.4877 5.87656 21.2948 5.94891L11.3828 9.99391C11.2529 10.0355 11.1181 10.0597 10.9818 10.0659V10.0659ZM3.87581 5.03791L10.9818 7.87991L18.0878 5.00091L10.9818 2.15891L3.87581 5.03791Z" fill="#00171F"/>
  </svg>
  
  