<svg xmlns="http://www.w3.org/2000/svg" width="20.892" height="20.892" viewBox="0 0 20.892 20.892">
  <g id="fi-br-cross-circle" transform="translate(0.25 0.25)">
    <path id="Path_53833" data-name="Path 53833" d="M14.774,7.873a1.274,1.274,0,0,0-1.8,0L11.323,9.521,9.676,7.873a1.275,1.275,0,0,0-1.8,1.8l1.648,1.647L7.873,12.971a1.275,1.275,0,1,0,1.8,1.8l1.647-1.648,1.647,1.648a1.275,1.275,0,1,0,1.8-1.8l-1.648-1.647,1.648-1.647A1.274,1.274,0,0,0,14.774,7.873Z" transform="translate(-1.128 -1.128)" fill="#00171f" stroke="#fff" stroke-width="0.5"/>
    <path id="Path_53834" data-name="Path 53834" d="M10.2,0a10.2,10.2,0,1,0,10.2,10.2A10.2,10.2,0,0,0,10.2,0Zm0,17.843A7.647,7.647,0,1,1,17.843,10.2,7.647,7.647,0,0,1,10.2,17.843Z" fill="#00171f" stroke="#fff" stroke-width="0.5"/>
  </g>
</svg>
