<svg xmlns="http://www.w3.org/2000/svg" width="91.858" height="91.861" viewBox="0 0 91.858 91.861">
  <g id="Group_58153" data-name="Group 58153" transform="translate(0.063 0.065)">
    <g id="Group_58152" data-name="Group 58152" transform="translate(-0.062 -0.065)">
      <g id="_05_Accept" data-name="05 Accept">
        <g id="Group_58151" data-name="Group 58151">
          <g id="Group_58150" data-name="Group 58150">
            <path id="Path_53851" data-name="Path 53851" d="M87.083,102.256a41.449,41.449,0,1,1,0-71.814,41.459,41.459,0,0,0,0,71.814Z" transform="translate(-20.423 -20.422)" fill="#ffc20f"/>
          </g>
          <path id="Union_4" data-name="Union 4" d="M6819.82-4990.292a45.79,45.79,0,0,1-24.3-7,45.657,45.657,0,0,1-20.393-28.606,45.57,45.57,0,0,1,5.811-34.67,45.533,45.533,0,0,1,28.607-20.393,45.663,45.663,0,0,1,34.67,5.793,45.786,45.786,0,0,1,17.164,19.3,46.1,46.1,0,0,1,4.125,24.787,4.479,4.479,0,0,1-4.951,3.964,4.478,4.478,0,0,1-3.963-4.949,36.94,36.94,0,0,0-3.317-19.945,36.785,36.785,0,0,0-13.81-15.514,37,37,0,0,0-50.92,11.748,36.664,36.664,0,0,0-4.68,27.889,36.656,36.656,0,0,0,16.411,23.029,36.9,36.9,0,0,0,20,5.614,37.056,37.056,0,0,0,19.389-5.757,4.474,4.474,0,0,1,6.188,1.382,4.472,4.472,0,0,1-1.382,6.186,46.144,46.144,0,0,1-24.086,7.14Zm-9.937-30.348-11.191-11.192a4.482,4.482,0,0,1,0-6.349,4.481,4.481,0,0,1,6.349,0l8.017,8.017,21.613-21.628a4.479,4.479,0,0,1,6.35,0,4.484,4.484,0,0,1,0,6.348l-24.788,24.8a4.468,4.468,0,0,1-3.176,1.31A4.466,4.466,0,0,1,6809.884-5020.641Z" transform="translate(-6773.93 5082.153)" fill="#00171f"/>
        </g>
      </g>
    </g>
  </g>
</svg>
