<svg width="22" height="19" viewBox="0 0 22 19" fill="none" xmlns="http://www.w3.org/2000/svg">
<path d="M6.34705 17.937V15.195C6.3576 14.26 6.7391 13.3674 7.40765 12.7137C8.0762 12.06 8.97705 11.6986 9.91205 11.709H17.041C17.976 11.6986 18.8769 12.06 19.5454 12.7137C20.214 13.3674 20.5955 14.26 20.606 15.195V17.937" stroke-width="1.8" stroke-miterlimit="10" stroke-linecap="round" stroke-linejoin="round"/>
<path d="M13.477 8.22395C15.4459 8.22395 17.042 6.66322 17.042 4.73795C17.042 2.81269 15.4459 1.25195 13.477 1.25195C11.5081 1.25195 9.91199 2.81269 9.91199 4.73795C9.91199 6.66322 11.5081 8.22395 13.477 8.22395Z" stroke-width="1.8" stroke-miterlimit="10" stroke-linecap="round" stroke-linejoin="round"/>
<path d="M1 17.9369V15.1939C1.0065 14.4143 1.27309 13.6592 1.7575 13.0484C2.24191 12.4375 2.9164 12.0059 3.674 11.8219" stroke-width="1.8" stroke-miterlimit="10" stroke-linecap="round" stroke-linejoin="round"/>
<path d="M7.23898 1.36499C6.47926 1.54782 5.80257 1.97962 5.31671 2.59162C4.83085 3.20362 4.56375 3.9606 4.55798 4.74199C4.56398 5.52321 4.83117 6.27996 5.31702 6.89175C5.80286 7.50355 6.47943 7.9352 7.23898 8.11799" stroke-width="1.8" stroke-miterlimit="10" stroke-linecap="round" stroke-linejoin="round"/>
</svg>
