<svg id="users" xmlns="http://www.w3.org/2000/svg" width="22" height="22" viewBox="0 0 22 22">
  <path id="Path_53828" data-name="Path 53828" d="M17.683,23a1.08,1.08,0,0,0,1.1-1.1V18.747c0-3.667-2.017-5.683-5.683-5.683H6.683C3.017,13.063,1,15.08,1,18.747V21.9A1.08,1.08,0,0,0,2.1,23a1.08,1.08,0,0,0,1.1-1.1V18.747c0-2.457,1.063-3.483,3.483-3.483H13.1c2.457,0,3.483,1.063,3.483,3.483V21.9A1.1,1.1,0,0,0,17.683,23Z" transform="translate(3.217 -1)" fill="#00171f"/>
  <path id="Path_53829" data-name="Path 53829" d="M9.873,12.147A5.573,5.573,0,1,0,4.3,6.573,5.571,5.571,0,0,0,9.873,12.147Zm0-8.947A3.373,3.373,0,1,1,6.5,6.573,3.364,3.364,0,0,1,9.873,3.2Z" transform="translate(3.253 -1)" fill="#00171f"/>
  <path id="Path_53830" data-name="Path 53830" d="M19.777,23a1.08,1.08,0,0,0,1.1-1.1V18.747c0-2.163.843-2.823,1.5-3.117a1.1,1.1,0,1,0-.953-1.98c-1.247.587-2.75,1.98-2.75,5.1V21.9A1.128,1.128,0,0,0,19.777,23Z" transform="translate(-18.677 -1)" fill="#00171f"/>
  <path id="Path_53831" data-name="Path 53831" d="M18.522,11.817a1.1,1.1,0,0,0,.4-2.127,3.347,3.347,0,0,1,0-6.233,1.125,1.125,0,0,0,.623-1.43,1.125,1.125,0,0,0-1.43-.623,5.5,5.5,0,0,0-3.483,5.17,5.535,5.535,0,0,0,3.483,5.17A1.557,1.557,0,0,0,18.522,11.817Z" transform="translate(-11.262 -1)" fill="#00171f"/>
</svg>
