<svg xmlns="http://www.w3.org/2000/svg" width="15.045" height="14.762" viewBox="0 0 15.045 14.762">
  <g id="Group_55520" data-name="Group 55520" transform="translate(-2 -0.993)">
    <path id="Path_33787" data-name="Path 33787" d="M2.738,19.732A.725.725,0,0,1,2,18.994V16.878a3.439,3.439,0,0,1,3.814-3.814h4.306a3.439,3.439,0,0,1,3.814,3.814v2.116a.738.738,0,1,1-1.476,0V16.878c0-1.648-.713-2.337-2.337-2.337H5.814c-1.648,0-2.337.714-2.337,2.337v2.116A.74.74,0,0,1,2.738,19.732Z" transform="translate(0 -3.977)" fill="#00171f"/>
    <path id="Path_33788" data-name="Path 33788" d="M9.042,8.472a3.74,3.74,0,1,1,3.74-3.74A3.738,3.738,0,0,1,9.042,8.472Zm0-6a2.264,2.264,0,1,0,2.264,2.264A2.258,2.258,0,0,0,9.042,2.469Z" transform="translate(-1.088)" fill="#00171f"/>
    <path id="Path_33789" data-name="Path 33789" d="M19.462,11.055h-3a.738.738,0,0,1,0-1.476h3.026a.725.725,0,0,1,.738.738A.746.746,0,0,1,19.462,11.055Z" transform="translate(-3.179 -4.083)" fill="#00171f"/>
    <path id="Path_33790" data-name="Path 33790" d="M18.7,11.818a.725.725,0,0,1-.738-.738v-3a.738.738,0,0,1,1.476,0V11.1A.72.72,0,0,1,18.7,11.818Z" transform="translate(-3.917 -3.346)" fill="#00171f"/>
  </g>
</svg>
