<svg width="24" height="22" viewBox="0 0 24 22" fill="none" xmlns="http://www.w3.org/2000/svg">
  <path d="M20 8.86416V8.70832C20.0061 7.14902 19.4664 5.62905 18.4602 4.37177C17.454 3.11449 16.0344 2.1862 14.41 1.72332H14.35C13.511 1.48887 12.6369 1.3775 11.76 1.39332C9.67183 1.49837 7.7061 2.32993 6.264 3.71829C4.8219 5.10665 4.01215 6.94715 4 8.86416C3.41401 9.05312 2.90646 9.40417 2.54742 9.86884C2.18838 10.3335 1.99554 10.8889 1.99554 11.4583C1.99554 12.0277 2.18838 12.5831 2.54742 13.0478C2.90646 13.5125 3.41401 13.8635 4 14.0525C4.20597 15.8627 5.13892 17.538 6.61748 18.7528C8.09604 19.9675 10.0145 20.6348 12 20.625H12.23C14.15 20.5398 15.9749 19.8338 17.3809 18.6322C18.7868 17.4307 19.6829 15.8113 19.91 14.0617C20.5029 13.8834 21.0204 13.5401 21.3904 13.0796C21.7605 12.619 21.9647 12.0642 21.9746 11.4923C21.9845 10.9204 21.7996 10.3599 21.4457 9.88883C21.0918 9.41777 20.5864 9.05959 20 8.86416ZM12.18 18.7917C10.7324 18.83 9.3185 18.3872 8.19921 17.5448C7.07991 16.7024 6.33077 15.5174 6.09 14.2083H17.86C17.6159 15.4476 16.922 16.5748 15.8908 17.4068C14.8597 18.2389 13.5519 18.7269 12.18 18.7917ZM19 12.375H5C4.73479 12.375 4.48043 12.2784 4.2929 12.1065C4.10536 11.9346 4 11.7014 4 11.4583C4 11.2152 4.10536 10.9821 4.2929 10.8101C4.48043 10.6382 4.73479 10.5417 5 10.5417H7C7.26522 10.5417 7.51957 10.4451 7.70711 10.2732C7.89465 10.1013 8 9.8681 8 9.62499C8 9.38187 7.89465 9.14872 7.70711 8.97681C7.51957 8.8049 7.26522 8.70832 7 8.70832H6C6.04477 7.75738 6.34127 6.83071 6.86392 6.00825C7.38658 5.1858 8.11969 4.49226 9 3.98749V6.87499C9 7.11811 9.10536 7.35126 9.2929 7.52317C9.48043 7.69508 9.73479 7.79166 10 7.79166C10.2652 7.79166 10.5196 7.69508 10.7071 7.52317C10.8946 7.35126 11 7.11811 11 6.87499V3.29082C11.2714 3.24925 11.5452 3.22171 11.82 3.20832H12C12.3351 3.21265 12.6694 3.24023 13 3.29082V6.87499C13 7.11811 13.1054 7.35126 13.2929 7.52317C13.4804 7.69508 13.7348 7.79166 14 7.79166C14.2652 7.79166 14.5196 7.69508 14.7071 7.52317C14.8946 7.35126 15 7.11811 15 6.87499V3.95999C15.4242 4.18515 15.8199 4.4526 16.18 4.75749C16.7566 5.27073 17.2148 5.88492 17.5274 6.5636C17.84 7.24228 18.0008 7.97162 18 8.70832H17C16.7348 8.70832 16.4804 8.8049 16.2929 8.97681C16.1054 9.14872 16 9.38187 16 9.62499C16 9.8681 16.1054 10.1013 16.2929 10.2732C16.4804 10.4451 16.7348 10.5417 17 10.5417H19C19.2652 10.5417 19.5196 10.6382 19.7071 10.8101C19.8946 10.9821 20 11.2152 20 11.4583C20 11.7014 19.8946 11.9346 19.7071 12.1065C19.5196 12.2784 19.2652 12.375 19 12.375Z" fill="#FFC20F"/>
  </svg>
  