<svg xmlns="http://www.w3.org/2000/svg" width="65.866" height="58.392" viewBox="0 0 65.866 58.392">
  <g id="_008-payment_method" data-name=" 008-payment method" transform="translate(0 -0.176)">
    <path id="Path_33480" data-name="Path 33480" d="M608.561,352.557a13.387,13.387,0,0,0-4.235-9.35,25.491,25.491,0,0,1-4.625-6.5c-3.809-7.671-10.3-12.723-17.673-12.723-5.238,0-10.033,2.552-13.736,6.782a23.629,23.629,0,0,1-9,6.333c-8.364,3.359-13.86,9.031-13.86,15.463s5.5,12.1,13.86,15.462a23.632,23.632,0,0,1,9,6.334c3.7,4.23,8.5,6.782,13.736,6.782,7.371,0,13.864-5.053,17.673-12.723a25.49,25.49,0,0,1,4.625-6.5A13.391,13.391,0,0,0,608.561,352.557Z" transform="translate(-545.434 -323.803)" fill="#eee"/>
    <g id="Group_55338" data-name="Group 55338" transform="translate(27.458)">
      <path id="Path_33520" data-name="Path 33520" d="M585.365,326.069a.616.616,0,0,1-.436-1.052l1.233-1.233a.617.617,0,0,1,.872.872l-1.233,1.233A.614.614,0,0,1,585.365,326.069Z" transform="translate(-609.749 -311.603)" fill="#00171f"/>
      <path id="Path_33521" data-name="Path 33521" d="M661.922,395.618a.616.616,0,0,1-.436-1.052l1.233-1.233a.617.617,0,0,1,.872.872l-1.233,1.233A.616.616,0,0,1,661.922,395.618Z" transform="translate(-625.363 -360.499)" fill="#00171f"/>
      <path id="Path_33522" data-name="Path 33522" d="M585.627,432.785a.616.616,0,0,1-.436-1.052l1.233-1.233a.616.616,0,1,1,.872.872h0l-1.233,1.233A.614.614,0,0,1,585.627,432.785Z" transform="translate(-597.888 -374.217)" fill="#00171f"/>
    </g>
    <g id="Group_55529" data-name="Group 55529" transform="translate(-888.102 1053.399)">
      <path id="Path_33964" data-name="Path 33964" d="M944.744-866.842c-.078.295-.151.591-.236.885a5.849,5.849,0,0,1-7.358,3.938,5.825,5.825,0,0,1-3.768-7.479,6.421,6.421,0,0,1,.5-1.061c.186-.323.425-.616.653-.941-.339-.464-.694-.911-1-1.388-.215-.332-.412-.317-.715-.122a23.593,23.593,0,0,1-5,2.436,23.549,23.549,0,0,1-6.154,1.3c-.259.018-.517.055-.8.085v2.083a15.772,15.772,0,0,1,2.178,1.121,5.51,5.51,0,0,1,2.34,5.867,5.55,5.55,0,0,1-4.5,4.563,5.824,5.824,0,0,1-7.025-6.121,5.872,5.872,0,0,1,4.233-5.185.448.448,0,0,0,.406-.534c-.031-.584-.009-1.171-.009-1.773-1-.124-1.973-.208-2.933-.37a24.254,24.254,0,0,1-8.9-3.387c-.58-.363-.584-.356-.99.2l-.892,1.221a5.807,5.807,0,0,1,1.377,5.089,5.641,5.641,0,0,1-2.044,3.359,5.818,5.818,0,0,1-7.44-.077,5.836,5.836,0,0,1-1.3-7.367,5.891,5.891,0,0,1,7.525-2.414l1-1.359a2.57,2.57,0,0,1,3.8-.761,22.631,22.631,0,0,0,8.489,3.221,22.036,22.036,0,0,0,10.155-.745,22.689,22.689,0,0,0,5.177-2.4c1.644-1.016,2.856-.754,4,.816l.8,1.1a21.16,21.16,0,0,1,2.83-.354,5.767,5.767,0,0,1,5.5,4.768,2.578,2.578,0,0,0,.1.318Zm-5.814-4.231a3.479,3.479,0,0,0-3.513,3.451,3.493,3.493,0,0,0,3.448,3.521,3.519,3.519,0,0,0,3.524-3.458A3.5,3.5,0,0,0,938.93-871.074Zm-38.54,0a3.5,3.5,0,0,0-3.45,3.521,3.518,3.518,0,0,0,3.529,3.451,3.484,3.484,0,0,0,3.437-3.528A3.475,3.475,0,0,0,900.39-871.073Zm22.77,9.8a3.538,3.538,0,0,0-3.51-3.482,3.539,3.539,0,0,0-3.481,3.511,3.535,3.535,0,0,0,3.51,3.479A3.535,3.535,0,0,0,923.16-861.276Z" transform="translate(0 -144.291)" fill="#111"/>
      <path id="Path_33965" data-name="Path 33965" d="M982.033-967c1.729,0,3.469-.126,5.184.026a7.946,7.946,0,0,1,7.074,7.017,50.089,50.089,0,0,1,.052,5.474,2.249,2.249,0,0,1-1.173,1.873,20.048,20.048,0,0,1-9.052,3.161,20.38,20.38,0,0,1-12.946-3.052,2.791,2.791,0,0,1-1.469-2.623c.036-1.289-.02-2.58.02-3.868a8.177,8.177,0,0,1,8.292-8.089c1.339-.014,2.677,0,4.016,0Zm-7.74,13.577v-.662q0-2.155,0-4.309c0-1.034.418-1.58,1.191-1.571.754.01,1.154.545,1.155,1.555,0,1.812.01,3.624-.008,5.435a.489.489,0,0,0,.427.572,18.258,18.258,0,0,0,9.95.041c.4-.111.492-.279.487-.665-.021-1.763-.009-3.526-.009-5.289,0-.114,0-.229,0-.343.038-.817.509-1.323,1.214-1.306s1.125.514,1.131,1.325c.009,1.241,0,2.481,0,3.722v1.535c.76-.44,1.434-.821,2.094-1.224a.459.459,0,0,0,.126-.343c0-1.42.06-2.844-.025-4.259a5.765,5.765,0,0,0-5.593-5.5q-4.38-.108-8.764,0a5.616,5.616,0,0,0-5.471,4.775,41.5,41.5,0,0,0-.129,5.031.326.326,0,0,0,.118.246C972.855-954.251,973.526-953.866,974.293-953.42Z" transform="translate(-62.418 -68.244)" fill="#111"/>
      <path id="Path_33966" data-name="Path 33966" d="M1018.718-1043.032a6.209,6.209,0,0,1-6.18,6.212,6.208,6.208,0,0,1-6.187-6.2,6.205,6.205,0,0,1,6.155-6.187A6.208,6.208,0,0,1,1018.718-1043.032Zm-2.353.028a3.847,3.847,0,0,0-3.822-3.842,3.844,3.844,0,0,0-3.838,3.824,3.865,3.865,0,0,0,3.823,3.849A3.858,3.858,0,0,0,1016.365-1043Z" transform="translate(-92.871)" fill="#ffc20f"/>
      <path id="Path_33967" data-name="Path 33967" d="M1139.621-848.992a3.5,3.5,0,0,1,3.459,3.514,3.519,3.519,0,0,1-3.524,3.458,3.493,3.493,0,0,1-3.448-3.521A3.479,3.479,0,0,1,1139.621-848.992Z" transform="translate(-200.691 -166.372)" fill="#fff"/>
      <path id="Path_33968" data-name="Path 33968" d="M911.951-848.99a3.475,3.475,0,0,1,3.516,3.444,3.484,3.484,0,0,1-3.437,3.528,3.518,3.518,0,0,1-3.529-3.451A3.5,3.5,0,0,1,911.951-848.99Z" transform="translate(-11.561 -166.374)" fill="#fff"/>
      <path id="Path_33969" data-name="Path 33969" d="M1029.24-808.148a3.535,3.535,0,0,1-3.481,3.509,3.535,3.535,0,0,1-3.51-3.479,3.539,3.539,0,0,1,3.481-3.511A3.538,3.538,0,0,1,1029.24-808.148Z" transform="translate(-106.08 -197.419)" fill="#ffc20f"/>
      <path id="Path_33970" data-name="Path 33970" d="M985.883-941.976c-.766-.446-1.438-.831-2.1-1.231a.326.326,0,0,1-.118-.246,41.48,41.48,0,0,1,.129-5.031,5.616,5.616,0,0,1,5.471-4.775q4.38-.1,8.764,0a5.765,5.765,0,0,1,5.593,5.5c.084,1.415.028,2.839.025,4.259a.46.46,0,0,1-.126.343c-.659.4-1.333.784-2.094,1.224v-1.535c0-1.241.006-2.481,0-3.722-.006-.811-.44-1.308-1.131-1.325s-1.176.489-1.214,1.306c-.005.114,0,.228,0,.343,0,1.763-.011,3.526.009,5.289,0,.386-.084.554-.487.665a18.26,18.26,0,0,1-9.95-.041.489.489,0,0,1-.427-.572c.017-1.812.009-3.624.008-5.435,0-1.01-.4-1.545-1.155-1.555-.773-.01-1.189.537-1.191,1.571q0,2.155,0,4.309Z" transform="translate(-74.007 -79.688)" fill="#fff"/>
      <path id="Path_33971" data-name="Path 33971" d="M1027.93-1031.373a3.858,3.858,0,0,1-3.838,3.832,3.864,3.864,0,0,1-3.823-3.849,3.844,3.844,0,0,1,3.838-3.824A3.847,3.847,0,0,1,1027.93-1031.373Z" transform="translate(-104.436 -11.631)" fill="#fff"/>
    </g>
  </g>
</svg>
