<svg id="_008-payment_method" data-name=" 008-payment method" xmlns="http://www.w3.org/2000/svg" width="63.127" height="57.332" viewBox="0 0 63.127 57.332">
  <path id="Path_33480" data-name="Path 33480" d="M608.561,352.557a13.387,13.387,0,0,0-4.235-9.35,25.491,25.491,0,0,1-4.625-6.5c-3.809-7.671-10.3-12.723-17.673-12.723-5.238,0-10.033,2.552-13.736,6.782a23.629,23.629,0,0,1-9,6.333c-8.364,3.359-13.86,9.031-13.86,15.463s5.5,12.1,13.86,15.462a23.632,23.632,0,0,1,9,6.334c3.7,4.23,8.5,6.782,13.736,6.782,7.371,0,13.864-5.053,17.673-12.723a25.49,25.49,0,0,1,4.625-6.5A13.391,13.391,0,0,0,608.561,352.557Z" transform="translate(-545.434 -323.803)" fill="#eee"/>
  <g id="Group_55342" data-name="Group 55342" transform="translate(5.932 0)">
    <path id="Path_33481" data-name="Path 33481" d="M608.18,381.342a1.233,1.233,0,0,0,1.233-1.233h0v-8.436H559.38v21.969a4.165,4.165,0,0,0,4.165,4.165h27.544a9.014,9.014,0,1,0,11.342-9.531v-6.934h5.748Z" transform="translate(-558.764 -349.105)" fill="#00c" opacity="0.1" style="isolation: isolate"/>
    <g id="Group_55341" data-name="Group 55341">
      <path id="Path_33482" data-name="Path 33482" d="M601.2,354.635H563.542a4.165,4.165,0,0,1,0-8.331H602.43v7.1a1.233,1.233,0,0,1-1.233,1.233Z" transform="translate(-558.763 -335.646)" fill="#fff"/>
      <g id="Group_55328" data-name="Group 55328" transform="translate(5.254 4.789)">
        <path id="Path_33483" data-name="Path 33483" d="M613.421,358.664H570.492a1.233,1.233,0,0,1-1.233-1.233V335.036a1.233,1.233,0,0,1,1.233-1.233h42.929a1.233,1.233,0,0,1,1.233,1.233h0v22.395a1.233,1.233,0,0,1-1.233,1.233Z" transform="translate(-569.259 -333.803)" fill="#eee"/>
        <path id="Path_33484" data-name="Path 33484" d="M612.217,341.066l.307-1.246a.616.616,0,0,0-.6-.764H577.558a.616.616,0,0,0-.616.616.607.607,0,0,0,.018.147l.307,1.246a.616.616,0,0,1-.748.746l-1.246-.307a.617.617,0,0,0-.746.451.6.6,0,0,0-.018.147v13.831a.616.616,0,0,0,.616.616.627.627,0,0,0,.147-.018l1.246-.307a.616.616,0,0,1,.746.746l-.307,1.246a.616.616,0,0,0,.6.764h34.367a.616.616,0,0,0,.6-.764l-.307-1.246a.616.616,0,0,1,.746-.746l1.246.307a.617.617,0,0,0,.746-.451.625.625,0,0,0,.018-.147V342.1a.617.617,0,0,0-.764-.6l-1.246.307a.616.616,0,0,1-.744-.746Z" transform="translate(-572.044 -336.59)" fill="#fff"/>
        <g id="Group_55316" data-name="Group 55316" transform="translate(14.97 4.713)">
          <circle id="Ellipse_638" data-name="Ellipse 638" cx="7.065" cy="7.065" r="7.065" transform="translate(0.662 0.651)" fill="#ffc20f"/>
          <g id="Group_55313" data-name="Group 55313">
            <circle id="Ellipse_639" data-name="Ellipse 639" cx="2.31" cy="2.31" r="2.31" fill="#ffc20f"/>
            <circle id="Ellipse_640" data-name="Ellipse 640" cx="2.31" cy="2.31" r="2.31" transform="translate(10.838 10.827)" fill="#ffc20f"/>
          </g>
          <g id="Group_55315" data-name="Group 55315" transform="translate(5.063 3.684)">
            <g id="Group_55314" data-name="Group 55314">
              <path id="Path_33485" data-name="Path 33485" d="M615.4,359.873h-2.587a.616.616,0,1,1,0-1.233H615.4a.628.628,0,0,0,0-1.257h-1.608a1.861,1.861,0,1,1,0-3.723h2.587a.616.616,0,1,1,0,1.233h-2.587a.628.628,0,0,0,0,1.256h1.61a1.861,1.861,0,0,1,0,3.723Z" transform="translate(-611.927 -352.735)" fill="#fff"/>
              <path id="Path_33486" data-name="Path 33486" d="M616.906,359.754a.617.617,0,0,1-.616-.616V352.3a.616.616,0,1,1,1.233,0v6.833a.617.617,0,0,1-.617.616Z" transform="translate(-614.242 -351.688)" fill="#fff"/>
            </g>
          </g>
        </g>
        <g id="Group_55327" data-name="Group 55327" transform="translate(6.977 7.604)">
          <g id="Group_55321" data-name="Group 55321" transform="translate(25.892)">
            <g id="Group_55317" data-name="Group 55317" transform="translate(0 8.273)">
              <path id="Path_33487" data-name="Path 33487" d="M640.647,368.31a.689.689,0,1,1-.689-.689h0A.689.689,0,0,1,640.647,368.31Z" transform="translate(-639.269 -367.621)" fill="#00171f"/>
              <path id="Path_33488" data-name="Path 33488" d="M645.089,368.31a.689.689,0,1,1-.689-.689h0A.689.689,0,0,1,645.089,368.31Z" transform="translate(-641.625 -367.621)" fill="#00171f"/>
              <path id="Path_33489" data-name="Path 33489" d="M648.839,367.621a.689.689,0,1,1-.689.689h0a.689.689,0,0,1,.689-.689" transform="translate(-643.981 -367.621)" fill="#00171f"/>
            </g>
            <g id="Group_55320" data-name="Group 55320">
              <g id="Group_55319" data-name="Group 55319">
                <g id="Group_55318" data-name="Group 55318">
                  <path id="Path_33490" data-name="Path 33490" d="M640.647,350.689a.689.689,0,1,1-.689-.689h0A.689.689,0,0,1,640.647,350.689Z" transform="translate(-639.269 -350)" fill="#00171f"/>
                  <path id="Path_33491" data-name="Path 33491" d="M645.089,350.689A.689.689,0,1,1,644.4,350h0A.689.689,0,0,1,645.089,350.689Z" transform="translate(-641.625 -350)" fill="#00171f"/>
                  <path id="Path_33492" data-name="Path 33492" d="M648.839,350a.689.689,0,1,1-.689.689h0a.689.689,0,0,1,.689-.689" transform="translate(-643.981 -350)" fill="#00171f"/>
                </g>
              </g>
            </g>
          </g>
          <g id="Group_55326" data-name="Group 55326">
            <g id="Group_55322" data-name="Group 55322" transform="translate(0 8.273)">
              <path id="Path_33493" data-name="Path 33493" d="M585.5,368.31a.689.689,0,1,1-.689-.689.689.689,0,0,1,.689.689Z" transform="translate(-584.12 -367.621)" fill="#00171f"/>
              <path id="Path_33494" data-name="Path 33494" d="M589.939,368.31a.689.689,0,1,1-.689-.689.689.689,0,0,1,.689.689Z" transform="translate(-586.476 -367.621)" fill="#00171f"/>
              <path id="Path_33495" data-name="Path 33495" d="M593.69,367.621a.689.689,0,1,1-.689.689.689.689,0,0,1,.689-.689h0" transform="translate(-588.831 -367.621)" fill="#00171f"/>
            </g>
            <g id="Group_55325" data-name="Group 55325">
              <g id="Group_55324" data-name="Group 55324">
                <g id="Group_55323" data-name="Group 55323">
                  <path id="Path_33496" data-name="Path 33496" d="M585.5,350.689a.689.689,0,1,1-.689-.689.689.689,0,0,1,.689.689Z" transform="translate(-584.12 -350)" fill="#00171f"/>
                  <path id="Path_33497" data-name="Path 33497" d="M589.939,350.689a.689.689,0,1,1-.689-.689.689.689,0,0,1,.689.689Z" transform="translate(-586.476 -350)" fill="#00171f"/>
                  <path id="Path_33498" data-name="Path 33498" d="M593.69,350a.689.689,0,1,1-.689.689.689.689,0,0,1,.689-.689h0" transform="translate(-588.831 -350)" fill="#00171f"/>
                </g>
              </g>
            </g>
          </g>
        </g>
      </g>
      <path id="Path_33499" data-name="Path 33499" d="M602.43,360.574v24.658a1.233,1.233,0,0,1-1.233,1.233H563.544a4.165,4.165,0,0,1-4.164-4.166h0V355.175a4.166,4.166,0,0,0,4.166,4.166H601.2a1.233,1.233,0,0,1,1.233,1.233h0Z" transform="translate(-558.764 -340.352)" fill="#fff"/>
      <g id="Group_55334" data-name="Group 55334" transform="translate(8.228 22.7)">
        <g id="Group_55329" data-name="Group 55329">
          <path id="Path_33500" data-name="Path 33500" d="M640.506,373.186h-1.479a.616.616,0,0,1,0-1.233h1.479a.616.616,0,0,1,0,1.233Z" transform="translate(-608.918 -371.953)" fill="#00171f"/>
          <path id="Path_33501" data-name="Path 33501" d="M630.036,373.186h-1.479a.616.616,0,1,1,0-1.233h1.479a.616.616,0,1,1,0,1.233Z" transform="translate(-603.363 -371.953)" fill="#00171f"/>
          <path id="Path_33502" data-name="Path 33502" d="M619.566,373.186h-1.479a.616.616,0,1,1,0-1.233h1.479a.616.616,0,1,1,0,1.233Z" transform="translate(-597.809 -371.953)" fill="#00171f"/>
          <path id="Path_33503" data-name="Path 33503" d="M609.095,373.186h-1.479a.616.616,0,1,1,0-1.233h1.479a.616.616,0,1,1,0,1.233Z" transform="translate(-592.254 -371.953)" fill="#00171f"/>
          <path id="Path_33504" data-name="Path 33504" d="M598.626,373.186h-1.479a.616.616,0,0,1,0-1.233h1.479a.616.616,0,1,1,0,1.233Z" transform="translate(-586.7 -371.953)" fill="#00171f"/>
          <path id="Path_33505" data-name="Path 33505" d="M588.157,373.186h-1.479a.616.616,0,1,1,0-1.233h1.479a.616.616,0,1,1,0,1.233Z" transform="translate(-581.146 -371.953)" fill="#00171f"/>
          <path id="Path_33506" data-name="Path 33506" d="M577.689,373.186H576.21a.616.616,0,1,1,0-1.233h1.479a.616.616,0,0,1,0,1.233Z" transform="translate(-575.593 -371.953)" fill="#00171f"/>
        </g>
        <g id="Group_55331" data-name="Group 55331" transform="translate(31.074 4.178)">
          <path id="Path_33507" data-name="Path 33507" d="M642.4,404.5a.617.617,0,0,1-.616-.617v-1.479a.616.616,0,1,1,1.233,0v1.479a.617.617,0,0,1-.616.617Z" transform="translate(-641.78 -391.961)" fill="#00171f"/>
          <g id="Group_55330" data-name="Group 55330">
            <path id="Path_33508" data-name="Path 33508" d="M642.4,394.03a.617.617,0,0,1-.616-.616v-1.479a.616.616,0,0,1,1.233,0v1.479a.616.616,0,0,1-.616.616Z" transform="translate(-641.78 -386.404)" fill="#00171f"/>
            <path id="Path_33509" data-name="Path 33509" d="M642.4,383.562a.617.617,0,0,1-.616-.616v-1.477a.616.616,0,1,1,1.233,0v1.479A.617.617,0,0,1,642.4,383.562Z" transform="translate(-641.78 -380.852)" fill="#00171f"/>
          </g>
        </g>
        <g id="Group_55333" data-name="Group 55333" transform="translate(0 18.823)">
          <path id="Path_33510" data-name="Path 33510" d="M640.506,413.278h-1.479a.616.616,0,0,1,0-1.233h1.479a.616.616,0,0,1,0,1.233Z" transform="translate(-608.918 -412.045)" fill="#00171f"/>
          <path id="Path_33511" data-name="Path 33511" d="M630.036,413.278h-1.479a.616.616,0,1,1,0-1.233h1.479a.616.616,0,1,1,0,1.233Z" transform="translate(-603.363 -412.045)" fill="#00171f"/>
          <g id="Group_55332" data-name="Group 55332">
            <path id="Path_33512" data-name="Path 33512" d="M619.566,413.278h-1.479a.616.616,0,1,1,0-1.233h1.479a.616.616,0,1,1,0,1.233Z" transform="translate(-597.809 -412.045)" fill="#00171f"/>
            <path id="Path_33513" data-name="Path 33513" d="M609.095,413.278h-1.479a.616.616,0,1,1,0-1.233h1.479a.616.616,0,1,1,0,1.233Z" transform="translate(-592.254 -412.045)" fill="#00171f"/>
            <path id="Path_33514" data-name="Path 33514" d="M598.626,413.278h-1.479a.616.616,0,0,1,0-1.233h1.479a.616.616,0,1,1,0,1.233Z" transform="translate(-586.7 -412.045)" fill="#00171f"/>
            <path id="Path_33515" data-name="Path 33515" d="M588.157,413.278h-1.479a.616.616,0,1,1,0-1.233h1.479a.616.616,0,1,1,0,1.233Z" transform="translate(-581.146 -412.045)" fill="#00171f"/>
            <path id="Path_33516" data-name="Path 33516" d="M577.689,413.278H576.21a.616.616,0,1,1,0-1.233h1.479a.616.616,0,0,1,0,1.233Z" transform="translate(-575.593 -412.045)" fill="#00171f"/>
          </g>
        </g>
      </g>
      <g id="Group_55337" data-name="Group 55337" transform="translate(0 4.171)">
        <circle id="Ellipse_641" data-name="Ellipse 641" cx="9.017" cy="9.017" r="9.017" transform="translate(32.285 32.096)" fill="#eee"/>
        <path id="Path_33517" data-name="Path 33517" d="M607.484,358.582a1.852,1.852,0,0,0,1.849-1.849V334.337a1.852,1.852,0,0,0-1.849-1.849H564.555a1.851,1.851,0,0,0-1.849,1.849v4.023a4.788,4.788,0,0,0-4.638,4.773v27.132a4.789,4.789,0,0,0,4.781,4.781h23.313a.616.616,0,0,0,0-1.233H562.848a3.553,3.553,0,0,1-3.548-3.548V346.341a4.772,4.772,0,0,0,3.55,1.581H600.5a.617.617,0,0,1,.616.616v5.234a.617.617,0,0,0,1.233,0v-5.234a1.852,1.852,0,0,0-1.849-1.849h-.584v-3a.616.616,0,0,0-.616-.616h-.67a.616.616,0,0,0,0,1.233h.055v2.39H574.026v-3a.616.616,0,0,0-.616-.616h-.671a.616.616,0,1,0,0,1.233h.055v2.39h-8.856V334.339a.617.617,0,0,1,.617-.616h42.929a.617.617,0,0,1,.616.616v22.395a.617.617,0,0,1-.616.616h-5.748a.616.616,0,0,0-.616.616h0v6.164a9.628,9.628,0,1,0,1.233.312v-5.862ZM559.3,343.143v0a3.552,3.552,0,0,1,3.406-3.545v7.089A3.554,3.554,0,0,1,559.3,343.143ZM607.77,373.6a8.4,8.4,0,1,1-8.4-8.4,8.4,8.4,0,0,1,8.4,8.4Z" transform="translate(-558.068 -332.488)" fill="#00171f"/>
        <circle id="Ellipse_642" data-name="Ellipse 642" cx="6.653" cy="6.653" r="6.653" transform="translate(34.641 34.428)" fill="#fff"/>
        <path id="Union_3" data-name="Union 3" d="M1163.843-203.336v-.362h-.876a.617.617,0,0,1-.616-.617.617.617,0,0,1,.616-.617h.876v-1.4h-.232a1.933,1.933,0,0,1-1.9-1.963,1.934,1.934,0,0,1,1.9-1.9h.232v-.365a.617.617,0,0,1,.616-.617.617.617,0,0,1,.617.617v.365h.879a.617.617,0,0,1,.616.617.616.616,0,0,1-.616.617h-.879v1.4h.235a1.934,1.934,0,0,1,1.9,1.963,1.933,1.933,0,0,1-1.9,1.9h-.235v.363a.617.617,0,0,1-.617.616A.617.617,0,0,1,1163.843-203.336Zm1.468-1.595a.7.7,0,0,0,.718-.681.7.7,0,0,0-.682-.718h-.271v1.4Zm-2.381-3.314a.7.7,0,0,0,.681.681h.232v-1.4h-.232A.7.7,0,0,0,1162.93-208.245Z" transform="translate(-1123.16 248.06)" fill="#ffc20f" stroke="rgba(0,0,0,0)" stroke-miterlimit="10" stroke-width="1"/>
      </g>
      <g id="Group_55338" data-name="Group 55338" transform="translate(12.527)">
        <path id="Path_33520" data-name="Path 33520" d="M585.365,326.069a.616.616,0,0,1-.436-1.052l1.233-1.233a.617.617,0,0,1,.872.872l-1.233,1.233A.614.614,0,0,1,585.365,326.069Z" transform="translate(-584.749 -323.603)" fill="#00171f"/>
        <path id="Path_33521" data-name="Path 33521" d="M661.922,395.618a.616.616,0,0,1-.436-1.052l1.233-1.233a.617.617,0,0,1,.872.872l-1.233,1.233A.616.616,0,0,1,661.922,395.618Z" transform="translate(-625.363 -360.499)" fill="#00171f"/>
        <path id="Path_33522" data-name="Path 33522" d="M585.627,432.785a.616.616,0,0,1-.436-1.052l1.233-1.233a.616.616,0,1,1,.872.872h0l-1.233,1.233A.614.614,0,0,1,585.627,432.785Z" transform="translate(-584.888 -380.217)" fill="#00171f"/>
      </g>
    </g>
  </g>
</svg>
