<svg xmlns="http://www.w3.org/2000/svg" width="60.679" height="56.677" viewBox="0 0 60.679 56.677">
  <g id="_022-shipping" data-name=" 022-shipping" transform="translate(-1070.048 1270.564)">
    <path id="Path_33486" data-name="Path 33486" d="M1119.806-1248.281a19.772,19.772,0,0,0,.179-2.814,19.6,19.6,0,0,0-19.73-19.469,19.6,19.6,0,0,0-19.469,19.73,19.65,19.65,0,0,0,.184,2.553,9.144,9.144,0,0,1-4.173,8.92c-4.221,2.687-6.749,6.109-6.749,9.835,0,8.637,13.584,15.639,30.34,15.639s30.339-7,30.339-15.639c0-3.726-2.528-7.148-6.748-9.834a9.144,9.144,0,0,1-4.173-8.92Z" fill="#f4f5f6"/>
    <g id="Group_55331" data-name="Group 55331">
      <g id="Group_55329" data-name="Group 55329">
        <g id="Group_55325" data-name="Group 55325">
          <g id="Group_55319" data-name="Group 55319">
            <g id="Group_55317" data-name="Group 55317">
              <path id="Path_33489" data-name="Path 33489" d="M1115.31-1214.066h-29.846a.593.593,0,0,1-.593-.593h0v-24.186a.594.594,0,0,1,.593-.593h29.847a.592.592,0,0,1,.593.591v24.189a.592.592,0,0,1-.592.592Z" fill="#e0e0e0"/>
              <g id="Group_55316" data-name="Group 55316">
                <path id="Path_33490" data-name="Path 33490" d="M1122.77-1253.762l-9.007,9.007a1.187,1.187,0,0,0-.347.838v8.14h2.488v-7.6l8.625-8.625a.354.354,0,0,0,0-.5l-1.256-1.256a.356.356,0,0,0-.5,0Z" fill="#fff"/>
                <path id="Path_33491" data-name="Path 33491" d="M1077.5-1253.762l-1.256,1.256a.357.357,0,0,0,0,.5l8.626,8.626v7.6h2.488v-8.139a1.187,1.187,0,0,0-.347-.838l-9.007-9.007a.356.356,0,0,0-.5,0Z" fill="#fff"/>
                <path id="Path_33493" data-name="Path 33493" d="M1115.31-1216.555h-29.846a.593.593,0,0,1-.593-.593h0v-24.186a.594.594,0,0,1,.593-.593h29.847a.592.592,0,0,1,.593.591v24.19a.591.591,0,0,1-.593.591Z" fill="#fff"/>
              </g>
            </g>
            <g id="Group_55318" data-name="Group 55318">
              <path id="Path_33494" data-name="Path 33494" d="M1103.882-1233.752h-6.99a.593.593,0,0,1-.593-.593h0v-7.583h8.175v7.583a.592.592,0,0,1-.593.593h0Z" fill="#e0e0e0"/>
              <path id="Path_33495" data-name="Path 33495" d="M1100.387-1233.752h-3.5a.593.593,0,0,1-.593-.593h0v-7.583h4.088Z" fill="#e0e0e0"/>
            </g>
          </g>
          <g id="Group_55324" data-name="Group 55324">
            <path id="Path_33496" data-name="Path 33496" d="M1099.558-1216.555h-11.67v-10.354a.593.593,0,0,1,.591-.593h10.486a.594.594,0,0,1,.594.593h0Z" fill="#ffc20f"/>
            <g id="Group_55323" data-name="Group 55323">
              <g id="Group_55320" data-name="Group 55320">
                <path id="Path_33497" data-name="Path 33497" d="M1091.448-1224.436h-1.482a.593.593,0,0,1-.568-.617.594.594,0,0,1,.568-.568h1.482a.592.592,0,0,1,.568.617A.592.592,0,0,1,1091.448-1224.436Z" fill="#fff"/>
              </g>
              <g id="Group_55321" data-name="Group 55321">
                <path id="Path_33498" data-name="Path 33498" d="M1097.491-1221.355h-7.523a.593.593,0,0,1-.568-.617.594.594,0,0,1,.568-.568h7.523a.593.593,0,0,1,.617.568.592.592,0,0,1-.568.617Z" fill="#fff"/>
              </g>
              <g id="Group_55322" data-name="Group 55322">
                <path id="Path_33499" data-name="Path 33499" d="M1097.491-1218.986h-7.523a.593.593,0,0,1-.568-.617.594.594,0,0,1,.568-.568h7.523a.593.593,0,0,1,.617.568.592.592,0,0,1-.568.617Z" fill="#fff"/>
              </g>
            </g>
          </g>
        </g>
        <g id="Group_55328" data-name="Group 55328">
          <path id="Path_33502" data-name="Path 33502" d="M1119.345-1224.285a.593.593,0,0,1-.592-.593.6.6,0,0,1,.173-.419l1.185-1.185a.594.594,0,0,1,.838.032.592.592,0,0,1,0,.806l-1.185,1.185A.586.586,0,0,1,1119.345-1224.285Z" fill="#00171f"/>
          <path id="Path_33503" data-name="Path 33503" d="M1076.142-1242.609a.59.59,0,0,1-.592-.591.589.589,0,0,1,.173-.42l1.185-1.186a.6.6,0,0,1,.839.028.593.593,0,0,1,0,.806h0l-1.185,1.185A.585.585,0,0,1,1076.142-1242.609Z" fill="#00171f"/>
        </g>
      </g>
      <g id="Group_55330" data-name="Group 55330">
        <path id="Path_33504" data-name="Path 33504" d="M1124.948-1252.924l-1.256-1.256a.951.951,0,0,0-1.341,0l-9.007,9.007a1.773,1.773,0,0,0-.521,1.256v1.4h-21.434a.594.594,0,0,0-.568.617.594.594,0,0,0,.568.568h23.922v24.188h-29.847v-24.191h1.9a.592.592,0,0,0,.593-.593h0v-1.984a1.759,1.759,0,0,0-.521-1.256l-9.007-9.007a.948.948,0,0,0-1.34,0h0l-1.256,1.256a.949.949,0,0,0,0,1.341h0l8.453,8.452v25.984a1.186,1.186,0,0,0,1.185,1.185h29.845a1.186,1.186,0,0,0,1.186-1.185v-25.99l8.452-8.452a.947.947,0,0,0,0-1.34h-.006Zm-48.116.67.922-.922,8.839,8.84a.585.585,0,0,1,.173.419v1.4h-1.3v-.857a.584.584,0,0,0-.174-.419Zm38.652,8.458a.593.593,0,0,0-.173.419v.857h-1.3v-1.4a.593.593,0,0,1,.174-.419l8.84-8.84.922.922Z" fill="#00171f"/>
      </g>
      <g id="Group_55531" data-name="Group 55531" transform="translate(-526.722 504.384)">
        <path id="Path_33972" data-name="Path 33972" d="M1627.378-1751.793h-1.125l-.406-.046a9.419,9.419,0,0,1-4.322-1.556,9.5,9.5,0,0,1-4.161-6.346c-.067-.36-.1-.726-.15-1.089v-1.125c.012-.067.025-.133.034-.2.057-.4.087-.809.174-1.2a9.4,9.4,0,0,1,3.972-5.939,9.3,9.3,0,0,1,7.445-1.473,9.274,9.274,0,0,1,5.307,3.2,9.36,9.36,0,0,1,2.219,7.152,9.222,9.222,0,0,1-2.111,5.078,9.464,9.464,0,0,1-5.784,3.4C1628.108-1751.878,1627.742-1751.843,1627.378-1751.793Zm7.914-9.6a8.49,8.49,0,0,0-8.485-8.472,8.49,8.49,0,0,0-8.469,8.469,8.49,8.49,0,0,0,8.475,8.482A8.49,8.49,0,0,0,1635.292-1761.4Z" transform="translate(0)" fill="#e96161"/>
        <path id="Path_33973" data-name="Path 33973" d="M1637.272-1759.41a8.491,8.491,0,0,1-8.478,8.479,8.491,8.491,0,0,1-8.475-8.482,8.49,8.49,0,0,1,8.469-8.469A8.49,8.49,0,0,1,1637.272-1759.41Zm-5.335,5.542,2.419-2.419-3.158-3.16,3.128-3.129-2.383-2.383-3.172,3.169-3.138-3.137-2.4,2.4,3.159,3.16-3.128,3.129,2.383,2.383L1628.8-1757Z" transform="translate(-1.98 -1.988)" fill="#e96161" stroke="#e96161" stroke-width="1"/>
        <path id="Path_33974" data-name="Path 33974" d="M1637.066-1748.723l-3.139-3.136-3.151,3.148-2.383-2.383,3.128-3.129-3.158-3.159,2.4-2.4,3.138,3.137,3.172-3.169,2.383,2.383-3.128,3.129,3.158,3.16Zm-6.274-1.543,3.179-3.179,3.123,3.123.807-.807-3.161-3.16,3.138-3.135-.806-.806-3.153,3.154-3.134-3.134-.823.824,3.152,3.151-3.148,3.146Z" transform="translate(-7.11 -7.133)" fill="#e96161"/>
      </g>
    </g>
  </g>
</svg>
