    <svg xmlns="http://www.w3.org/2000/svg" width="60.679" height="57.067" viewBox="0 0 60.679 57.067">
  <g id="_022-shipping-3" data-name=" 022-shipping-3" transform="translate(-1714.048 1270.954)">
    <path id="Path_33486-3" data-name="Path 33486-3" d="M1763.806-1248.281a19.772,19.772,0,0,0,.179-2.814,19.6,19.6,0,0,0-19.73-19.469,19.6,19.6,0,0,0-19.469,19.73,19.65,19.65,0,0,0,.184,2.553,9.144,9.144,0,0,1-4.173,8.92c-4.221,2.687-6.749,6.109-6.749,9.835,0,8.637,13.584,15.639,30.34,15.639s30.339-7,30.339-15.639c0-3.726-2.528-7.148-6.748-9.834a9.144,9.144,0,0,1-4.173-8.92Z" fill="rgba(239,239,240,0.54)"/>
    <g id="Group_55331-3" data-name="Group 55331-3">
      <path id="Path_33487-3" data-name="Path 33487-3" d="M1754.52-1257.88a1.18,1.18,0,0,0-1.184-1.126h-3.261v-10.17a1.185,1.185,0,0,0-1.185-1.185h-9a1.186,1.186,0,0,0-1.186,1.184h0v10.17h-3.26a1.182,1.182,0,0,0-1.184,1.126v2.948h20.271Z" fill="#ffc20f"/>
      <g id="Group_55329-3" data-name="Group 55329-3">
        <g id="Group_55325-3" data-name="Group 55325-3">
          <g id="Group_55319-3" data-name="Group 55319-3">
            <g id="Group_55317-3" data-name="Group 55317-3">
              <path id="Path_33489-3" data-name="Path 33489-3" d="M1759.31-1214.066h-29.846a.593.593,0,0,1-.593-.593h0v-24.186a.594.594,0,0,1,.593-.593h29.847a.592.592,0,0,1,.593.591v24.189a.592.592,0,0,1-.592.592Z" fill="#e0e0e0"/>
              <g id="Group_55316-3" data-name="Group 55316-3">
                <path id="Path_33490-3" data-name="Path 33490-3" d="M1766.77-1253.762l-9.007,9.007a1.187,1.187,0,0,0-.347.838v8.14h2.488v-7.6l8.625-8.625a.354.354,0,0,0,0-.5l-1.256-1.256a.356.356,0,0,0-.5,0Z" fill="#fff"/>
                <path id="Path_33491-3" data-name="Path 33491-3" d="M1721.5-1253.762l-1.256,1.256a.357.357,0,0,0,0,.5l8.626,8.626v7.6h2.488v-8.139a1.187,1.187,0,0,0-.347-.838l-9.007-9.007a.356.356,0,0,0-.5,0Z" fill="#fff"/>
                <path id="Path_33492-3" data-name="Path 33492-3" d="M1750.074-1256.178v-10.17a1.185,1.185,0,0,0-1.185-1.185h-9a1.186,1.186,0,0,0-1.186,1.184h0v10.17h-3.26a1.186,1.186,0,0,0-1.184,1.186,1.185,1.185,0,0,0,.346.836l8.948,8.948a1.185,1.185,0,0,0,1.675,0l8.948-8.948a1.185,1.185,0,0,0,0-1.676,1.189,1.189,0,0,0-.836-.346Z" fill="#fff"/>
                <path id="Path_33493-3" data-name="Path 33493-3" d="M1759.31-1216.555h-29.846a.593.593,0,0,1-.593-.593h0v-24.186a.594.594,0,0,1,.593-.593h29.847a.592.592,0,0,1,.593.591v24.19a.591.591,0,0,1-.593.591Z" fill="#fff"/>
              </g>
            </g>
            <g id="Group_55318-3" data-name="Group 55318-3">
              <path id="Path_33494-3" data-name="Path 33494-3" d="M1747.882-1233.752h-6.99a.593.593,0,0,1-.593-.593h0v-7.583h8.175v7.583a.592.592,0,0,1-.593.593h0Z" fill="#e0e0e0"/>
              <path id="Path_33495-3" data-name="Path 33495-3" d="M1744.387-1233.752h-3.5a.593.593,0,0,1-.593-.593h0v-7.583h4.088Z" fill="#e0e0e0"/>
            </g>
          </g>
          <g id="Group_55324-3" data-name="Group 55324-3">
            <path id="Path_33496-3" data-name="Path 33496-3" d="M1743.558-1216.555h-11.67v-10.354a.593.593,0,0,1,.591-.593h10.486a.594.594,0,0,1,.594.593h0Z" fill="#ffc20f"/>
            <g id="Group_55323-3" data-name="Group 55323-3">
              <g id="Group_55320-3" data-name="Group 55320-3">
                <path id="Path_33497-3" data-name="Path 33497-3" d="M1735.448-1224.436h-1.482a.593.593,0,0,1-.568-.617.594.594,0,0,1,.568-.568h1.482a.592.592,0,0,1,.568.617A.592.592,0,0,1,1735.448-1224.436Z" fill="#fff"/>
              </g>
              <g id="Group_55321-3" data-name="Group 55321-3">
                <path id="Path_33498-3" data-name="Path 33498-3" d="M1741.491-1221.355h-7.523a.593.593,0,0,1-.568-.617.594.594,0,0,1,.568-.568h7.523a.593.593,0,0,1,.617.568.592.592,0,0,1-.568.617Z" fill="#fff"/>
              </g>
              <g id="Group_55322-3" data-name="Group 55322-3">
                <path id="Path_33499-3" data-name="Path 33499-3" d="M1741.491-1218.986h-7.523a.593.593,0,0,1-.568-.617.594.594,0,0,1,.568-.568h7.523a.593.593,0,0,1,.617.568.592.592,0,0,1-.568.617Z" fill="#fff"/>
              </g>
            </g>
          </g>
        </g>
        <g id="Group_55328-3" data-name="Group 55328-3">
          <path id="Path_33502-3" data-name="Path 33502-3" d="M1763.345-1224.285a.593.593,0,0,1-.592-.593.6.6,0,0,1,.173-.419l1.185-1.185a.594.594,0,0,1,.838.032.592.592,0,0,1,0,.806l-1.185,1.185A.586.586,0,0,1,1763.345-1224.285Z" fill="#00171f"/>
          <path id="Path_33503-3" data-name="Path 33503-3" d="M1720.142-1242.609a.59.59,0,0,1-.592-.591.589.589,0,0,1,.173-.42l1.185-1.186a.6.6,0,0,1,.839.028.593.593,0,0,1,0,.806h0l-1.185,1.185A.585.585,0,0,1,1720.142-1242.609Z" fill="#00171f"/>
        </g>
      </g>
      <g id="Group_55330-3" data-name="Group 55330-3">
        <path id="Path_33504-3" data-name="Path 33504-3" d="M1768.948-1252.924l-1.256-1.256a.951.951,0,0,0-1.341,0l-9.007,9.007a1.773,1.773,0,0,0-.521,1.256v1.4h-21.434a.594.594,0,0,0-.568.617.594.594,0,0,0,.568.568h23.922v24.188h-29.847v-24.191h1.9a.592.592,0,0,0,.593-.593h0v-1.984a1.759,1.759,0,0,0-.521-1.256l-9.007-9.007a.948.948,0,0,0-1.34,0h0l-1.256,1.256a.949.949,0,0,0,0,1.341h0l8.453,8.452v25.984a1.186,1.186,0,0,0,1.185,1.185h29.845a1.186,1.186,0,0,0,1.186-1.185v-25.99l8.452-8.452a.947.947,0,0,0,0-1.34h-.006Zm-48.116.67.922-.922,8.839,8.84a.585.585,0,0,1,.173.419v1.4h-1.3v-.857a.584.584,0,0,0-.174-.419Zm38.652,8.458a.593.593,0,0,0-.173.419v.857h-1.3v-1.4a.593.593,0,0,1,.174-.419l8.84-8.84.922.922Z" fill="#00171f"/>
        <path id="Path_33505-3" data-name="Path 33505-3" d="M1734.183-1253.737l8.948,8.948a1.779,1.779,0,0,0,2.513,0l8.948-8.948a1.746,1.746,0,0,0,.523-1.318v-2.826a.186.186,0,0,0,0-.033,1.76,1.76,0,0,0-1.782-1.682h-3.26a.592.592,0,0,0-.593.591v2.829a.592.592,0,0,0,.591.593h3.262a.593.593,0,0,1,.592.595.6.6,0,0,1-.174.417l-8.948,8.947a.592.592,0,0,1-.837,0l-8.948-8.947a.592.592,0,0,1,0-.838.593.593,0,0,1,.418-.174h3.261a.592.592,0,0,0,.593-.593h0v-10.17a.593.593,0,0,1,.591-.593h9a.592.592,0,0,1,.593.591v3.315a.593.593,0,0,0,.617.568.592.592,0,0,0,.568-.568v-6.143a1.779,1.779,0,0,0-1.778-1.778h-9a1.78,1.78,0,0,0-1.778,1.778v9.58h-2.668a1.763,1.763,0,0,0-1.775,1.684v2.86a1.753,1.753,0,0,0,.523,1.318Zm19.153-3.034h-2.668v-1.643h2.665a.59.59,0,0,1,.59.554v1.188a1.8,1.8,0,0,0-.592-.1Zm-13.45-13h9a.592.592,0,0,1,.593.591v1.156a1.762,1.762,0,0,0-.593-.1h-9a1.766,1.766,0,0,0-.593.1v-1.152a.594.594,0,0,1,.593-.593h0Zm-4.446,11.354h2.668v1.643h-2.668a1.817,1.817,0,0,0-.593.1v-1.188a.593.593,0,0,1,.59-.554Z" fill="#00171f"/>
      </g>
    </g>
  </g>
</svg>
