<svg xmlns="http://www.w3.org/2000/svg" width="67.736" height="59.701" viewBox="0 0 67.736 59.701">
  <g id="Group_55301" data-name="Group 55301" transform="translate(-1387.685 1415.668)">
    <path id="Path_33529" data-name="Path 33529" d="M1443.914-1392.21a20.649,20.649,0,0,0-17.673-23.248,20.65,20.65,0,0,0-23.249,17.673,20.655,20.655,0,0,0,0,5.575,9.634,9.634,0,0,1-4.4,9.4c-4.447,2.832-7.111,6.437-7.111,10.364,0,9.1,14.313,16.479,31.97,16.479s31.97-7.378,31.97-16.479c0-3.926-2.665-7.532-7.112-10.363a9.636,9.636,0,0,1-4.4-9.4Z" fill="#f4f5f6"/>
    <rect id="Rectangle_5452" data-name="Rectangle 5452" width="19.065" height="19.758" transform="translate(1413.7 -1385.459)" fill="#fff"/>
    <path id="Path_33554" data-name="Path 33554" d="M1388.388-1360.33a.7.7,0,0,1-.7-.707.712.712,0,0,1,.2-.493l1.41-1.41a.706.706,0,0,1,1-.012.7.7,0,0,1,.012,1l-.012.013-1.41,1.41A.7.7,0,0,1,1388.388-1360.33Z" fill="#00171f"/>
    <path id="Path_33555" data-name="Path 33555" d="M1449.86-1387.381a.7.7,0,0,1-.71-.69.7.7,0,0,1,.21-.51l1.41-1.41a.707.707,0,0,1,1,0,.707.707,0,0,1,0,1h0l-1.41,1.41A.7.7,0,0,1,1449.86-1387.381Z" fill="#00171f"/>
    <path id="Path_33556" data-name="Path 33556" d="M1402.213-1412.851a.7.7,0,0,1-.7-.707.712.712,0,0,1,.2-.493l1.41-1.41a.707.707,0,0,1,1,0,.706.706,0,0,1,0,1l-1.41,1.41A.7.7,0,0,1,1402.213-1412.851Z" fill="#00171f"/>
    <path id="Path_33466-2" data-name="Path 33466-2" d="M1423.2-1405.742a8.423,8.423,0,0,0-8.421,8.423,8.422,8.422,0,0,0,8.423,8.421,8.422,8.422,0,0,0,8.421-8.422A8.432,8.432,0,0,0,1423.2-1405.742Zm0,14.871h0a6.449,6.449,0,0,1-6.448-6.45,6.451,6.451,0,0,1,6.45-6.448,6.449,6.449,0,0,1,6.448,6.449,6.456,6.456,0,0,1-6.45,6.453Z" fill="#ffc20f"/>
    <path id="Path_33467" data-name="Path 33467" d="M1448.388-1368.141v-8.046a7.033,7.033,0,0,0-7.013-7.013h-5.033a7,7,0,0,0-1.842.248l-.409.112-.191-.378a6.986,6.986,0,0,0-6.254-3.845h-8.9a6.989,6.989,0,0,0-6.252,3.845l-.191.378-.409-.112a6.986,6.986,0,0,0-1.842-.247h-5.03a7.032,7.032,0,0,0-7.012,7.013v8.046a4.01,4.01,0,0,0,4,4h42.381A4.01,4.01,0,0,0,1448.388-1368.141Zm-36.634-12.373c-.01.153-.017.307-.017.464v13.936h-9.73a2.032,2.032,0,0,1-2.026-2.026v-8.047a5.052,5.052,0,0,1,5.041-5.039h5.034a5.011,5.011,0,0,1,1.318.176l.41.112Zm20.932,14.4H1413.71v-13.936a5.054,5.054,0,0,1,5.038-5.04h8.9a5.052,5.052,0,0,1,5.039,5.039Zm13.729-2.026a2.03,2.03,0,0,1-2.025,2.026h-9.731v-13.936c0-.156-.007-.311-.017-.464l-.028-.424.41-.112a5.1,5.1,0,0,1,1.318-.176h5.033a5.052,5.052,0,0,1,5.039,5.039Z" fill="#00171f"/>
    <path id="Path_33468" data-name="Path 33468" d="M1407.536-1397.425a6.174,6.174,0,0,0-6.174,6.174,6.174,6.174,0,0,0,6.174,6.174,6.174,6.174,0,0,0,6.174-6.174A6.18,6.18,0,0,0,1407.536-1397.425Zm0,10.374a4.2,4.2,0,0,1-4.2-4.2,4.2,4.2,0,0,1,4.2-4.2,4.2,4.2,0,0,1,4.2,4.2,4.206,4.206,0,0,1-4.2,4.2Z" fill="#00171f"/>
    <path id="Path_33469" data-name="Path 33469" d="M1438.857-1397.425a6.175,6.175,0,0,0-6.173,6.175,6.174,6.174,0,0,0,6.175,6.173,6.173,6.173,0,0,0,6.173-6.174A6.181,6.181,0,0,0,1438.857-1397.425Zm0,10.374a4.2,4.2,0,0,1-4.2-4.2,4.2,4.2,0,0,1,4.2-4.2,4.2,4.2,0,0,1,4.2,4.2,4.2,4.2,0,0,1-4.2,4.2Z" fill="#00171f"/>
  </g>
</svg>
