<svg xmlns="http://www.w3.org/2000/svg" width="57.114" height="72.189" viewBox="0 0 57.114 72.189">
  <g id="_025-shopping_basket" data-name=" 025-shopping basket" transform="translate(-2044.833 1423.608)">
    <path id="Path_33466" data-name="Path 33466" d="M2097.7-1399.37a13.633,13.633,0,0,0-4.048-2.786,17.548,17.548,0,0,1-8.8-8.962,20.887,20.887,0,0,0-27.524-10.721,20.887,20.887,0,0,0-10.721,27.524,20.924,20.924,0,0,0,2.038,3.615,18.016,18.016,0,0,1,2.4,15.747c-2.364,7.592-1.539,14.788,2.957,19.285,7.879,7.88,24.05,4.483,36.117-7.584s15.463-28.238,7.585-36.117Z" fill="#f4f5f6"/>
    <g id="Group_55531" data-name="Group 55531">
      <path id="Path_33972" data-name="Path 33972" d="M2050.224-1383.907a7.929,7.929,0,0,1,.387-.889,2.819,2.819,0,0,1,2.455-1.463c.474-.018.949,0,1.406,0a13.977,13.977,0,0,1-.009-5.519l-.508-.064a2.866,2.866,0,0,1-2.542-2.794q-.033-1.422,0-2.849a2.891,2.891,0,0,1,2.836-2.824c.507-.014,1.016-.027,1.522.005a.617.617,0,0,0,.648-.383q2.734-4.767,5.492-9.524a3.8,3.8,0,0,1,5.071-1.78,3.8,3.8,0,0,1,1.776,1.772q2.742,4.737,5.464,9.484a.738.738,0,0,0,.771.431c.851-.027,1.7-.015,2.555-.007a2.884,2.884,0,0,1,2.953,2.814c0,.045,0,.091,0,.137.009.835.028,1.672-.008,2.506a15.052,15.052,0,0,1-.225,1.556,1.443,1.443,0,0,1,.387.04,8.965,8.965,0,0,1,1.525.6,1.038,1.038,0,0,0,.807.17,14.333,14.333,0,0,1,11.031,2.088,1.662,1.662,0,0,1,.346.271.67.67,0,0,1,.046.9.674.674,0,0,1-.868.248,2.789,2.789,0,0,1-.421-.249,13.1,13.1,0,0,0-18.113,3.892,13.1,13.1,0,0,0-1.96,5.215,13.088,13.088,0,0,0,11.121,14.8l.15.02a13.057,13.057,0,0,0,14.631-11.267c.015-.113.028-.227.04-.341a12.835,12.835,0,0,0-3.318-10.138c-.281-.317-.481-.634-.244-1.052.266-.47.844-.478,1.274-.006a14.313,14.313,0,0,1,3.653,7.526c.067.4.131.8.191,1.2v2.261c-.06.369-.126.738-.182,1.109a14.548,14.548,0,0,1-16.635,12.1,14.6,14.6,0,0,1-1.447-.3c-.954-.262-1.876-.642-2.836-.975a3.147,3.147,0,0,1-2.973,1.477c-7.468-.022-14.936-.011-22.4-.011-.18,0-.361,0-.541-.006a2.725,2.725,0,0,1-2.731-2.355,19.3,19.3,0,0,1,0-3.77,2.673,2.673,0,0,1,1.756-2.177,11.789,11.789,0,0,1-.084-5.778c-1.429-.608-1.641-.828-2.241-2.363Zm10.073-10.039a11.384,11.384,0,0,1-1.183-.008,6.649,6.649,0,0,1-1.34-.258.64.64,0,0,1-.444-.788.716.716,0,0,1,.029-.084.714.714,0,0,1,.841-.51c.681.064,1.361.155,2.043.166,1.525.025,1.552.035,1.552,1.585v10.172c0,1.156.381,1.54,1.521,1.541h3.979c1.2,0,1.595-.385,1.6-1.577v-10.761c0-.708.236-.946.934-.951.573-.005,1.147.009,1.72,0a2.322,2.322,0,0,0,2.2-1.524,2.392,2.392,0,0,0-.264-2.157c-1.992-3.44-4.027-6.858-5.945-10.34a2.433,2.433,0,0,0-3.242-1.152,2.435,2.435,0,0,0-1.147,1.141c-1.809,3.317-3.748,6.564-5.654,9.828a3.571,3.571,0,0,0-.672,2.491.626.626,0,0,1-.485.741.629.629,0,0,1-.115.013.675.675,0,0,1-.807-.51l-.006-.029a1.942,1.942,0,0,1-.08-.531c.006-.45.037-.9.059-1.389-.326,0-.651-.005-.977,0a1.439,1.439,0,0,0-1.527,1.344,1.6,1.6,0,0,0,0,.205c-.008.753,0,1.507,0,2.26,0,1.215.523,1.748,1.726,1.751q2.6.006,5.208,0c.157,0,.314-.017.482-.026Zm17.868,28c-.048-.064-.062-.1-.087-.115a15.214,15.214,0,0,1-4.415-4.48.6.6,0,0,0-.446-.192q-9.776-.013-19.552,0a1.4,1.4,0,0,0-1.474,1.322,1.627,1.627,0,0,0,0,.169c-.011.737,0,1.474,0,2.211,0,1.358.473,1.835,1.822,1.835h22.5c.148,0,.3,0,.442-.006a1.382,1.382,0,0,0,1.209-.741Zm-5.4-6.27a15.264,15.264,0,0,1-1.322-5.556h-16c-.131,0-.262,0-.393.012a1.41,1.41,0,0,0-1.384,1.435v.049c-.011.786,0,1.573,0,2.359,0,1.17.537,1.7,1.716,1.7h17.382Zm-12.444-12.57c-2.483,0-4.889-.016-7.3.01a1.366,1.366,0,0,0-1.324,1.405v.029c-.015.786,0,1.572,0,2.359,0,1.219.513,1.735,1.727,1.736h18.052a15.149,15.149,0,0,1,1.489-5.513h-2.6c0,.47.005.909,0,1.349a2.663,2.663,0,0,1-2.571,2.752c-.064,0-.129,0-.194,0q-2.259.011-4.52,0a2.635,2.635,0,0,1-2.756-2.509c0-.079,0-.159,0-.238-.009-.436,0-.875,0-1.376Zm10.082-6.993v5.513c1.084,0,2.131.014,3.177-.014a.743.743,0,0,0,.48-.313,14.789,14.789,0,0,1,6.021-4.973c.1-.048.2-.111.388-.213Zm-.017-1.5H2077c.2,0,.394.007.59-.006a1.425,1.425,0,0,0,1.444-1.4c0-.042,0-.085,0-.128,0-.868.011-1.737,0-2.6a1.34,1.34,0,0,0-1.207-1.386c-.843-.062-1.7-.015-2.562-.015.019.159.029.288.049.416a3.758,3.758,0,0,1-3.021,4.372c-.06.011-.119.02-.179.028a16.684,16.684,0,0,1-1.719.087Zm-10.1,7.01v-5.507c-1.173,0-2.316-.036-3.455.014a1.248,1.248,0,0,0-1.113,1.244c-.029.981-.031,1.963,0,2.944a1.33,1.33,0,0,0,1.293,1.3c1.074.029,2.157.006,3.274.006Z" fill="#00171f"/>
      <path id="Path_33973" data-name="Path 33973" d="M2075.941-1378.267a10.059,10.059,0,0,1,10.053-10.063h0a10.052,10.052,0,0,1,10.054,10.052v.01A10.073,10.073,0,0,1,2086-1368.2,10.077,10.077,0,0,1,2075.941-1378.267Zm1.474,0a8.6,8.6,0,0,0,8.593,8.6,8.6,8.6,0,0,0,8.568-8.621,8.579,8.579,0,0,0-8.568-8.564,8.584,8.584,0,0,0-8.593,8.575v.009Z" fill="#00171f"/>
      <path id="Path_33974" data-name="Path 33974" d="M2090.533-1401.162a6.618,6.618,0,0,1,.8.2,2.639,2.639,0,0,1,1.488,2.7,2.111,2.111,0,0,1-1.823,2.02q-1.077.24-2.163.429a2.215,2.215,0,0,1-2.656-1.662l-.012-.057a2.2,2.2,0,0,1,1.466-2.744l.034-.01c.678-.24,1.357-.476,2.041-.7A8,8,0,0,1,2090.533-1401.162Zm-2.034,3.911c.7-.145,1.556-.287,2.391-.506.481-.126.563-.531.347-1.237-.161-.527-.467-.766-.928-.627-.78.234-1.551.506-2.314.793a.7.7,0,0,0-.409.892.8.8,0,0,0,.9.687l.014,0Z" fill="#00171f"/>
      <path id="Path_33975" data-name="Path 33975" d="M2081.912-1405.117a8.222,8.222,0,0,1,.663-1.372,21.721,21.721,0,0,1,1.566-1.823,2.182,2.182,0,0,1,3.078-.2c.028.025.056.05.082.076a2.317,2.317,0,0,1,.955,2.538,2.908,2.908,0,0,1-.691,1.1c-.538.547-1.139,1.033-1.728,1.526a2.086,2.086,0,0,1-2.38.339A2.677,2.677,0,0,1,2081.912-1405.117Zm2.364.995a2.377,2.377,0,0,0,.543-.233c.625-.526,1.254-1.049,1.845-1.613.389-.371.284-.76-.269-1.288-.42-.4-.8-.443-1.151-.067a22.61,22.61,0,0,0-1.534,1.782.933.933,0,0,0-.089.8C2083.74-1404.482,2084.059-1404.315,2084.276-1404.122Z" fill="#ffc20f"/>
      <path id="Path_33976" data-name="Path 33976" d="M2075.085-1409.352a28.391,28.391,0,0,1,.619-2.788,1.9,1.9,0,0,1,1.9-1.371c1.538-.01,2.728.744,2.821,2.179a1.861,1.861,0,0,1-.057.681c-.282.869-.553,1.746-.9,2.59a2.172,2.172,0,0,1-2.564,1.224A2.316,2.316,0,0,1,2075.085-1409.352Zm2.723-2.689a.723.723,0,0,0-.812.621c0,.015,0,.03-.005.045-.143.7-.287,1.407-.413,2.113a.757.757,0,0,0,.5.946.693.693,0,0,0,.09.022.767.767,0,0,0,1-.42.8.8,0,0,0,.038-.125c.211-.582.4-1.17.6-1.757.323-.932.009-1.385-.994-1.445Z" fill="#00171f"/>
      <path id="Path_33977" data-name="Path 33977" d="M2060.3-1393.946v.641c-.168.009-.325.026-.482.026h-5.208c-1.2,0-1.725-.536-1.726-1.751,0-.753-.007-1.507,0-2.26a1.438,1.438,0,0,1,1.32-1.547,1.4,1.4,0,0,1,.205,0c.326-.007.651,0,.977,0-.022.488-.053.939-.059,1.389a2.021,2.021,0,0,0,.08.531.675.675,0,0,0,.784.545l.029-.006a.626.626,0,0,0,.614-.638.639.639,0,0,0-.014-.116,3.576,3.576,0,0,1,.672-2.491c1.906-3.264,3.845-6.511,5.654-9.828a2.434,2.434,0,0,1,3.248-1.136,2.439,2.439,0,0,1,1.142,1.147c1.917,3.482,3.953,6.9,5.944,10.34a2.389,2.389,0,0,1,.264,2.157,2.321,2.321,0,0,1-2.2,1.524c-.573.013-1.147,0-1.72,0-.7.005-.934.243-.934.951v10.761c0,1.192-.391,1.577-1.6,1.577h-3.979c-1.14,0-1.521-.385-1.521-1.541v-10.172c0-1.55-.027-1.56-1.552-1.585-.682-.011-1.362-.1-2.043-.166a.713.713,0,0,0-.841.51.641.641,0,0,0,.331.843.756.756,0,0,0,.084.029,6.621,6.621,0,0,0,1.34.258A11.486,11.486,0,0,0,2060.3-1393.946Z" fill="#fff"/>
      <path id="Path_33978" data-name="Path 33978" d="M2078.165-1365.943a1.381,1.381,0,0,1-1.212.74c-.147.005-.294.006-.442.006h-22.5c-1.349,0-1.821-.477-1.822-1.835,0-.737-.008-1.474,0-2.211a1.4,1.4,0,0,1,1.3-1.49,1.6,1.6,0,0,1,.169,0q9.775-.01,19.552,0a.6.6,0,0,1,.446.192,15.218,15.218,0,0,0,4.415,4.48A.707.707,0,0,1,2078.165-1365.943Z" fill="#fff"/>
      <path id="Path_33979" data-name="Path 33979" d="M2072.765-1372.213H2055.38c-1.179,0-1.714-.531-1.716-1.7,0-.786-.009-1.573,0-2.359a1.411,1.411,0,0,1,1.334-1.482l.05,0c.131-.012.261-.012.392-.012h16A15.262,15.262,0,0,0,2072.765-1372.213Z" fill="#fff"/>
      <path id="Path_33980" data-name="Path 33980" d="M2060.321-1384.783c0,.5-.006.94,0,1.379a2.637,2.637,0,0,0,2.52,2.748c.079,0,.158,0,.237,0q2.261.01,4.52,0a2.663,2.663,0,0,0,2.765-2.557c0-.065,0-.129,0-.194.006-.44,0-.879,0-1.349h2.6a15.152,15.152,0,0,0-1.489,5.513h-18.049c-1.214,0-1.726-.517-1.727-1.736,0-.787-.011-1.573,0-2.359a1.366,1.366,0,0,1,1.294-1.433h.029C2055.432-1384.8,2057.838-1384.783,2060.321-1384.783Z" fill="#ffc20f"/>
      <path id="Path_33981" data-name="Path 33981" d="M2070.4-1391.776h10.066c-.185.1-.283.165-.388.213a14.789,14.789,0,0,0-6.021,4.973.743.743,0,0,1-.48.313c-1.046.028-2.093.014-3.177.014Z" fill="#fff"/>
      <path id="Path_33982" data-name="Path 33982" d="M2070.385-1393.278v-.638a16.97,16.97,0,0,0,1.719-.087,3.757,3.757,0,0,0,3.228-4.222c-.008-.059-.017-.119-.028-.178-.02-.128-.03-.257-.049-.416.867,0,1.719-.047,2.562.015a1.338,1.338,0,0,1,1.206,1.386c.015.868.01,1.737,0,2.6a1.423,1.423,0,0,1-1.311,1.528c-.043,0-.086.005-.128,0-.2.013-.393.006-.59.006h-6.609Z" fill="#fff"/>
      <path id="Path_33983" data-name="Path 33983" d="M2060.285-1386.268c-1.12,0-2.2.023-3.276-.008a1.331,1.331,0,0,1-1.293-1.3c-.03-.981-.027-1.963,0-2.944a1.25,1.25,0,0,1,1.114-1.244c1.139-.05,2.281-.014,3.454-.014Z" fill="#fff"/>
      <path id="Path_33984" data-name="Path 33984" d="M2077.415-1378.268a8.584,8.584,0,0,1,8.58-8.588h.013a8.579,8.579,0,0,1,8.568,8.564,8.6,8.6,0,0,1-8.568,8.621A8.6,8.6,0,0,1,2077.415-1378.268Zm9.268-5.874a4.163,4.163,0,0,0-.051-.649.675.675,0,0,0-.748-.592l-.03,0a.676.676,0,0,0-.655.671,1.11,1.11,0,0,0-.006.245c.041.343-.054.517-.445.592a2.963,2.963,0,0,0-1.73,1.047,2.5,2.5,0,0,0,.1,3.534,2.467,2.467,0,0,0,.611.425,7.261,7.261,0,0,0,1.112.511.474.474,0,0,1,.356.542c-.016.917-.006,1.834-.006,2.75v1.121c-.729-.247-1.349-.428-1.945-.668-.576-.233-.97-.171-1.175.263-.2.416-.044.83.5,1.045.826.324,1.683.572,2.627.885a5.3,5.3,0,0,0,.005.632.664.664,0,0,0,.64.634.656.656,0,0,0,.751-.493,1.911,1.911,0,0,0,.062-.629c-.013-.275.1-.351.355-.462a6.776,6.776,0,0,0,1.916-1.028,2.931,2.931,0,0,0,.426-4.122,2.928,2.928,0,0,0-1.258-.9c-.37-.168-.774-.258-1.152-.41-.112-.046-.265-.179-.267-.274-.019-1.01-.012-2.02-.012-3.137.473.2.87.336,1.245.521.489.241.884.187,1.114-.2a.72.72,0,0,0-.225-.993.762.762,0,0,0-.141-.069c-.607-.3-1.258-.512-1.973-.8Z" fill="#ffc20f"/>
      <path id="Path_33985" data-name="Path 33985" d="M2088.5-1397.251a.8.8,0,0,1-.911-.671l0-.014a.694.694,0,0,1,.41-.892c.762-.287,1.534-.559,2.313-.793.462-.139.767.1.928.627.216.706.134,1.111-.347,1.237C2090.055-1397.538,2089.2-1397.4,2088.5-1397.251Z" fill="#fff"/>
      <path id="Path_33986" data-name="Path 33986" d="M2084.276-1404.122c-.217-.193-.536-.36-.655-.62a.933.933,0,0,1,.089-.8,22.61,22.61,0,0,1,1.534-1.782c.348-.376.731-.334,1.151.067.553.528.658.917.269,1.288-.59.564-1.22,1.087-1.845,1.613A2.338,2.338,0,0,1,2084.276-1404.122Z" fill="#fff"/>
      <path id="Path_33987" data-name="Path 33987" d="M2077.81-1412.041c1,.06,1.317.513,1,1.445-.2.587-.392,1.175-.6,1.757a.765.765,0,0,1-.912.584.784.784,0,0,1-.125-.039.756.756,0,0,1-.611-.877.724.724,0,0,1,.023-.091c.125-.706.27-1.409.412-2.113a.725.725,0,0,1,.773-.67Z" fill="#fff"/>
      <path id="Path_33988" data-name="Path 33988" d="M2086.685-1384.142c.718.284,1.369.5,1.978.8a.72.72,0,0,1,.435.921.623.623,0,0,1-.069.141c-.23.386-.625.44-1.114.2-.375-.185-.772-.325-1.245-.521,0,1.117-.007,2.127.012,3.137,0,.095.156.228.268.274.378.152.782.242,1.152.41a2.931,2.931,0,0,1,1.732,3.765,2.924,2.924,0,0,1-.9,1.257,6.737,6.737,0,0,1-1.915,1.028c-.257.111-.369.187-.356.462a1.91,1.91,0,0,1-.061.629.657.657,0,0,1-.752.493.665.665,0,0,1-.64-.634,5.8,5.8,0,0,1,0-.632c-.944-.313-1.8-.561-2.627-.885-.548-.215-.7-.629-.5-1.045.2-.434.6-.5,1.175-.263.6.24,1.216.421,1.945.668v-1.121c0-.916-.01-1.833.006-2.75a.472.472,0,0,0-.356-.542,7.357,7.357,0,0,1-1.112-.511,2.5,2.5,0,0,1-1.136-3.348,2.532,2.532,0,0,1,.425-.611,2.963,2.963,0,0,1,1.73-1.047c.391-.075.486-.249.445-.592a1.112,1.112,0,0,1,.006-.245.676.676,0,0,1,.655-.671.675.675,0,0,1,.774.559l0,.029A4.228,4.228,0,0,1,2086.685-1384.142Zm.015,6.457v3.485a2.122,2.122,0,0,0,1.832-1.853c.018-.779-.647-1.381-1.834-1.632Zm-1.535-4.729a1.454,1.454,0,0,0-1.332,1.37c0,.578.477,1,1.332,1.149Z" fill="#00171f"/>
      <path id="Path_33989" data-name="Path 33989" d="M2086.7-1377.685c1.188.251,1.852.853,1.831,1.632a2.12,2.12,0,0,1-1.831,1.853Z" fill="#fff"/>
      <path id="Path_33990" data-name="Path 33990" d="M2085.163-1382.414v2.519c-.855-.153-1.331-.571-1.332-1.149A1.454,1.454,0,0,1,2085.163-1382.414Z" fill="#fff"/>
    </g>
  </g>
</svg>
