<svg xmlns="http://www.w3.org/2000/svg" width="72.182" height="67.362" viewBox="0 0 72.182 67.362">
  <g id="_034-diagram" data-name=" 034-diagram" transform="translate(-1713.726 1424.09)">
    <path id="Path_33529-2" data-name="Path 33529-2" d="M1772.918-1397.638a23.312,23.312,0,0,0-19.963-26.237,23.313,23.313,0,0,0-26.237,19.964,23.365,23.365,0,0,0,0,6.273,10.876,10.876,0,0,1-4.964,10.61c-5.02,3.2-8.028,7.267-8.028,11.7,0,10.274,16.159,18.6,36.091,18.6s36.091-8.329,36.091-18.6c0-4.432-3.008-8.5-8.029-11.7a10.881,10.881,0,0,1-4.964-10.611Z" fill="#f4f5f6"/>
    <g id="Group_55375" data-name="Group 55375">
      <g id="Group_55371" data-name="Group 55371">
        <g id="Group_55365" data-name="Group 55365">
          <path id="Path_33530" data-name="Path 33530" d="M1768.48-1381.527a8.462,8.462,0,0,0-2.561.4v-14.2h7.6a.7.7,0,0,0,.7-.7h0v-3.165a4.229,4.229,0,0,0-4.156-4.228H1752.91v-5.306a1.41,1.41,0,0,0-1.41-1.41h-28.09a1.41,1.41,0,0,0-1.41,1.41v20.44a1.41,1.41,0,0,0,1.41,1.41h16.585v14.4h-7.764a.7.7,0,0,0-.7.7h0v6.277a4.23,4.23,0,0,0,4.23,4.23h25.929a4.229,4.229,0,0,0,4.2-3.76,8.451,8.451,0,0,0,10.625-5.473,8.451,8.451,0,0,0-5.474-10.625,8.445,8.445,0,0,0-2.563-.4Z" fill="#e0e0e0"/>
          <g id="Group_55353" data-name="Group 55353">
            <g id="Group_55352" data-name="Group 55352">
              <path id="Path_33531" data-name="Path 33531" d="M1774.222-1399v-3.165a4.229,4.229,0,0,0-4.229-4.229h-7.256v8.1h10.78a.7.7,0,0,0,.705-.705Z" fill="#fff"/>
            </g>
            <path id="Path_33532" data-name="Path 33532" d="M1770.149-1406.394a4.23,4.23,0,0,0-4.229,4.229h0v33.7a4.23,4.23,0,0,1-4.23,4.23H1740v-37.93a4.23,4.23,0,0,1,4.229-4.229h25.922Z" fill="#fff"/>
            <path id="Path_33533" data-name="Path 33533" d="M1758.849-1395.9H1752.9a.7.7,0,0,1-.7-.7h0v-5.948a.7.7,0,0,1,.7-.7h5.948a.7.7,0,0,1,.7.7h0v5.941a.7.7,0,0,1-.7.7h0Z" fill="#e0e0e0"/>
            <circle id="Ellipse_648" data-name="Ellipse 648" cx="5.148" cy="5.148" r="5.148" transform="translate(1751.737 -1379.915)" fill="#ffc20f"/>
            <path id="Path_33534" data-name="Path 33534" d="M1757.45-1368.462v-6.277a.7.7,0,0,0-.7-.7h-24.516a.7.7,0,0,0-.7.7h0v6.277a4.23,4.23,0,0,0,4.23,4.23h25.921a4.23,4.23,0,0,1-4.235-4.225Z" fill="#fff"/>
          </g>
          <g id="Group_55355" data-name="Group 55355">
            <path id="Path_33535" data-name="Path 33535" d="M1751.5-1389.848H1723.41a1.41,1.41,0,0,1-1.41-1.41V-1411.7a1.41,1.41,0,0,1,1.41-1.41h28.084a1.41,1.41,0,0,1,1.41,1.41v20.44A1.41,1.41,0,0,1,1751.5-1389.848Z" fill="#fff"/>
            <g id="Group_55354" data-name="Group 55354">
              <path id="Path_33536" data-name="Path 33536" d="M1728.578-1393.634h-2.12a.706.706,0,0,1-.7-.706v-5.234a.7.7,0,0,1,.7-.7h2.12a.7.7,0,0,1,.7.7h0v5.234A.7.7,0,0,1,1728.578-1393.634Z" fill="#e0e0e0"/>
              <path id="Path_33537" data-name="Path 33537" d="M1735.2-1393.634h-2.12a.706.706,0,0,1-.7-.706v-9.484a.706.706,0,0,1,.7-.7h2.12a.7.7,0,0,1,.7.7v9.484A.705.705,0,0,1,1735.2-1393.634Z" fill="#ffc20f"/>
              <path id="Path_33538" data-name="Path 33538" d="M1741.827-1393.636h-2.12a.706.706,0,0,1-.7-.706v-19.694a.7.7,0,0,1,.7-.7h2.12a.7.7,0,0,1,.7.7h0v19.7a.7.7,0,0,1-.7.7Z" fill="#e0e0e0"/>
              <path id="Path_33539" data-name="Path 33539" d="M1748.451-1393.631h-2.12a.706.706,0,0,1-.7-.706v-23.823a.7.7,0,0,1,.7-.7h2.12a.7.7,0,0,1,.7.7h0v23.821a.7.7,0,0,1-.7.7h0Z" fill="#e0e0e0"/>
            </g>
          </g>
          <g id="Group_55359" data-name="Group 55359">
            <g id="Group_55356" data-name="Group 55356">
              <path id="Path_33540" data-name="Path 33540" d="M1756.18-1381.37h-11.913a.7.7,0,0,1-.7-.7.706.706,0,0,1,.7-.705h11.914a.7.7,0,0,1,.7.705.7.7,0,0,1-.7.7h0Z" fill="#00171f"/>
            </g>
            <g id="Group_55357" data-name="Group 55357">
              <path id="Path_33541" data-name="Path 33541" d="M1746.875-1385.187h-2.608a.7.7,0,0,1-.7-.7.706.706,0,0,1,.7-.705h2.608a.7.7,0,0,1,.7.705A.7.7,0,0,1,1746.875-1385.187Z" fill="#00171f"/>
            </g>
            <g id="Group_55358" data-name="Group 55358">
              <path id="Path_33542" data-name="Path 33542" d="M1761.256-1378.533h-16.989a.7.7,0,0,1-.7-.705.705.705,0,0,1,.7-.7h16.989a.7.7,0,0,1,.705.7.7.7,0,0,1-.705.705Z" fill="#00171f"/>
            </g>
          </g>
          <g id="Group_55363" data-name="Group 55363">
            <g id="Group_55362" data-name="Group 55362">
              <g id="Group_55360" data-name="Group 55360">
                <path id="Path_33543" data-name="Path 33543" d="M1759.388-1395.514a2.342,2.342,0,0,1-2.342-2.342,2.343,2.343,0,0,1,2.342-2.342,2.342,2.342,0,0,1,2.342,2.342h0A2.341,2.341,0,0,1,1759.388-1395.514Zm0-3.275a.932.932,0,0,0-.932.932.932.932,0,0,0,.932.932.932.932,0,0,0,.932-.932.933.933,0,0,0-.932-.934Z" fill="#00171f"/>
              </g>
              <g id="Group_55361" data-name="Group 55361">
                <path id="Path_33544" data-name="Path 33544" d="M1761.025-1393.877a.7.7,0,0,1-.7-.7h0a.932.932,0,0,0-.932-.932.933.933,0,0,0-.933.932.7.7,0,0,1-.7.705.7.7,0,0,1-.7-.705,2.342,2.342,0,0,1,2.342-2.342,2.342,2.342,0,0,1,2.342,2.342h0a.7.7,0,0,1-.7.7Z" fill="#00171f"/>
              </g>
            </g>
          </g>
          <g id="Group_55364" data-name="Group 55364">
            <circle id="Ellipse_649" data-name="Ellipse 649" cx="0.788" cy="0.788" r="0.788" transform="translate(1760.255 -1392.283)" fill="#00171f"/>
            <path id="Path_33545" data-name="Path 33545" d="M1725.758-1408.713a.788.788,0,0,1-.788-.788.788.788,0,0,1,.788-.788.788.788,0,0,1,.788.788h0a.788.788,0,0,1-.788.788Z" fill="#00171f"/>
            <path id="Path_33546" data-name="Path 33546" d="M1761.025-1388.316a.788.788,0,0,1-.788-.788.788.788,0,0,1,.788-.788.788.788,0,0,1,.788.788h0A.788.788,0,0,1,1761.025-1388.316Z" fill="#00171f"/>
            <path id="Path_33547" data-name="Path 33547" d="M1761.814-1386.72a.788.788,0,0,1-.788.788.788.788,0,0,1-.788-.788.788.788,0,0,1,.788-.788h0a.788.788,0,0,1,.788.788h0" fill="#00171f"/>
          </g>
        </g>
        <g id="Group_55370" data-name="Group 55370">
          <g id="Group_55369" data-name="Group 55369">
            <circle id="Ellipse_650" data-name="Ellipse 650" cx="8.447" cy="8.447" r="8.447" transform="translate(1760.008 -1384.502)" fill="#eee"/>
            <g id="Group_55366" data-name="Group 55366">
              <path id="Path_33548" data-name="Path 33548" d="M1728.579-1400.986h-2.12a1.413,1.413,0,0,0-1.41,1.41v5.234a1.413,1.413,0,0,0,1.41,1.41h2.12a1.412,1.412,0,0,0,1.41-1.41v-5.234A1.411,1.411,0,0,0,1728.579-1400.986Zm-2.12,6.644v-5.234h2.12v5.234Z" fill="#00171f"/>
              <path id="Path_33549" data-name="Path 33549" d="M1735.2-1405.233h-2.12a1.412,1.412,0,0,0-1.41,1.41v9.484a1.413,1.413,0,0,0,1.41,1.41h2.12a1.412,1.412,0,0,0,1.41-1.41v-9.484A1.411,1.411,0,0,0,1735.2-1405.233Zm-2.12,10.893v-9.483h2.12v9.484Z" fill="#00171f"/>
              <path id="Path_33551" data-name="Path 33551" d="M1768.484-1385.194a9.191,9.191,0,0,0-1.856.189v-12.585h6.894a1.41,1.41,0,0,0,1.41-1.41v-3.165a4.939,4.939,0,0,0-4.727-4.929c-.017,0-.035-.005-.052-.005h-16.541v-4.6a2.117,2.117,0,0,0-2.115-2.115h-1.635v-4.343a1.412,1.412,0,0,0-1.41-1.41h-2.12a1.412,1.412,0,0,0-1.41,1.41v4.346h-1.685v-.218a1.412,1.412,0,0,0-1.41-1.41h-2.12a1.411,1.411,0,0,0-1.409,1.41v.218h-14.884a2.118,2.118,0,0,0-2.115,2.115v20.439a2.118,2.118,0,0,0,2.115,2.115h15.88v12.995h-7.06a1.412,1.412,0,0,0-1.41,1.41v6.277a4.94,4.94,0,0,0,4.935,4.935h25.931a4.941,4.941,0,0,0,4.746-3.588,9.155,9.155,0,0,0,10.971-6.875,9.155,9.155,0,0,0-6.875-10.971,9.179,9.179,0,0,0-2.051-.232Zm1.591-20.493a3.527,3.527,0,0,1,3.447,3.522V-1399h-6.893v-3.165a3.528,3.528,0,0,1,3.442-3.522Zm-23.743-12.47h2.12v23.821h-2.121Zm-6.625,4.128h2.12v19.693h-2.121Zm21.983,49.1h-.006a3.529,3.529,0,0,1-3.525-3.525v-6.277a1.411,1.411,0,0,0-1.41-1.41h-11.957a.705.705,0,0,0-.7.7.7.7,0,0,0,.7.705h11.954v6.277a4.925,4.925,0,0,0,1.485,3.525h-22.472a3.529,3.529,0,0,1-3.525-3.525v-6.277H1740a.7.7,0,0,0,.7-.7v-13.7h10.794a2.116,2.116,0,0,0,2.115-2.115v-10.34a.7.7,0,0,0-.705-.7.705.705,0,0,0-.7.7v10.329a.705.705,0,0,1-.7.7h-28.083a.707.707,0,0,1-.7-.7V-1411.7a.707.707,0,0,1,.7-.7H1738.3v18.065a1.412,1.412,0,0,0,1.41,1.41h2.12a1.413,1.413,0,0,0,1.41-1.41v-18.07h1.685v18.065a1.412,1.412,0,0,0,1.41,1.41h2.12a1.412,1.412,0,0,0,1.41-1.41v-18.065h1.635a.705.705,0,0,1,.7.7v5.307a.7.7,0,0,0,.7.7h13.791a4.923,4.923,0,0,0-1.485,3.524v17.575a9.153,9.153,0,0,0-5.287,11.814,9.153,9.153,0,0,0,5.162,5.238,3.527,3.527,0,0,1-3.4,2.6Zm6.791-3.356a7.745,7.745,0,0,1-7.744-7.746,7.746,7.746,0,0,1,7.746-7.744,7.745,7.745,0,0,1,7.744,7.745A7.745,7.745,0,0,1,1768.481-1368.285Z" fill="#00171f"/>
            </g>
            <circle id="Ellipse_651" data-name="Ellipse 651" cx="5.975" cy="5.975" r="5.975" transform="translate(1762.499 -1382.043)" fill="#ffc20f"/>
            <g id="Group_55368" data-name="Group 55368">
              <g id="Group_55367" data-name="Group 55367">
                <path id="Path_33552" data-name="Path 33552" d="M1769.3-1372.8h-2.256a.7.7,0,0,1-.7-.7.705.705,0,0,1,.7-.7h2.256a.561.561,0,0,0,.561-.561.561.561,0,0,0-.561-.561h-1.636a1.971,1.971,0,0,1-1.971-1.971,1.972,1.972,0,0,1,1.971-1.972h2.257a.7.7,0,0,1,.705.705.7.7,0,0,1-.705.7h-2.256a.561.561,0,0,0-.561.561.561.561,0,0,0,.561.561h1.636a1.972,1.972,0,0,1,1.972,1.972,1.971,1.971,0,0,1-1.972,1.971Z" fill="#fff"/>
                <path id="Path_33553" data-name="Path 33553" d="M1768.48-1371.861a.7.7,0,0,1-.7-.7h0v-6.951a.705.705,0,0,1,.7-.705.7.7,0,0,1,.7.705v6.951a.7.7,0,0,1-.7.7Z" fill="#fff"/>
              </g>
            </g>
          </g>
        </g>
      </g>
      <g id="Group_55372" data-name="Group 55372">
        <path id="Path_33554-2" data-name="Path 33554-2" d="M1725.755-1372.935a.7.7,0,0,1-.7-.707.711.711,0,0,1,.2-.493l1.41-1.41a.706.706,0,0,1,1-.012.7.7,0,0,1,.012,1l-.012.013-1.41,1.41A.7.7,0,0,1,1725.755-1372.935Z" fill="#00171f"/>
      </g>
    </g>
  </g>
</svg>
