<svg xmlns="http://www.w3.org/2000/svg" width="49.681" height="54.271" viewBox="0 0 49.681 54.271">
  <g id="Group_55331-2" data-name="Group 55331-2" transform="translate(-1404.55 1268.338)">
    <path id="Path_33487-2" data-name="Path 33487-2" d="M1429.629-1247.522a1.18,1.18,0,0,0,1.126-1.184v-3.261h10.17a1.184,1.184,0,0,0,1.185-1.185v-9a1.185,1.185,0,0,0-1.184-1.186h-10.171v-3.26a1.181,1.181,0,0,0-1.126-1.184h-2.948v20.271Z" fill="#ffc20f"/>
    <g id="Group_55329-2" data-name="Group 55329-2">
      <g id="Group_55325-2" data-name="Group 55325-2">
        <g id="Group_55319-2" data-name="Group 55319-2">
          <g id="Group_55317-2" data-name="Group 55317-2">
            <path id="Path_33489-2" data-name="Path 33489-2" d="M1444.31-1214.066h-29.846a.593.593,0,0,1-.593-.593h0v-24.186a.594.594,0,0,1,.593-.593h29.847a.592.592,0,0,1,.593.591v24.189a.592.592,0,0,1-.592.592Z" fill="#e0e0e0"/>
            <g id="Group_55316-2" data-name="Group 55316-2">
              <path id="Path_33490-2" data-name="Path 33490-2" d="M1451.77-1253.762l-9.007,9.007a1.187,1.187,0,0,0-.347.838v8.14h2.488v-7.6l8.625-8.625a.354.354,0,0,0,0-.5l-1.256-1.256a.356.356,0,0,0-.5,0Z" fill="#fff"/>
              <path id="Path_33491-2" data-name="Path 33491-2" d="M1406.5-1253.762l-1.256,1.256a.357.357,0,0,0,0,.5l8.626,8.626v7.6h2.488v-8.139a1.187,1.187,0,0,0-.347-.838l-9.007-9.007a.356.356,0,0,0-.5,0Z" fill="#fff"/>
              <path id="Path_33492-2" data-name="Path 33492-2" d="M1428.372-1251.513h10.17a1.186,1.186,0,0,0,1.185-1.185v-9a1.185,1.185,0,0,0-1.184-1.186h-10.171v-3.26a1.186,1.186,0,0,0-1.186-1.185,1.186,1.186,0,0,0-.836.347l-8.948,8.948a1.182,1.182,0,0,0,0,1.674l8.948,8.948a1.184,1.184,0,0,0,1.675,0,1.186,1.186,0,0,0,.347-.835Z" fill="#fff"/>
              <path id="Path_33493-2" data-name="Path 33493-2" d="M1444.31-1216.555h-29.846a.593.593,0,0,1-.593-.593h0v-24.186a.594.594,0,0,1,.593-.593h29.847a.592.592,0,0,1,.593.591v24.19a.591.591,0,0,1-.593.591Z" fill="#fff"/>
            </g>
          </g>
          <g id="Group_55318-2" data-name="Group 55318-2">
            <path id="Path_33494-2" data-name="Path 33494-2" d="M1432.882-1233.752h-6.99a.593.593,0,0,1-.593-.593h0v-7.583h8.175v7.583a.592.592,0,0,1-.593.593h0Z" fill="#e0e0e0"/>
            <path id="Path_33495-2" data-name="Path 33495-2" d="M1429.387-1233.752h-3.5a.593.593,0,0,1-.593-.593h0v-7.583h4.088Z" fill="#e0e0e0"/>
          </g>
        </g>
        <g id="Group_55324-2" data-name="Group 55324-2">
          <path id="Path_33496-2" data-name="Path 33496-2" d="M1428.558-1216.555h-11.67v-10.354a.593.593,0,0,1,.591-.593h10.486a.594.594,0,0,1,.594.593h0Z" fill="#ffc20f"/>
          <g id="Group_55323-2" data-name="Group 55323-2">
            <g id="Group_55320-2" data-name="Group 55320-2">
              <path id="Path_33497-2" data-name="Path 33497-2" d="M1420.448-1224.436h-1.482a.593.593,0,0,1-.568-.617.594.594,0,0,1,.568-.568h1.482a.592.592,0,0,1,.568.617A.592.592,0,0,1,1420.448-1224.436Z" fill="#fff"/>
            </g>
            <g id="Group_55321-2" data-name="Group 55321-2">
              <path id="Path_33498-2" data-name="Path 33498-2" d="M1426.491-1221.355h-7.523a.593.593,0,0,1-.568-.617.594.594,0,0,1,.568-.568h7.523a.593.593,0,0,1,.617.568.592.592,0,0,1-.568.617Z" fill="#fff"/>
            </g>
            <g id="Group_55322-2" data-name="Group 55322-2">
              <path id="Path_33499-2" data-name="Path 33499-2" d="M1426.491-1218.986h-7.523a.593.593,0,0,1-.568-.617.594.594,0,0,1,.568-.568h7.523a.593.593,0,0,1,.617.568.592.592,0,0,1-.568.617Z" fill="#fff"/>
            </g>
          </g>
        </g>
      </g>
      <g id="Group_55328-2" data-name="Group 55328-2">
        <path id="Path_33502-2" data-name="Path 33502-2" d="M1448.345-1224.285a.593.593,0,0,1-.592-.593.6.6,0,0,1,.173-.419l1.185-1.185a.594.594,0,0,1,.838.032.592.592,0,0,1,0,.806l-1.185,1.185A.586.586,0,0,1,1448.345-1224.285Z" fill="#00171f"/>
        <path id="Path_33503-2" data-name="Path 33503-2" d="M1405.142-1242.609a.59.59,0,0,1-.592-.591.589.589,0,0,1,.173-.42l1.185-1.186a.6.6,0,0,1,.839.028.593.593,0,0,1,0,.806h0l-1.185,1.185A.585.585,0,0,1,1405.142-1242.609Z" fill="#00171f"/>
      </g>
    </g>
    <g id="Group_55330-2" data-name="Group 55330-2">
      <path id="Path_33504-2" data-name="Path 33504-2" d="M1453.948-1252.924l-1.256-1.256a.951.951,0,0,0-1.341,0l-9.007,9.007a1.773,1.773,0,0,0-.521,1.256v1.4h-21.434a.594.594,0,0,0-.568.617.594.594,0,0,0,.568.568h23.922v24.188h-29.847v-24.191h1.9a.592.592,0,0,0,.593-.593h0v-1.984a1.759,1.759,0,0,0-.521-1.256l-9.007-9.007a.948.948,0,0,0-1.34,0h0l-1.256,1.256a.949.949,0,0,0,0,1.341h0l8.453,8.452v25.984a1.186,1.186,0,0,0,1.185,1.185h29.845a1.186,1.186,0,0,0,1.186-1.185v-25.99l8.452-8.452a.947.947,0,0,0,0-1.34h-.006Zm-48.116.67.922-.922,8.839,8.84a.585.585,0,0,1,.173.419v1.4h-1.3v-.857a.584.584,0,0,0-.174-.419Zm38.652,8.458a.593.593,0,0,0-.173.419v.857h-1.3v-1.4a.593.593,0,0,1,.174-.419l8.84-8.84.922.922Z" fill="#00171f"/>
      <path id="Path_33505-2" data-name="Path 33505-2" d="M1425.513-1267.816l-8.948,8.948a1.781,1.781,0,0,0,0,2.513l8.948,8.948a1.747,1.747,0,0,0,1.318.523h2.859a1.76,1.76,0,0,0,1.682-1.782v-3.26a.592.592,0,0,0-.591-.593h-2.829a.593.593,0,0,0-.593.591v3.262a.593.593,0,0,1-.594.592.6.6,0,0,1-.418-.174l-8.947-8.948a.592.592,0,0,1,0-.837l8.947-8.948a.593.593,0,0,1,.839,0,.59.59,0,0,1,.173.418v3.261a.593.593,0,0,0,.593.593h10.17a.592.592,0,0,1,.593.591v9a.591.591,0,0,1-.591.593h-3.315a.594.594,0,0,0-.568.617.593.593,0,0,0,.568.568h6.143a1.778,1.778,0,0,0,1.778-1.778v-9a1.779,1.779,0,0,0-1.778-1.778h-9.58v-2.668a1.762,1.762,0,0,0-1.684-1.775h-2.86a1.747,1.747,0,0,0-1.318.523Zm3.034,19.153v-2.668h1.643v2.665a.589.589,0,0,1-.554.59h-1.188a1.8,1.8,0,0,0,.1-.592Zm13-13.45v9a.591.591,0,0,1-.591.593H1439.8a1.712,1.712,0,0,0,.1-.593v-9a1.74,1.74,0,0,0-.1-.593h1.152a.593.593,0,0,1,.593.593h0Zm-11.354-4.446v2.668h-1.643v-2.668a1.813,1.813,0,0,0-.1-.593h1.188a.591.591,0,0,1,.554.59Z" fill="#00171f"/>
    </g>
  </g>
</svg>
