<svg xmlns="http://www.w3.org/2000/svg" width="60.679" height="57.066" viewBox="0 0 60.679 57.066">
  <g id="_011-pallets" data-name=" 011-pallets" transform="translate(-2037.884 1275.046)">
    <path id="Path_33466-3" data-name="Path 33466-3" d="M2087.642-1252.373a19.789,19.789,0,0,0,.179-2.814,19.6,19.6,0,0,0-19.73-19.469,19.6,19.6,0,0,0-19.469,19.731,19.614,19.614,0,0,0,.184,2.552,9.143,9.143,0,0,1-4.173,8.92c-4.221,2.686-6.749,6.108-6.749,9.835,0,8.637,13.584,15.638,30.34,15.638s30.339-7,30.339-15.638c0-3.727-2.528-7.148-6.748-9.834a9.144,9.144,0,0,1-4.173-8.92Z" fill="#f4f5f6"/>
    <g id="Group_55315" data-name="Group 55315">
      <path id="Path_33467-2" data-name="Path 33467-2" d="M2058.092-1261.434a1.181,1.181,0,0,0,1.183,1.126h3.262v10.174a1.185,1.185,0,0,0,1.185,1.185h9a1.184,1.184,0,0,0,1.185-1.185v-10.17h3.26a1.179,1.179,0,0,0,1.187-1.13v-2.948h-20.266Z" fill="#ffc20f"/>
      <path id="Path_33468-2" data-name="Path 33468-2" d="M2081.968-1258.625a.593.593,0,0,1-.592-.593.6.6,0,0,1,.173-.419l1.185-1.185a.594.594,0,0,1,.838.032.592.592,0,0,1,0,.806l-1.185,1.185A.6.6,0,0,1,2081.968-1258.625Z" fill="#00171f"/>
      <g id="Group_55313" data-name="Group 55313">
        <g id="Group_55310" data-name="Group 55310">
          <g id="Group_55304" data-name="Group 55304">
            <g id="Group_55302" data-name="Group 55302">
              <path id="Path_33469-2" data-name="Path 33469-2" d="M2083.146-1218.158H2053.3a.593.593,0,0,1-.593-.593h0v-24.187a.594.594,0,0,1,.593-.593h29.847a.592.592,0,0,1,.593.591v24.19a.592.592,0,0,1-.594.592Z" fill="#e0e0e0"/>
              <g id="Group_55301-2" data-name="Group 55301-2">
                <path id="Path_33470" data-name="Path 33470" d="M2090.606-1257.853l-9.007,9.007a1.183,1.183,0,0,0-.347.837v8.141h2.488v-7.6l8.625-8.626a.354.354,0,0,0,0-.5l-1.256-1.256a.355.355,0,0,0-.5,0Z" fill="#fff"/>
                <path id="Path_33471" data-name="Path 33471" d="M2045.338-1257.853l-1.256,1.256a.357.357,0,0,0,0,.5l8.626,8.625v7.6h2.488v-8.14a1.184,1.184,0,0,0-.347-.837l-9.007-9.008a.357.357,0,0,0-.5,0Z" fill="#fff"/>
                <path id="Path_33472" data-name="Path 33472" d="M2062.536-1263.135v10.17a1.185,1.185,0,0,0,1.185,1.185h9a1.184,1.184,0,0,0,1.185-1.185v-10.17h3.26a1.185,1.185,0,0,0,1.185-1.186,1.188,1.188,0,0,0-.348-.837l-8.948-8.947a1.183,1.183,0,0,0-1.674,0h0l-8.944,8.947a1.186,1.186,0,0,0,0,1.677,1.18,1.18,0,0,0,.834.346Z" fill="#fff"/>
                <path id="Path_33473" data-name="Path 33473" d="M2083.146-1220.646H2053.3a.593.593,0,0,1-.593-.593h0v-24.187a.594.594,0,0,1,.593-.593h29.847a.593.593,0,0,1,.593.593h0v24.188a.592.592,0,0,1-.594.592Z" fill="#fff"/>
              </g>
            </g>
            <g id="Group_55303" data-name="Group 55303">
              <path id="Path_33474" data-name="Path 33474" d="M2071.718-1237.844h-6.99a.593.593,0,0,1-.593-.593h0v-7.583h8.175v7.583a.592.592,0,0,1-.593.593h0Z" fill="#e0e0e0"/>
              <path id="Path_33475" data-name="Path 33475" d="M2068.223-1237.844h-3.5a.593.593,0,0,1-.593-.593h0v-7.583h4.088Z" fill="#e0e0e0"/>
            </g>
          </g>
          <g id="Group_55309" data-name="Group 55309">
            <path id="Path_33476" data-name="Path 33476" d="M2067.394-1220.646h-11.67V-1231a.594.594,0,0,1,.593-.593H2066.8a.594.594,0,0,1,.594.593h0Z" fill="#ffc20f"/>
            <g id="Group_55308" data-name="Group 55308">
              <g id="Group_55305" data-name="Group 55305">
                <path id="Path_33477" data-name="Path 33477" d="M2059.284-1228.528H2057.8a.593.593,0,0,1-.568-.617.594.594,0,0,1,.568-.568h1.482a.593.593,0,0,1,.568.617A.592.592,0,0,1,2059.284-1228.528Z" fill="#fff"/>
              </g>
              <g id="Group_55306" data-name="Group 55306">
                <path id="Path_33478" data-name="Path 33478" d="M2065.327-1225.448H2057.8a.593.593,0,0,1-.568-.617.594.594,0,0,1,.568-.568h7.523a.593.593,0,0,1,.617.568.592.592,0,0,1-.568.617Z" fill="#fff"/>
              </g>
              <g id="Group_55307" data-name="Group 55307">
                <path id="Path_33479" data-name="Path 33479" d="M2065.327-1223.078H2057.8a.592.592,0,0,1-.568-.617.594.594,0,0,1,.568-.568h7.523a.593.593,0,0,1,.617.568.592.592,0,0,1-.568.617Z" fill="#fff"/>
              </g>
            </g>
          </g>
        </g>
        <g id="Group_55312" data-name="Group 55312">
          <path id="Path_33481" data-name="Path 33481" d="M2088.6-1237.259a.593.593,0,0,1-.592-.593.6.6,0,0,1,.173-.419l1.185-1.185a.6.6,0,0,1,.839.028.593.593,0,0,1,0,.806h0l-1.185,1.185A.589.589,0,0,1,2088.6-1237.259Z" fill="#00171f"/>
        </g>
      </g>
      <g id="Group_55314" data-name="Group 55314">
        <path id="Path_33483" data-name="Path 33483" d="M2057.5-1261.431v.033a1.762,1.762,0,0,0,1.775,1.684h2.669v9.577a1.78,1.78,0,0,0,1.778,1.778h9a1.781,1.781,0,0,0,1.779-1.778v-9.577h2.668a1.762,1.762,0,0,0,1.775-1.684v-2.859a1.748,1.748,0,0,0-.523-1.318.593.593,0,0,0-.838.028.594.594,0,0,0,0,.806h0a.592.592,0,0,1,0,.839.592.592,0,0,1-.419.173h-3.26a.593.593,0,0,0-.593.591v10.172a.592.592,0,0,1-.593.593h-9a.593.593,0,0,1-.593-.593h0v-10.17a.592.592,0,0,0-.591-.593h-3.262a.593.593,0,0,1-.592-.593.593.593,0,0,1,.173-.419l8.948-8.947a.592.592,0,0,1,.837,0l6.1,6.1a.592.592,0,0,0,.838,0,.593.593,0,0,0,0-.838l-6.1-6.1a1.778,1.778,0,0,0-2.514,0l-8.947,8.947a1.754,1.754,0,0,0-.523,1.318Zm19.672-1.11a1.783,1.783,0,0,0,.593-.1v1.189a.588.588,0,0,1-.59.553h-2.668v-1.643h2.665Zm-13.45,11.354h9a1.758,1.758,0,0,0,.593-.1v1.153a.591.591,0,0,1-.591.593h-9a.593.593,0,0,1-.593-.593h0v-1.153A1.764,1.764,0,0,0,2063.721-1251.187Zm-4.446-11.354h2.668v1.642h-2.668a.589.589,0,0,1-.59-.553v-1.188a1.817,1.817,0,0,0,.593.1Z" fill="#00171f"/>
        <path id="Path_33484" data-name="Path 33484" d="M2092.784-1257.015l-1.256-1.256a.951.951,0,0,0-1.341,0l-9.007,9.008a1.773,1.773,0,0,0-.521,1.256v1.99a.593.593,0,0,0,.593.593h1.9v24.187H2053.3v-24.189h23.921a.593.593,0,0,0,.569-.617.594.594,0,0,0-.569-.568h-21.433v-1.4a1.765,1.765,0,0,0-.521-1.256l-9.007-9.007a.951.951,0,0,0-1.341,0l-1.256,1.256a.949.949,0,0,0,0,1.341h0l8.453,8.452v25.984a1.186,1.186,0,0,0,1.185,1.185h29.846a1.185,1.185,0,0,0,1.185-1.185v-25.981l8.453-8.452a.949.949,0,0,0,0-1.341Zm-48.116.67.922-.921,8.839,8.84a.583.583,0,0,1,.174.418v1.4h-1.3v-.857a.59.59,0,0,0-.174-.419Zm38.652,8.458a.6.6,0,0,0-.174.419v.857h-1.3v-1.4a.591.591,0,0,1,.174-.418l8.84-8.84.922.921Z" fill="#00171f"/>
      </g>
    </g>
  </g>
</svg>
