<svg xmlns="http://www.w3.org/2000/svg" width="63.129" height="61.027" viewBox="0 0 63.129 61.027">
  <g id="Group_55530" data-name="Group 55530" transform="translate(-1189.766 981.391)">
    <path id="Path_33440" data-name="Path 33440" d="M1252.9-950.567a13.4,13.4,0,0,0-4.235-9.35,25.462,25.462,0,0,1-4.625-6.5c-3.809-7.671-10.3-12.723-17.673-12.723-5.238,0-10.033,2.552-13.736,6.782a23.631,23.631,0,0,1-9,6.333c-8.364,3.359-13.86,9.031-13.86,15.463s5.5,12.1,13.86,15.462a23.644,23.644,0,0,1,9,6.334c3.7,4.23,8.5,6.782,13.736,6.782,7.371,0,13.864-5.053,17.673-12.723a25.477,25.477,0,0,1,4.625-6.5A13.389,13.389,0,0,0,1252.9-950.567Z" fill="#eee"/>
    <g id="Group_55312" data-name="Group 55312">
      <g id="Group_55307" data-name="Group 55307">
        <path id="Path_33441" data-name="Path 33441" d="M1242.314-941.753a2.3,2.3,0,0,0-2.3,2.3v-2.219a2.3,2.3,0,0,0-2.3-2.3,2.316,2.316,0,0,0-.756.128v-31.618a2.723,2.723,0,0,0-2.723-2.723h-23.644a2.723,2.723,0,0,0-2.723,2.723h0v46.322a2.723,2.723,0,0,0,2.723,2.723h11.3a8.261,8.261,0,0,0,7.959,6.054h6.5a8.259,8.259,0,0,0,8.259-8.259h0v-10.83a2.3,2.3,0,0,0-2.3-2.3Z" fill="#ddd"/>
        <g id="Group_55306" data-name="Group 55306">
          <g id="Group_55285" data-name="Group 55285">
            <g id="Group_55279" data-name="Group 55279">
              <g id="Group_55278" data-name="Group 55278">
                <g id="Group_55277" data-name="Group 55277">
                  <g id="Group_55276-2" data-name="Group 55276-2">
                    <path id="Path_33442" data-name="Path 33442" d="M1238.492-967.267h-2.653v-8.248h2.653a.849.849,0,0,1,.849.849h0v6.55A.849.849,0,0,1,1238.492-967.267Z" fill="#fff"/>
                    <path id="Path_33443" data-name="Path 33443" d="M1205.944-958.78h3.041v-16.735h-3.041c-.469,0-.461.38-.461.849v15.036C1205.483-959.161,1205.475-958.78,1205.944-958.78Z" fill="#fff"/>
                  </g>
                </g>
                <path id="Path_33444" data-name="Path 33444" d="M1234.231-929h-23.639a2.723,2.723,0,0,1-2.723-2.723h0v-46.326a2.723,2.723,0,0,1,2.723-2.723h23.639a2.723,2.723,0,0,1,2.723,2.723h0v46.322a2.723,2.723,0,0,1-2.72,2.726h0Z" fill="#fff"/>
                <path id="Path_33445" data-name="Path 33445" d="M1207.868-974.353h29.089v38.921h-29.089Z" fill="#fff"/>
                <path id="Path_33446" data-name="Path 33446" d="M1233.8-935.43h-22.779v-9.3a.617.617,0,0,1,.616-.616h21.544a.618.618,0,0,1,.616.616v9.3Z" fill="#eee"/>
              </g>
            </g>
            <g id="Group_55280" data-name="Group 55280">
              <path id="Path_33447" data-name="Path 33447" d="M1224.907-976.954h-4.994a.616.616,0,0,1-.617-.616.617.617,0,0,1,.617-.617h5a.617.617,0,0,1,.616.617.616.616,0,0,1-.616.616Z" fill="#00171f"/>
            </g>
            <g id="Group_55281" data-name="Group 55281">
              <path id="Path_33448" data-name="Path 33448" d="M1219.9-933.073v1.561a.616.616,0,0,0,.616.617h3.78a.616.616,0,0,0,.616-.617v-1.561a.618.618,0,0,0-.616-.616h-3.78A.617.617,0,0,0,1219.9-933.073Z" fill="#00171f"/>
            </g>
            <g id="Group_55284" data-name="Group 55284">
              <g id="Group_55282" data-name="Group 55282">
                <path id="Path_33449" data-name="Path 33449" d="M1232.15-931.675h-2.036a.617.617,0,0,1-.617-.616.617.617,0,0,1,.617-.617h2.036a.616.616,0,0,1,.616.617A.616.616,0,0,1,1232.15-931.675Z" fill="#ff4d4d"/>
              </g>
              <g id="Group_55283" data-name="Group 55283">
                <path id="Path_33450" data-name="Path 33450" d="M1214.708-931.675h-2.036a.616.616,0,0,1-.617-.616.617.617,0,0,1,.617-.617h2.036a.616.616,0,0,1,.616.617A.616.616,0,0,1,1214.708-931.675Z" fill="#00171f"/>
              </g>
            </g>
          </g>
          <g id="Group_55288" data-name="Group 55288">
            <path id="Path_33451" data-name="Path 33451" d="M1233.183-952.959H1211.64a.615.615,0,0,1-.616-.616h0v-9.284a.617.617,0,0,1,.616-.616h21.544a.618.618,0,0,1,.616.616h0v9.286a.617.617,0,0,1-.618.615Z" fill="#ffc20f"/>
            <g id="Group_55287" data-name="Group 55287">
              <path id="Path_33452" data-name="Path 33452" d="M1215.8-955.281a.616.616,0,0,1-.616-.616h0v-4.642a.616.616,0,0,1,.616-.616.616.616,0,0,1,.617.616v4.642a.617.617,0,0,1-.616.616Z" fill="#fff"/>
              <g id="Group_55286" data-name="Group 55286">
                <path id="Path_33453" data-name="Path 33453" d="M1217.261-957.972H1215.8a.615.615,0,0,1-.615-.615v-1.95a.616.616,0,0,1,.616-.616h1.466a1.591,1.591,0,0,1,1.551,1.631,1.591,1.591,0,0,1-1.551,1.552Zm-.849-1.233h.849a.357.357,0,0,0,.339-.377.359.359,0,0,0-.339-.34h-.849Z" fill="#00171f"/>
                <path id="Path_33454" data-name="Path 33454" d="M1217.463-955.28H1215.8a.616.616,0,0,1-.616-.616h0v-2.7a.617.617,0,0,1,.616-.616h1.668a1.965,1.965,0,0,1,1.964,1.964A1.964,1.964,0,0,1,1217.463-955.28Zm-1.051-1.233h1.051a.731.731,0,0,0,.731-.731.732.732,0,0,0-.731-.731h-1.051Z" fill="#00171f"/>
                <path id="Path_33455" data-name="Path 33455" d="M1222.913-955.28h-1.1a1.574,1.574,0,0,1-1.574-1.574v-3.685a.616.616,0,0,1,.616-.616.617.617,0,0,1,.617.616h0v3.685a.34.34,0,0,0,.341.341h1.1a.342.342,0,0,0,.341-.341v-3.685a.616.616,0,0,1,.616-.616.617.617,0,0,1,.617.616h0v3.688A1.576,1.576,0,0,1,1222.913-955.28Z" fill="#00171f"/>
                <path id="Path_33456" data-name="Path 33456" d="M1228.069-958.152h-1.1a1.574,1.574,0,0,1-1.574-1.574v-.814a.616.616,0,0,1,.616-.616.617.617,0,0,1,.617.616v.814a.34.34,0,0,0,.341.341h1.1a.342.342,0,0,0,.341-.341v-.814a.616.616,0,0,1,.616-.616.616.616,0,0,1,.617.616v.814A1.577,1.577,0,0,1,1228.069-958.152Z" fill="#00171f"/>
                <path id="Path_33457" data-name="Path 33457" d="M1227.519-955.281a.616.616,0,0,1-.617-.616v-2.871a.616.616,0,0,1,.616-.616.616.616,0,0,1,.617.616v2.871A.616.616,0,0,1,1227.519-955.281Z" fill="#00171f"/>
              </g>
            </g>
          </g>
          <g id="Group_55294" data-name="Group 55294">
            <path id="Path_33458" data-name="Path 33458" d="M1242.314-944.344a2.3,2.3,0,0,0-2.3,2.3v-2.219a2.3,2.3,0,0,0-2.3-2.3,2.3,2.3,0,0,0-2.3,2.3h0v-1.478a2.3,2.3,0,0,0-2.3-2.3,2.3,2.3,0,0,0-2.3,2.3v-8.148a2.3,2.3,0,0,0-2.3-2.3,2.3,2.3,0,0,0-2.3,2.3h0v14.35a2.3,2.3,0,0,0-2.3-2.3,2.3,2.3,0,0,0-2.3,2.3h0v8.329a8.259,8.259,0,0,0,8.257,8.26h6.5a8.259,8.259,0,0,0,8.259-8.259h0v-10.833a2.3,2.3,0,0,0-2.3-2.3Z" fill="#fff"/>
            <path id="Path_33459" data-name="Path 33459" d="M1230.8-952.055h-1.516a1.454,1.454,0,0,1-1.451-1.451v-.429a.616.616,0,0,1,.616-.616.616.616,0,0,1,.617.616v.429a.217.217,0,0,0,.218.218h1.516a.617.617,0,0,1,.616.617A.616.616,0,0,1,1230.8-952.055Z" fill="#00171f"/>
            <g id="Group_55289" data-name="Group 55289">
              <path id="Path_33460" data-name="Path 33460" d="M1230.8-948.572h-1.488a.616.616,0,0,1-.617-.616.617.617,0,0,1,.617-.617h1.488a.617.617,0,0,1,.616.617.616.616,0,0,1-.616.616Z" fill="#00171f"/>
              <path id="Path_33461" data-name="Path 33461" d="M1230.8-943.164h-1.488a.617.617,0,0,1-.617-.616.617.617,0,0,1,.617-.617h1.488a.616.616,0,0,1,.616.617.616.616,0,0,1-.616.616Z" fill="#00171f"/>
            </g>
            <g id="Group_55290" data-name="Group 55290">
              <path id="Path_33462" data-name="Path 33462" d="M1235.408-942.794h-1.488a.616.616,0,0,1-.617-.616.617.617,0,0,1,.617-.617h1.488a.617.617,0,0,1,.616.617A.616.616,0,0,1,1235.408-942.794Z" fill="#00171f"/>
            </g>
            <g id="Group_55291" data-name="Group 55291">
              <path id="Path_33463" data-name="Path 33463" d="M1240.013-942.051h-1.489a.616.616,0,0,1-.617-.616.617.617,0,0,1,.617-.617h1.488a.617.617,0,0,1,.616.617.616.616,0,0,1-.616.616Z" fill="#00171f"/>
            </g>
            <g id="Group_55292" data-name="Group 55292">
              <path id="Path_33464" data-name="Path 33464" d="M1244.621-940.945h-1.488a.616.616,0,0,1-.617-.616.617.617,0,0,1,.617-.617h1.488a.617.617,0,0,1,.616.617A.616.616,0,0,1,1244.621-940.945Z" fill="#00171f"/>
            </g>
            <g id="Group_55293" data-name="Group 55293">
              <path id="Path_33465" data-name="Path 33465" d="M1222.988-935.095h-1.393a.616.616,0,0,1-.617-.616.617.617,0,0,1,.617-.617h1.393a.616.616,0,0,1,.616.617A.616.616,0,0,1,1222.988-935.095Z" fill="#00171f"/>
              <path id="Path_33466" data-name="Path 33466" d="M1223.112-937.691H1221.6a.616.616,0,0,1-.617-.616.617.617,0,0,1,.617-.617h1.516a.219.219,0,0,0,.218-.218v-.429a.616.616,0,0,1,.616-.616.616.616,0,0,1,.617.616h0v.429A1.455,1.455,0,0,1,1223.112-937.691Z" fill="#00171f"/>
            </g>
          </g>
          <g id="Group_55298" data-name="Group 55298">
            <g id="Group_55297" data-name="Group 55297">
              <g id="Group_55295" data-name="Group 55295">
                <path id="Path_33467" data-name="Path 33467" d="M1219.774-947.291h-8.134a.616.616,0,0,1-.617-.616.617.617,0,0,1,.617-.617h8.135a.616.616,0,0,1,.616.617.616.616,0,0,1-.616.616Z" fill="#00171f"/>
              </g>
              <g id="Group_55296" data-name="Group 55296">
                <path id="Path_33468" data-name="Path 33468" d="M1216.077-949.784h-4.436a.616.616,0,0,1-.617-.616.617.617,0,0,1,.617-.617h4.438a.616.616,0,0,1,.616.617.616.616,0,0,1-.616.616Z" fill="#00171f"/>
              </g>
            </g>
          </g>
          <g id="Group_55299" data-name="Group 55299">
            <path id="Path_33469" data-name="Path 33469" d="M1242.313-944.959a3.042,3.042,0,0,1-4.233-.769,3.031,3.031,0,0,1-.527-1.447,3.58,3.58,0,0,1-4.984-.893,3.525,3.525,0,0,1-.278-.475,2.909,2.909,0,0,0-.872.421v-5.767a2.919,2.919,0,0,0-2.865-2.972,2.918,2.918,0,0,0-2.972,2.865c0,.035,0,.071,0,.107v11.969a2.918,2.918,0,0,0-4.066.7,2.916,2.916,0,0,0-.534,1.681v8.329a8.725,8.725,0,0,0,.145,1.588H1210.59a2.111,2.111,0,0,1-2.108-2.108v-3.084h9.027a.616.616,0,0,0,.616-.616.616.616,0,0,0-.616-.617h-9.027v-37.687h27.856v23.165a.616.616,0,0,0,.616.617.617.617,0,0,0,.617-.617h0V-966.65h.918a1.468,1.468,0,0,0,1.465-1.465v-6.551a1.468,1.468,0,0,0-1.465-1.465h-.918v-1.919a3.346,3.346,0,0,0-3.341-3.341h-23.64a3.345,3.345,0,0,0-3.341,3.341v1.917h-1.307a.99.99,0,0,0-.978.635,2.182,2.182,0,0,0-.1.806V-959.6a2.2,2.2,0,0,0,.1.806.987.987,0,0,0,.978.635h1.307v26.432a3.344,3.344,0,0,0,3.341,3.341h10.85a8.887,8.887,0,0,0,8.413,6.054h6.5a8.886,8.886,0,0,0,8.873-8.873v-10.832a2.922,2.922,0,0,0-2.918-2.919Zm-3.824-29.936a.236.236,0,0,1,.232.232v6.549a.235.235,0,0,1-.232.232h-.918V-974.9Zm-27.9-5.258h23.64a2.114,2.114,0,0,1,2.108,2.108v3.084h-27.855v-3.087a2.113,2.113,0,0,1,2.109-2.109Zm-4.489,20.76v-15.5h1.148v7.176a.615.615,0,0,0-.362.79.612.612,0,0,0,.362.361v7.173Zm37.9,28.188a7.654,7.654,0,0,1-7.642,7.642h-6.5a7.653,7.653,0,0,1-7.642-7.642v-8.329a1.684,1.684,0,0,1,1.644-1.726,1.686,1.686,0,0,1,1.727,1.644v4.133a.616.616,0,0,0,.616.617.617.617,0,0,0,.617-.617h0V-953.9a1.684,1.684,0,0,1,1.726-1.644,1.686,1.686,0,0,1,1.645,1.644v14.32a.616.616,0,0,0,.616.617.617.617,0,0,0,.617-.617h0v-6.169a1.684,1.684,0,0,1,1.644-1.726,1.686,1.686,0,0,1,1.727,1.644v6.252a.616.616,0,0,0,.616.617.617.617,0,0,0,.617-.617v-4.69a1.684,1.684,0,0,1,1.726-1.644,1.686,1.686,0,0,1,1.645,1.644v4.69a.616.616,0,0,0,.616.617.617.617,0,0,0,.617-.617v-2.471a1.684,1.684,0,0,1,1.644-1.726,1.686,1.686,0,0,1,1.727,1.644v10.915Z" fill="#00171f"/>
            <path id="Path_33470" data-name="Path 33470" d="M1211.559-971.457l-.719.719a.616.616,0,0,0,0,.872.616.616,0,0,0,.872,0h0l.282-.282.282.282a.616.616,0,0,0,.872,0,.618.618,0,0,0,0-.872h0l-.716-.719a.617.617,0,0,0-.873,0Z" fill="#00171f"/>
          </g>
          <g id="Group_55305" data-name="Group 55305">
            <g id="Group_55302" data-name="Group 55302">
              <g id="Group_55300" data-name="Group 55300">
                <path id="Path_33471" data-name="Path 33471" d="M1231.471-967.541a2.047,2.047,0,0,1-2.048-2.048,2.048,2.048,0,0,1,2.048-2.048,2.048,2.048,0,0,1,2.048,2.048h0A2.051,2.051,0,0,1,1231.471-967.541Zm0-2.864a.815.815,0,0,0-.815.815.814.814,0,0,0,.815.815.815.815,0,0,0,.815-.815h0a.817.817,0,0,0-.815-.814Z" fill="#00171f"/>
              </g>
              <g id="Group_55301" data-name="Group 55301">
                <path id="Path_33472" data-name="Path 33472" d="M1232.9-966.11a.616.616,0,0,1-.616-.616.815.815,0,0,0-.815-.815.814.814,0,0,0-.815.815h0a.617.617,0,0,1-.617.617.616.616,0,0,1-.616-.617,2.05,2.05,0,0,1,2.05-2.05,2.05,2.05,0,0,1,2.05,2.05.617.617,0,0,1-.616.616Z" fill="#00171f"/>
              </g>
            </g>
            <g id="Group_55303" data-name="Group 55303">
              <path id="Path_33473" data-name="Path 33473" d="M1227.461-966.11h-1.541a.617.617,0,0,1-.617-.616.617.617,0,0,1,.617-.617h1.541a.616.616,0,0,1,.616.617A.616.616,0,0,1,1227.461-966.11Z" fill="#00171f"/>
            </g>
            <g id="Group_55304" data-name="Group 55304">
              <path id="Path_33474" data-name="Path 33474" d="M1227.46-968.233h-1.541a.616.616,0,0,1-.617-.616.617.617,0,0,1,.617-.617h1.541a.617.617,0,0,1,.616.617A.616.616,0,0,1,1227.46-968.233Z" fill="#00171f"/>
            </g>
          </g>
        </g>
      </g>
      <g id="Group_55311" data-name="Group 55311">
        <path id="Path_33478" data-name="Path 33478" d="M1242.511-954.945a.615.615,0,0,1-.617-.615.613.613,0,0,1,.181-.437l1.233-1.233a.618.618,0,0,1,.872,0,.618.618,0,0,1,0,.872h0l-1.233,1.233A.612.612,0,0,1,1242.511-954.945Z" fill="#00171f"/>
        <path id="Path_33479" data-name="Path 33479" d="M1198.048-957.744a.615.615,0,0,1-.617-.615.613.613,0,0,1,.181-.437l1.233-1.233a.618.618,0,0,1,.872,0,.618.618,0,0,1,0,.872l-1.233,1.233A.611.611,0,0,1,1198.048-957.744Z" fill="#00171f"/>
      </g>
    </g>
  </g>
</svg>
