<svg xmlns="http://www.w3.org/2000/svg" width="65.854" height="58.387" viewBox="0 0 65.854 58.387">
  <g id="_008-payment_method" data-name=" 008-payment method" transform="translate(-1071.447 1418.899)">
    <path id="Path_33480" data-name="Path 33480" d="M1134.576-1390.326a13.386,13.386,0,0,0-4.235-9.35,25.492,25.492,0,0,1-4.625-6.5c-3.809-7.671-10.3-12.723-17.673-12.723-5.238,0-10.033,2.552-13.736,6.782a23.616,23.616,0,0,1-9,6.333c-8.364,3.359-13.86,9.031-13.86,15.463s5.5,12.1,13.86,15.462a23.631,23.631,0,0,1,9,6.334c3.7,4.23,8.5,6.782,13.736,6.782,7.371,0,13.864-5.053,17.673-12.723a25.5,25.5,0,0,1,4.625-6.5A13.391,13.391,0,0,0,1134.576-1390.326Z" fill="#f4f5f6"/>
    <g id="Group_55528" data-name="Group 55528">
      <path id="Path_33943" data-name="Path 33943" d="M1093.691-1367.437h-8.967c-1.095,0-1.414-.316-1.415-1.392,0-.786-.015-1.572,0-2.357a5.726,5.726,0,0,1,2.672-4.831c.143-.1.291-.186.474-.3a4.069,4.069,0,0,1-.817-3.493,3.909,3.909,0,0,1,1.438-2.248,3.994,3.994,0,0,1,5.148.182c1.562,1.4,1.723,3.421.445,5.534l1.679,1.3a7.743,7.743,0,0,1,5.12-4.325,6.39,6.39,0,0,1,.174-9.034c.091-.087.184-.172.28-.254a6.3,6.3,0,0,1,8.444.307,6.352,6.352,0,0,1,.112,8.968,7.779,7.779,0,0,1,5.131,4.343l1.683-1.308c-1.311-2.142-1.12-4.186.528-5.6a4,4,0,0,1,5.151-.037c1.683,1.405,1.891,3.428.56,5.675.227.15.465.291.685.455a5.82,5.82,0,0,1,2.45,4.7c.025.767.007,1.536.006,2.3,0,1.073-.341,1.421-1.4,1.421h-9.044v.841c-.01.847-.361,1.195-1.219,1.21h-17.6c-1.466,0-1.665-.193-1.7-1.639A3.788,3.788,0,0,0,1093.691-1367.437Zm18.455-.029c0-1.706.065-3.347-.015-4.98a5.316,5.316,0,0,0-4.841-5.006,52.447,52.447,0,0,0-6.429-.02,5.331,5.331,0,0,0-5.03,5c-.118,1.631-.023,3.276-.02,4.916,0,.027.037.053.054.076h3.145v-.93c0-.295-.008-.594,0-.89a1,1,0,0,1,.951-1.047h.049a.99.99,0,0,1,1.033.944c0,.023,0,.046,0,.069a12.327,12.327,0,0,1,0,1.412c-.027.4.126.5.509.5,1.639-.019,3.279-.007,4.919-.01a4.04,4.04,0,0,0,.424-.047c0-.578-.005-1.117,0-1.656.009-.75.387-1.2,1.014-1.207.655-.012,1.052.438,1.059,1.212.005.551,0,1.1,0,1.672Zm-12.391-16.352a4.249,4.249,0,0,0,4.232,4.23,4.278,4.278,0,0,0,4.242-4.234,4.236,4.236,0,0,0-4.234-4.239h-.038a4.211,4.211,0,0,0-4.2,4.218v.025Zm19.882,14.3c0-.422-.012-.786,0-1.15a1,1,0,0,1,.941-1.056.913.913,0,0,1,.1,0,1,1,0,0,1,.993,1.007c0,.017,0,.034,0,.051.013.377,0,.755,0,1.165h.491c.138,0,.266-.021.393-.031.183-1.944.06-3.794-1.851-4.824a4.525,4.525,0,0,0-4.869.182c-1.669,1.115-1.726,2.852-1.571,4.648h.888v-1.007c.008-.744.391-1.188,1.023-1.191s1.025.434,1.044,1.18c.009.339,0,.679,0,1.026Zm-25.958-.008c.18-1.931.076-3.764-1.8-4.8a4.528,4.528,0,0,0-4.909.152c-1.676,1.108-1.719,2.849-1.563,4.643h.867c0-.4-.015-.76,0-1.123a1.018,1.018,0,0,1,.968-1.066c.026,0,.052,0,.078,0a1.017,1.017,0,0,1,1.023,1.012c0,.026,0,.051,0,.077.011.361,0,.723,0,1.1h2.409c0-.38-.006-.726,0-1.071a1.017,1.017,0,0,1,.911-1.113c.025,0,.051,0,.076-.005a1.022,1.022,0,0,1,1.075.968.875.875,0,0,1,0,.124c.017.36,0,.722,0,1.106Zm22.808-9.407a1.946,1.946,0,0,0,1.91,1.982h.024a1.981,1.981,0,0,0,1.956-1.922,1.944,1.944,0,0,0-1.921-1.966h-.027a1.914,1.914,0,0,0-1.941,1.888v.018Zm-26.917-1.907a1.921,1.921,0,0,0-1.962,1.879v.008a1.953,1.953,0,0,0,1.9,2h.01a1.965,1.965,0,0,0,1.967-1.9,1.929,1.929,0,0,0-1.87-1.986Z" fill="#00171f"/>
      <path id="Path_33944" data-name="Path 33944" d="M1123.836-1391.3v-1.367c-1.107-.171-2.206-.342-3.305-.508-.552-.083-1.106-.152-1.656-.24-.7-.111-.938-.389-1.1-1.073-.2-.881-.427-1.76-.692-2.625-.256-.834-.2-1.111.5-1.67,1.254-1,2.509-2,3.8-3.033l-.661-1.178c-.83.321-1.638.632-2.445.947-.763.3-1.521.607-2.286.9a1.1,1.1,0,0,1-1.4-.342c-.677-.7-1.365-1.4-2.072-2.069a1.093,1.093,0,0,1-.349-1.44c.607-1.557,1.221-3.11,1.845-4.7l-1.175-.688-2.162,2.7c-.348.437-.7.872-1.042,1.312a1.1,1.1,0,0,1-1.262.383q-1.536-.417-3.075-.823a1.059,1.059,0,0,1-.845-.946c-.228-1.535-.482-3.067-.69-4.6-.051-.375-.166-.538-.548-.486a1.948,1.948,0,0,1-.471,0c-.329-.035-.445.1-.491.432-.214,1.536-.455,3.071-.7,4.6-.1.661-.34.864-1,1.03q-1.417.352-2.824.756a1.109,1.109,0,0,1-1.425-.425c-1.035-1.294-2.065-2.593-3.131-3.933l-1.177.676.621,1.593c.406,1.038.817,2.076,1.218,3.116a1.1,1.1,0,0,1-.351,1.442q-1.039.993-2.035,2.032a1.133,1.133,0,0,1-1.489.354c-1.379-.54-2.764-1.067-4.128-1.641-.436-.183-.664-.107-.837.312a6.633,6.633,0,0,1-.375.677l3.033,2.42c.3.24.6.475.9.72a1.111,1.111,0,0,1,.42,1.425q-.4,1.4-.748,2.826c-.16.661-.431.918-1.2,1.032l-4.45.66c-.12.018-.237.054-.386.09v1.339l4.264.644c.241.037.483.07.724.108a1.127,1.127,0,0,1,1.045,1c.231.947.478,1.89.749,2.826.2.7,0,1.275-.572,1.477a1.046,1.046,0,0,1-1.333-.644,1.076,1.076,0,0,1-.038-.139c-.241-.708-.465-1.426-.637-2.154a.548.548,0,0,0-.551-.49q-2.356-.331-4.707-.706c-.763-.12-1.036-.46-1.043-1.249-.008-.89-.006-1.781,0-2.671.005-.843.287-1.186,1.1-1.312,1.5-.23,3-.456,4.5-.66.4-.055.683-.147.722-.627a3.065,3.065,0,0,1,.251-.958c.194-.44.037-.68-.317-.951-1.2-.924-2.382-1.883-3.567-2.833a1.063,1.063,0,0,1-.416-1.444,1.126,1.126,0,0,1,.1-.149q.686-1.2,1.387-2.4a1.063,1.063,0,0,1,1.368-.621,1.084,1.084,0,0,1,.165.079c1.478.574,2.957,1.146,4.426,1.742a.51.51,0,0,0,.706-.148l.009-.015a1.433,1.433,0,0,1,.362-.375c.8-.507.788-1.1.4-1.915-.561-1.177-.98-2.422-1.456-3.639a1.117,1.117,0,0,1,.359-1.538,1.155,1.155,0,0,1,.229-.109q1.107-.645,2.218-1.285c.818-.473,1.184-.4,1.788.355.958,1.2,1.924,2.4,2.864,3.609a.519.519,0,0,0,.694.219,3.313,3.313,0,0,1,.9-.244c.6-.046.78-.374.849-.935.18-1.471.422-2.935.642-4.4a1.044,1.044,0,0,1,1.051-1.036c.034,0,.068,0,.1.006q1.467-.018,2.932,0a1.04,1.04,0,0,1,1.142.928c0,.035.005.07.005.1.237,1.569.488,3.137.7,4.709a.533.533,0,0,0,.485.545,9.237,9.237,0,0,1,1.26.338.464.464,0,0,0,.608-.2c.967-1.238,1.951-2.462,2.93-3.69a1.094,1.094,0,0,1,1.465-.5,1.108,1.108,0,0,1,.246.166q1.137.648,2.267,1.3a1.126,1.126,0,0,1,.69,1.434,1.1,1.1,0,0,1-.1.219c-.574,1.46-1.145,2.92-1.737,4.373-.118.288-.1.486.155.666a1.072,1.072,0,0,1,.3.289c.58.911,1.28.881,2.187.442,1.142-.553,2.355-.958,3.541-1.419a1.061,1.061,0,0,1,1.454.371.983.983,0,0,1,.08.167q.7,1.2,1.384,2.4a1.068,1.068,0,0,1-.17,1.5.971.971,0,0,1-.147.1c-1.2.961-2.4,1.923-3.608,2.865-.314.244-.467.459-.286.869a3.5,3.5,0,0,1,.281,1.058c.041.406.265.505.607.554,1.484.212,2.967.44,4.45.658.984.145,1.252.449,1.254,1.448,0,.855.006,1.711,0,2.567-.007.783-.284,1.12-1.051,1.242-1.532.245-3.065.492-4.6.69a.675.675,0,0,0-.674.615,21.639,21.639,0,0,1-.635,2.1,1.025,1.025,0,0,1-1.236.759.843.843,0,0,1-.119-.036,1.073,1.073,0,0,1-.587-1.4l.014-.033q.408-1.431.761-2.876a1.141,1.141,0,0,1,1.1-1C1120.531-1390.8,1122.168-1391.046,1123.836-1391.3Z" fill="#00171f"/>
      <path id="Path_33945" data-name="Path 33945" d="M1114.339-1392.683c0,.174.01.349,0,.523a1,1,0,0,1-.962.98,1.013,1.013,0,0,1-1.066-.929,20.313,20.313,0,0,0-.418-2.73,9.258,9.258,0,0,0-9.8-6.6,9.338,9.338,0,0,0-8.282,7.977c-.05.38-.062.765-.087,1.148-.049.744-.448,1.167-1.08,1.138a1.013,1.013,0,0,1-.976-1.05.925.925,0,0,1,.014-.139,10.963,10.963,0,0,1,6.5-10.076,11.325,11.325,0,0,1,15.082,5.387,11.3,11.3,0,0,1,1.036,3.748C1114.329-1393.1,1114.329-1392.892,1114.339-1392.683Z" fill="#00171f"/>
      <path id="Path_33946" data-name="Path 33946" d="M1122.609-1414.881a4.1,4.1,0,0,1,4.113,4.076c0,.018,0,.036,0,.053a4.1,4.1,0,0,1-4.1,4.1h-.045a4.1,4.1,0,0,1-4.083-4.107,4.091,4.091,0,0,1,4.058-4.122Zm2.065,4.138a2.091,2.091,0,0,0-2.043-2.09,2.084,2.084,0,0,0-2.089,2.04,2.091,2.091,0,0,0,2.04,2.092,2.1,2.1,0,0,0,2.091-2.042Z" fill="#ffc20f"/>
      <path id="Path_33947" data-name="Path 33947" d="M1086.5-1409.733a3.069,3.069,0,0,1-3.057,3.082h-.043a3.1,3.1,0,0,1-3.079-3.063,3.119,3.119,0,0,1,3.086-3.119A3.1,3.1,0,0,1,1086.5-1409.733Zm-2.052-.012a1.056,1.056,0,0,0-1.041-1.022,1.052,1.052,0,0,0-1.021,1.039,1.056,1.056,0,0,0,1.038,1.024,1.06,1.06,0,0,0,1.024-1.041Z" fill="#00171f"/>
      <path id="Path_33948" data-name="Path 33948" d="M1083.414-1382.906a1.052,1.052,0,0,1-1.039,1.023,1.059,1.059,0,0,1-1.023-1.042,1.056,1.056,0,0,1,1.042-1.021A1.05,1.05,0,0,1,1083.414-1382.906Z"/>
      <path id="Path_33949" data-name="Path 33949" d="M1081.338-1369.483a1.026,1.026,0,0,1-1.039,1.011,1.026,1.026,0,0,1-.994-1.055,1.025,1.025,0,0,1,1.039-1.008,1.02,1.02,0,0,1,.995,1.045Z"/>
      <path id="Path_33950" data-name="Path 33950" d="M1082.39-1397.365a1.043,1.043,0,0,1-1.04-1.017,1.047,1.047,0,0,1,1.026-1.034,1.044,1.044,0,0,1,1.037,1.021A1.031,1.031,0,0,1,1082.39-1397.365Z"/>
      <path id="Path_33951" data-name="Path 33951" d="M1111.275-1381.912a1.012,1.012,0,0,1,1.021-1h.036a1.01,1.01,0,0,1,.977,1.043l0,.033a1.018,1.018,0,0,1-1.029.977,1.024,1.024,0,0,1-1-1.046Z"/>
      <path id="Path_33952" data-name="Path 33952" d="M1124.647-1399.418a1.036,1.036,0,0,1,1.049,1.007,1.032,1.032,0,0,1-1.006,1.046,1.023,1.023,0,0,1-1.045-1A1.037,1.037,0,0,1,1124.647-1399.418Z"/>
      <path id="Path_33953" data-name="Path 33953" d="M1105.069-1395.292a1.041,1.041,0,0,1-1.012-1.041,1.025,1.025,0,0,1,1.026-1.023,1.029,1.029,0,0,1,1.013,1.038A1.031,1.031,0,0,1,1105.069-1395.292Z"/>
      <path id="Path_33954" data-name="Path 33954" d="M1123.645-1381.9a1.023,1.023,0,0,1,1.044-1h0a1.03,1.03,0,0,1,1.006,1.044,1.035,1.035,0,0,1-1.047,1.008A1.036,1.036,0,0,1,1123.645-1381.9Z"/>
      <path id="Path_33955" data-name="Path 33955" d="M1098.907-1392.215a1,1,0,0,1-1.039-.959c0-.016,0-.031,0-.047a1,1,0,0,1,.974-1.026h.046a1,1,0,0,1,1.013.98,1,1,0,0,1-.946,1.051Z"/>
      <path id="Path_33956" data-name="Path 33956" d="M1112.145-1367.465h-3.171v-1.672c-.007-.774-.4-1.224-1.059-1.212-.627.012-1,.457-1.014,1.207-.006.539,0,1.079,0,1.656a4.041,4.041,0,0,1-.424.047c-1.64,0-3.279-.009-4.919.01-.383,0-.535-.094-.509-.5a12.272,12.272,0,0,0,0-1.412.987.987,0,0,0-.963-1.013h-.07a1,1,0,0,0-1,1c0,.016,0,.033,0,.049-.012.3,0,.593,0,.89v.931h-3.145c-.017-.023-.054-.05-.054-.076,0-1.639-.1-3.285.02-4.916a5.331,5.331,0,0,1,5.03-5,52.667,52.667,0,0,1,6.429.021,5.315,5.315,0,0,1,4.841,5.006C1112.21-1370.812,1112.145-1369.171,1112.145-1367.465Z" fill="#fff"/>
      <path id="Path_33957" data-name="Path 33957" d="M1099.755-1383.818a4.211,4.211,0,0,1,4.177-4.243h.023a4.237,4.237,0,0,1,4.272,4.2v.037a4.277,4.277,0,0,1-4.242,4.234A4.248,4.248,0,0,1,1099.755-1383.818Z" fill="#ffc20f"/>
      <path id="Path_33958" data-name="Path 33958" d="M1119.637-1369.519h-2.409c0-.347.007-.687,0-1.026-.019-.746-.41-1.183-1.044-1.18s-1.015.447-1.023,1.191v1.007h-.888c-.155-1.8-.1-3.533,1.571-4.648a4.525,4.525,0,0,1,4.869-.182c1.911,1.03,2.034,2.88,1.851,4.824-.127.01-.26.026-.393.031s-.276,0-.491,0c0-.41.011-.788,0-1.165a1,1,0,0,0-.94-1.056l-.051,0a1,1,0,0,0-1.046.951.961.961,0,0,0,0,.106C1119.625-1370.305,1119.637-1369.941,1119.637-1369.519Z" fill="#fff"/>
      <path id="Path_33959" data-name="Path 33959" d="M1093.678-1369.526h-.861c0-.384.014-.746,0-1.106a1.023,1.023,0,0,0-.95-1.091,1.047,1.047,0,0,0-.124,0,1.017,1.017,0,0,0-.991,1.042c0,.025,0,.051,0,.076-.007.346,0,.691,0,1.071h-2.409c0-.378.009-.74,0-1.1a1.017,1.017,0,0,0-.942-1.086q-.039,0-.078,0a1.019,1.019,0,0,0-1.056.978c0,.03,0,.06,0,.089-.018.362,0,.726,0,1.123h-.867c-.156-1.795-.114-3.535,1.563-4.643a4.528,4.528,0,0,1,4.909-.152C1093.755-1373.29,1093.858-1371.457,1093.678-1369.526Z" fill="#fff"/>
      <path id="Path_33960" data-name="Path 33960" d="M1116.486-1378.933a1.916,1.916,0,0,1,1.924-1.906h.018a1.945,1.945,0,0,1,1.949,1.94.23.23,0,0,1,0,.026,1.981,1.981,0,0,1-1.956,1.922,1.947,1.947,0,0,1-1.934-1.959Z" fill="#fff"/>
      <path id="Path_33961" data-name="Path 33961" d="M1089.57-1380.84a1.929,1.929,0,0,1,1.92,1.938v.049a1.965,1.965,0,0,1-1.967,1.9,1.953,1.953,0,0,1-1.915-1.99v-.01a1.922,1.922,0,0,1,1.955-1.887Z" fill="#fff"/>
      <path id="Path_33962" data-name="Path 33962" d="M1124.674-1410.743a2.1,2.1,0,0,1-2.092,2.043,2.091,2.091,0,0,1-2.04-2.092,2.085,2.085,0,0,1,2.089-2.04A2.09,2.09,0,0,1,1124.674-1410.743Z" fill="#fff"/>
      <path id="Path_33963" data-name="Path 33963" d="M1084.447-1409.744a1.06,1.06,0,0,1-1.024,1.041,1.056,1.056,0,0,1-1.038-1.024,1.051,1.051,0,0,1,1.021-1.038A1.056,1.056,0,0,1,1084.447-1409.744Z" fill="#fff"/>
    </g>
    <g id="Group_55338" data-name="Group 55338">
      <path id="Path_33520" data-name="Path 33520" d="M1074.523-1404.614a.615.615,0,0,1-.616-.615.612.612,0,0,1,.18-.437l1.233-1.233a.618.618,0,0,1,.872.031.616.616,0,0,1,0,.841l-1.233,1.233A.609.609,0,0,1,1074.523-1404.614Z" fill="#00171f"/>
      <path id="Path_33521" data-name="Path 33521" d="M1135.466-1383.961a.615.615,0,0,1-.616-.615.612.612,0,0,1,.18-.437l1.233-1.233a.618.618,0,0,1,.872.031.616.616,0,0,1,0,.841l-1.233,1.233A.613.613,0,0,1,1135.466-1383.961Z" fill="#00171f"/>
      <path id="Path_33522" data-name="Path 33522" d="M1086.646-1360.512a.615.615,0,0,1-.616-.615.613.613,0,0,1,.18-.437l1.233-1.233a.616.616,0,0,1,.872,0,.616.616,0,0,1,0,.872h0l-1.233,1.233A.609.609,0,0,1,1086.646-1360.512Z" fill="#00171f"/>
    </g>
  </g>
</svg>
