<svg xmlns="http://www.w3.org/2000/svg" width="65.866" height="58.392" viewBox="0 0 65.866 58.392">
  <g id="_008-payment_method" data-name=" 008-payment method" transform="translate(0 -0.176)">
    <path id="Path_33480" data-name="Path 33480" d="M608.561,352.557a13.387,13.387,0,0,0-4.235-9.35,25.491,25.491,0,0,1-4.625-6.5c-3.809-7.671-10.3-12.723-17.673-12.723-5.238,0-10.033,2.552-13.736,6.782a23.629,23.629,0,0,1-9,6.333c-8.364,3.359-13.86,9.031-13.86,15.463s5.5,12.1,13.86,15.462a23.632,23.632,0,0,1,9,6.334c3.7,4.23,8.5,6.782,13.736,6.782,7.371,0,13.864-5.053,17.673-12.723a25.49,25.49,0,0,1,4.625-6.5A13.391,13.391,0,0,0,608.561,352.557Z" transform="translate(-545.434 -323.803)" fill="#eee"/>
    <g id="Group_55528" data-name="Group 55528" transform="translate(189.971 1042.817)">
      <path id="Path_33943" data-name="Path 33943" d="M-143.152-838.946h-.64q-4.163,0-8.327,0c-1.095,0-1.414-.316-1.415-1.392,0-.786-.015-1.572,0-2.357a5.724,5.724,0,0,1,2.672-4.831c.143-.1.291-.186.474-.3a4.066,4.066,0,0,1-.817-3.493,3.9,3.9,0,0,1,1.438-2.248,3.993,3.993,0,0,1,5.148.182c1.562,1.4,1.723,3.421.445,5.534l1.679,1.3a7.739,7.739,0,0,1,5.12-4.325,6.389,6.389,0,0,1,.454-9.288,6.3,6.3,0,0,1,8.444.307,6.352,6.352,0,0,1,.112,8.968,7.781,7.781,0,0,1,5.131,4.343l1.683-1.308c-1.311-2.142-1.12-4.186.528-5.605a4,4,0,0,1,5.151-.037c1.683,1.405,1.891,3.428.56,5.675.227.15.465.291.685.455a5.82,5.82,0,0,1,2.45,4.7c.025.767.007,1.536.006,2.3,0,1.073-.341,1.421-1.4,1.421q-4.19,0-8.379,0h-.665c0,.326,0,.584,0,.841-.01.847-.361,1.195-1.219,1.21-.14,0-.279,0-.419,0h-17.178c-1.466,0-1.665-.193-1.7-1.639C-143.126-838.651-143.139-838.768-143.152-838.946Zm18.455-.029c0-1.706.065-3.347-.015-4.98a5.316,5.316,0,0,0-4.841-5.006,52.468,52.468,0,0,0-6.429-.02,5.33,5.33,0,0,0-5.03,5c-.118,1.631-.023,3.276-.02,4.916,0,.027.037.053.054.076h3.145c0-.34,0-.635,0-.93s-.008-.594,0-.89a1,1,0,0,1,1-1.048.989.989,0,0,1,1.033,1.013,12.417,12.417,0,0,1,0,1.412c-.027.4.126.5.509.5,1.639-.019,3.279-.007,4.919-.01a3.99,3.99,0,0,0,.424-.047c0-.578-.005-1.117,0-1.656.009-.75.387-1.2,1.014-1.207.655-.012,1.052.438,1.059,1.212.005.551,0,1.1,0,1.672Zm-12.391-16.352a4.248,4.248,0,0,0,4.232,4.23,4.279,4.279,0,0,0,4.242-4.234,4.237,4.237,0,0,0-4.272-4.239A4.21,4.21,0,0,0-137.088-855.327Zm19.882,14.3c0-.422-.012-.786,0-1.15a1,1,0,0,1,1.046-1.057,1,1,0,0,1,.991,1.058c.013.377,0,.755,0,1.165.215,0,.353,0,.491,0s.266-.021.393-.031c.183-1.944.06-3.794-1.851-4.824a4.523,4.523,0,0,0-4.869.182c-1.669,1.115-1.726,2.852-1.571,4.648h.888c0-.352,0-.679,0-1.007.008-.744.391-1.188,1.023-1.191s1.025.434,1.044,1.18c.009.339,0,.679,0,1.026Zm-25.958-.008c.18-1.931.076-3.764-1.8-4.8a4.527,4.527,0,0,0-4.909.152c-1.676,1.108-1.719,2.849-1.563,4.643h.867c0-.4-.015-.76,0-1.123a1.018,1.018,0,0,1,1.046-1.067,1.017,1.017,0,0,1,1.02,1.089c.011.361,0,.723,0,1.1h2.409c0-.38-.006-.726,0-1.071a1.017,1.017,0,0,1,.987-1.118,1.023,1.023,0,0,1,1.074,1.092c.017.36,0,.722,0,1.106Zm22.808-9.407a1.946,1.946,0,0,0,1.934,1.982,1.982,1.982,0,0,0,1.956-1.922,1.944,1.944,0,0,0-1.948-1.966A1.915,1.915,0,0,0-120.356-850.442Zm-26.917-1.907a1.921,1.921,0,0,0-1.963,1.887,1.953,1.953,0,0,0,1.915,2,1.966,1.966,0,0,0,1.967-1.9A1.929,1.929,0,0,0-147.273-852.349Z" transform="translate(-24.577 -152.228)" fill="#00171f"/>
      <path id="Path_33944" data-name="Path 33944" d="M-132.723-1015.033v-1.367c-1.107-.171-2.206-.342-3.305-.508-.552-.083-1.106-.152-1.656-.24-.7-.111-.938-.389-1.1-1.073-.2-.881-.427-1.76-.692-2.625-.256-.834-.2-1.111.5-1.67,1.254-1,2.509-2,3.8-3.033l-.661-1.178c-.83.321-1.638.632-2.445.947-.763.3-1.521.607-2.286.9a1.1,1.1,0,0,1-1.4-.342c-.677-.7-1.365-1.4-2.072-2.069a1.092,1.092,0,0,1-.349-1.44c.607-1.557,1.221-3.11,1.845-4.7l-1.175-.688-2.162,2.7c-.348.437-.7.872-1.042,1.312a1.1,1.1,0,0,1-1.262.383q-1.536-.417-3.075-.823a1.059,1.059,0,0,1-.845-.946c-.228-1.535-.482-3.067-.69-4.6-.051-.375-.166-.538-.548-.486a1.982,1.982,0,0,1-.471,0c-.329-.035-.445.1-.491.431-.214,1.537-.455,3.071-.7,4.6-.1.66-.34.864-1,1.029q-1.418.354-2.824.757a1.109,1.109,0,0,1-1.425-.425c-1.035-1.294-2.065-2.593-3.131-3.933l-1.177.676c.209.535.415,1.064.621,1.592.406,1.039.817,2.076,1.218,3.117a1.1,1.1,0,0,1-.351,1.442q-1.04.993-2.035,2.032a1.135,1.135,0,0,1-1.489.354c-1.379-.54-2.764-1.067-4.128-1.641-.436-.183-.664-.107-.837.312a6.888,6.888,0,0,1-.375.677l3.033,2.42c.3.24.6.475.9.72a1.111,1.111,0,0,1,.42,1.425q-.4,1.4-.748,2.826c-.16.661-.431.918-1.2,1.032q-2.225.329-4.45.66c-.12.018-.237.054-.386.09v1.339l4.264.644c.241.037.483.07.724.108a1.128,1.128,0,0,1,1.045,1c.231.947.478,1.89.749,2.826.2.7,0,1.275-.572,1.477a1.047,1.047,0,0,1-1.371-.783c-.241-.708-.465-1.426-.637-2.154a.548.548,0,0,0-.551-.49q-2.357-.332-4.707-.706c-.763-.12-1.036-.46-1.043-1.249-.008-.89-.006-1.781,0-2.671.005-.843.287-1.186,1.1-1.312,1.5-.23,3-.456,4.5-.66.4-.055.683-.147.722-.627a3.017,3.017,0,0,1,.251-.958c.194-.44.037-.68-.317-.951-1.2-.924-2.382-1.883-3.567-2.833a1.063,1.063,0,0,1-.317-1.593q.685-1.205,1.387-2.4a1.062,1.062,0,0,1,1.533-.542c1.478.574,2.957,1.146,4.426,1.742a.51.51,0,0,0,.715-.163,1.411,1.411,0,0,1,.362-.375c.8-.507.788-1.1.4-1.915-.561-1.177-.98-2.422-1.456-3.639a1.117,1.117,0,0,1,.588-1.647q1.107-.645,2.218-1.285c.818-.473,1.184-.4,1.788.355.958,1.2,1.924,2.395,2.864,3.609a.519.519,0,0,0,.694.219,3.284,3.284,0,0,1,.905-.244c.605-.046.78-.374.849-.935.18-1.471.422-2.935.642-4.4a1.043,1.043,0,0,1,1.152-1.03q1.466-.018,2.932,0a1.04,1.04,0,0,1,1.147,1.033c.237,1.569.488,3.137.7,4.709a.532.532,0,0,0,.485.545,9.389,9.389,0,0,1,1.26.338.465.465,0,0,0,.608-.2c.967-1.238,1.951-2.462,2.93-3.69a1.094,1.094,0,0,1,1.711-.332q1.136.648,2.267,1.3a1.125,1.125,0,0,1,.585,1.653c-.574,1.46-1.145,2.92-1.737,4.373-.118.288-.105.486.155.666a1.09,1.09,0,0,1,.3.289c.58.911,1.28.881,2.187.442,1.142-.553,2.355-.958,3.541-1.419a1.061,1.061,0,0,1,1.534.538q.7,1.2,1.384,2.4a1.069,1.069,0,0,1-.317,1.6c-1.2.961-2.395,1.923-3.608,2.865-.314.244-.467.459-.286.869a3.524,3.524,0,0,1,.281,1.058c.041.406.265.505.607.554,1.484.212,2.967.44,4.45.658.984.145,1.252.449,1.254,1.448,0,.855.006,1.711,0,2.567-.007.783-.284,1.12-1.051,1.242-1.532.245-3.065.492-4.6.69a.674.674,0,0,0-.674.615,21.825,21.825,0,0,1-.635,2.1,1.026,1.026,0,0,1-1.355.723,1.073,1.073,0,0,1-.573-1.432q.408-1.431.761-2.876a1.14,1.14,0,0,1,1.1-1C-136.028-1014.535-134.391-1014.783-132.723-1015.033Z" transform="translate(-4.861)" fill="#00171f"/>
      <path id="Path_33945" data-name="Path 33945" d="M-70.99-946.76c0,.174.01.349,0,.523a1,1,0,0,1-.962.98,1.013,1.013,0,0,1-1.066-.929,20.415,20.415,0,0,0-.418-2.73,9.259,9.259,0,0,0-9.8-6.6,9.337,9.337,0,0,0-8.282,7.977c-.05.38-.062.765-.087,1.148-.049.744-.448,1.167-1.08,1.138a1.014,1.014,0,0,1-.962-1.189,10.96,10.96,0,0,1,6.5-10.076,11.324,11.324,0,0,1,16.118,9.135C-71-947.179-71-946.969-70.99-946.76Z" transform="translate(-76.091 -69.66)" fill="#00171f"/>
      <path id="Path_33946" data-name="Path 33946" d="M102.115-1038.544a4.094,4.094,0,0,1,4.112,4.129,4.1,4.1,0,0,1-4.144,4.1A4.1,4.1,0,0,1,98-1034.422,4.09,4.09,0,0,1,102.115-1038.544Zm2.065,4.138a2.092,2.092,0,0,0-2.043-2.09,2.084,2.084,0,0,0-2.089,2.04,2.091,2.091,0,0,0,2.04,2.092A2.1,2.1,0,0,0,104.179-1034.406Z" transform="translate(-240.926 -0.074)" fill="#ffc20f"/>
      <path id="Path_33947" data-name="Path 33947" d="M-168.688-1020.809a3.07,3.07,0,0,1-3.1,3.082,3.1,3.1,0,0,1-3.079-3.063,3.119,3.119,0,0,1,3.086-3.119A3.1,3.1,0,0,1-168.688-1020.809Zm-2.052-.012a1.056,1.056,0,0,0-1.041-1.022,1.051,1.051,0,0,0-1.021,1.039,1.055,1.055,0,0,0,1.038,1.024A1.06,1.06,0,0,0-170.74-1020.821Z" transform="translate(-6.233 -12.661)" fill="#00171f"/>
      <path id="Path_33948" data-name="Path 33948" d="M-165.424-816.385a1.053,1.053,0,0,1-1.039,1.023,1.059,1.059,0,0,1-1.023-1.042,1.056,1.056,0,0,1,1.042-1.021A1.05,1.05,0,0,1-165.424-816.385Z" transform="translate(-12.582 -190.258)"/>
      <path id="Path_33949" data-name="Path 33949" d="M-180.082-720.52a1.027,1.027,0,0,1-1.039,1.011,1.026,1.026,0,0,1-.994-1.055,1.024,1.024,0,0,1,1.039-1.008A1.02,1.02,0,0,1-180.082-720.52Z" transform="translate(0 -272.7)"/>
      <path id="Path_33950" data-name="Path 33950" d="M-166.452-925.954a1.043,1.043,0,0,1-1.04-1.017,1.046,1.046,0,0,1,1.026-1.034,1.044,1.044,0,0,1,1.037,1.021A1.033,1.033,0,0,1-166.452-925.954Z" transform="translate(-12.578 -95.148)"/>
      <path id="Path_33951" data-name="Path 33951" d="M46.4-809.011a1.011,1.011,0,0,1,1.057-1,1.01,1.01,0,0,1,.975,1.076,1.019,1.019,0,0,1-1.029.977A1.025,1.025,0,0,1,46.4-809.011Z" transform="translate(-196.545 -196.638)"/>
      <path id="Path_33952" data-name="Path 33952" d="M135.82-928.016a1.036,1.036,0,0,1,1.049,1.007,1.033,1.033,0,0,1-1.006,1.046,1.023,1.023,0,0,1-1.045-1A1.036,1.036,0,0,1,135.82-928.016Z" transform="translate(-272.593 -95.139)"/>
      <path id="Path_33953" data-name="Path 33953" d="M-4.2-911.218a1.041,1.041,0,0,1-1.012-1.041,1.025,1.025,0,0,1,1.026-1.023,1.029,1.029,0,0,1,1.013,1.038A1.032,1.032,0,0,1-4.2-911.218Z" transform="translate(-152.151 -107.811)"/>
      <path id="Path_33954" data-name="Path 33954" d="M134.818-809a1.022,1.022,0,0,1,1.044-1,1.03,1.03,0,0,1,1.006,1.044,1.036,1.036,0,0,1-1.047,1.008A1.036,1.036,0,0,1,134.818-809Z" transform="translate(-272.593 -196.641)"/>
      <path id="Path_33955" data-name="Path 33955" d="M-48.394-889.024a1,1,0,0,1-1.04-1.006,1,1,0,0,1,1.02-1.026,1,1,0,0,1,1.013.98A1,1,0,0,1-48.394-889.024Z" transform="translate(-114.119 -126.928)"/>
      <path id="Path_33956" data-name="Path 33956" d="M-48.04-761.689h-3.171c0-.57,0-1.121,0-1.672-.007-.774-.4-1.224-1.059-1.212-.627.012-1,.457-1.014,1.207-.006.539,0,1.079,0,1.656a4.021,4.021,0,0,1-.424.047c-1.64,0-3.279-.009-4.919.01-.383,0-.535-.094-.509-.5a12.418,12.418,0,0,0,0-1.412.989.989,0,0,0-1.033-1.013,1,1,0,0,0-1,1.048c-.012.3,0,.593,0,.89s0,.59,0,.931h-3.145c-.017-.023-.054-.05-.054-.076,0-1.639-.1-3.285.02-4.916a5.331,5.331,0,0,1,5.03-5,52.468,52.468,0,0,1,6.429.021,5.315,5.315,0,0,1,4.841,5.006C-47.975-765.036-48.04-763.395-48.04-761.689Z" transform="translate(-101.235 -229.513)" fill="#fff"/>
      <path id="Path_33957" data-name="Path 33957" d="M-35.941-842.59a4.21,4.21,0,0,1,4.2-4.243,4.237,4.237,0,0,1,4.272,4.239,4.278,4.278,0,0,1-4.242,4.234A4.248,4.248,0,0,1-35.941-842.59Z" transform="translate(-125.724 -164.965)" fill="#ffc20f"/>
      <path id="Path_33958" data-name="Path 33958" d="M72.839-747.872H70.43c0-.347.007-.687,0-1.026-.019-.746-.41-1.183-1.044-1.18s-1.015.447-1.023,1.191c0,.328,0,.655,0,1.007h-.888c-.155-1.8-.1-3.533,1.571-4.648a4.523,4.523,0,0,1,4.869-.182c1.911,1.03,2.034,2.88,1.851,4.824-.127.01-.26.026-.393.031s-.276,0-.491,0c0-.41.011-.788,0-1.165a1,1,0,0,0-.991-1.058,1,1,0,0,0-1.046,1.057C72.827-748.658,72.839-748.294,72.839-747.872Z" transform="translate(-214.622 -245.384)" fill="#fff"/>
      <path id="Path_33959" data-name="Path 33959" d="M-130.593-747.875h-.861c0-.384.014-.746,0-1.106a1.023,1.023,0,0,0-1.074-1.092,1.017,1.017,0,0,0-.987,1.118c-.007.346,0,.691,0,1.071h-2.409c0-.378.009-.74,0-1.1a1.017,1.017,0,0,0-1.02-1.089A1.018,1.018,0,0,0-138-749.006c-.018.362,0,.726,0,1.123h-.867c-.156-1.795-.114-3.535,1.563-4.643a4.527,4.527,0,0,1,4.909-.152C-130.516-751.639-130.413-749.806-130.593-747.875Z" transform="translate(-37.149 -245.388)" fill="#fff"/>
      <path id="Path_33960" data-name="Path 33960" d="M83.652-793.312a1.915,1.915,0,0,1,1.942-1.906,1.944,1.944,0,0,1,1.948,1.966,1.982,1.982,0,0,1-1.956,1.922A1.947,1.947,0,0,1,83.652-793.312Z" transform="translate(-228.586 -209.358)" fill="#fff"/>
      <path id="Path_33961" data-name="Path 33961" d="M-120.812-795.225a1.929,1.929,0,0,1,1.919,1.987,1.966,1.966,0,0,1-1.967,1.9,1.953,1.953,0,0,1-1.915-2A1.921,1.921,0,0,1-120.812-795.225Z" transform="translate(-51.038 -209.352)" fill="#fff"/>
      <path id="Path_33962" data-name="Path 33962" d="M116.769-1021.819a2.1,2.1,0,0,1-2.092,2.043,2.091,2.091,0,0,1-2.04-2.092,2.084,2.084,0,0,1,2.089-2.04A2.091,2.091,0,0,1,116.769-1021.819Z" transform="translate(-253.515 -12.661)" fill="#fff"/>
      <path id="Path_33963" data-name="Path 33963" d="M-158.035-1008.114a1.06,1.06,0,0,1-1.024,1.041,1.055,1.055,0,0,1-1.038-1.024,1.051,1.051,0,0,1,1.021-1.038A1.056,1.056,0,0,1-158.035-1008.114Z" transform="translate(-18.938 -25.367)" fill="#fff"/>
    </g>
    <g id="Group_55338" data-name="Group 55338" transform="translate(27.458)">
      <path id="Path_33520" data-name="Path 33520" d="M585.365,326.069a.616.616,0,0,1-.436-1.052l1.233-1.233a.617.617,0,0,1,.872.872l-1.233,1.233A.614.614,0,0,1,585.365,326.069Z" transform="translate(-609.749 -311.603)" fill="#00171f"/>
      <path id="Path_33521" data-name="Path 33521" d="M661.922,395.618a.616.616,0,0,1-.436-1.052l1.233-1.233a.617.617,0,0,1,.872.872l-1.233,1.233A.616.616,0,0,1,661.922,395.618Z" transform="translate(-625.363 -360.499)" fill="#00171f"/>
      <path id="Path_33522" data-name="Path 33522" d="M585.627,432.785a.616.616,0,0,1-.436-1.052l1.233-1.233a.616.616,0,1,1,.872.872h0l-1.233,1.233A.614.614,0,0,1,585.627,432.785Z" transform="translate(-597.888 -374.217)" fill="#00171f"/>
    </g>
  </g>
</svg>
