<svg xmlns="http://www.w3.org/2000/svg" width="14.049" height="14.048" viewBox="0 0 14.049 14.048">
  <g id="Group_10320" data-name="Group 10320" transform="translate(0 0)">
    <g id="Group_10319" data-name="Group 10319">
      <path id="Path_8845" data-name="Path 8845" d="M240.516,104.7v-3.628a.45.45,0,0,0-.9,0v3.814a.449.449,0,0,0,.132.318l2.353,2.353a.449.449,0,0,0,.636-.636Z" transform="translate(-233.042 -97.864)" fill="#00171f"/>
      <path id="Path_8846" data-name="Path 8846" d="M14.049,7.028s0,0,0-.006a7.024,7.024,0,1,0,0,.013S14.049,7.03,14.049,7.028ZM7.474,13.137v-.7a.45.45,0,0,0-.9,0v.7A6.134,6.134,0,0,1,.916,7.478h.7a.45.45,0,0,0,0-.9h-.7A6.135,6.135,0,0,1,6.575.92v.7a.45.45,0,1,0,.9,0V.92a6.134,6.134,0,0,1,5.659,5.659h-.7a.45.45,0,1,0,0,.9h.7A6.134,6.134,0,0,1,7.474,13.137Z" transform="translate(0 -0.004)" fill="#00171f"/>
    </g>
  </g>
</svg>
