<svg xmlns="http://www.w3.org/2000/svg" width="101.288" height="100.597" viewBox="0 0 101.288 100.597">
  <g id="_14-Check" data-name="14-Check" transform="translate(-1.004)">
    <rect id="Rectangle_11625" data-name="Rectangle 11625" width="13" height="7" rx="1" transform="translate(70.004 50)" fill="#f2f2f2"/>
    <path id="Path_53867" data-name="Path 53867" d="M69.532,26V46.119a5.03,5.03,0,0,1-5.03,5.03H41.03A5.03,5.03,0,0,1,36,46.119V26ZM59.473,37.736V34.383A1.677,1.677,0,0,0,57.8,32.706H47.736a1.677,1.677,0,0,0-1.677,1.677v3.353a1.677,1.677,0,0,0,1.677,1.677H57.8A1.677,1.677,0,0,0,59.473,37.736Z" transform="translate(23.679 17.592)" fill="#e3a76f"/>
    <path id="Path_53868" data-name="Path 53868" d="M62.736,22.677v5.03a1.677,1.677,0,0,1-1.677,1.677H51L59.383,21H61.06A1.677,1.677,0,0,1,62.736,22.677Z" transform="translate(33.828 14.209)" fill="#f2f2f2"/>
    <path id="Path_53869" data-name="Path 53869" d="M62.766,21l-8.383,8.383H46L54.383,21Z" transform="translate(30.445 14.209)" fill="#c18f5f"/>
    <path id="Path_53870" data-name="Path 53870" d="M57.766,21l-8.383,8.383H41L49.383,21Z" transform="translate(27.062 14.209)" fill="#f2f2f2"/>
    <path id="Path_53871" data-name="Path 53871" d="M52.766,21l-8.383,8.383H36L44.383,21Z" transform="translate(23.679 14.209)" fill="#c18f5f"/>
    <path id="Path_53872" data-name="Path 53872" d="M45.736,21l-8.383,8.383H35.677A1.677,1.677,0,0,1,34,27.706v-5.03A1.677,1.677,0,0,1,35.677,21Z" transform="translate(22.326 14.209)" fill="#f2f2f2"/>
    <path id="Path_53873" data-name="Path 53873" d="M36,26H69.532v5.03H36Z" transform="translate(23.679 17.592)" fill="#c39160"/>
    <path id="Path_53874" data-name="Path 53874" d="M75.771,48V62.57a5.214,5.214,0,0,0-4.292-2.833c-4.661,0-4.661,6.706-9.322,6.706s-4.661-6.706-9.322-6.706-4.661,6.706-9.305,6.706-4.661-6.706-9.322-6.706-4.644,6.706-9.305,6.706-4.661-6.706-9.305-6.706-4.661,6.706-9.322,6.706A5.2,5.2,0,0,1,2,63.626V48H7.03a1.677,1.677,0,1,0,3.353,0h3.353a1.677,1.677,0,0,0,3.353,0h3.353A1.677,1.677,0,1,0,23.8,48h3.353A1.677,1.677,0,0,0,30.5,48h3.353a1.677,1.677,0,1,0,3.353,0h3.353a1.677,1.677,0,1,0,3.353,0h3.353a1.677,1.677,0,1,0,3.353,0h3.353a1.677,1.677,0,0,0,3.353,0h3.353a1.677,1.677,0,1,0,3.353,0h3.353a1.677,1.677,0,1,0,3.353,0Z" transform="translate(0.674 32.478)" fill="#ffe45c"/>
    <path id="Path_53875" data-name="Path 53875" d="M9.081,45.141l10.06-10.06.2-.2a5.018,5.018,0,0,1,1.475,3.554v3.353a5.03,5.03,0,0,1-5.03,5.03H12.435A5.018,5.018,0,0,1,8.88,45.342Z" transform="translate(5.329 23.601)" fill="#f2f2f2"/>
    <path id="Path_53876" data-name="Path 53876" d="M16.383,34a5.018,5.018,0,0,1,3.555,1.476l-.2.2L9.677,45.736l-.2.2A5.018,5.018,0,0,1,8,42.383V39.03A5.03,5.03,0,0,1,13.03,34Z" transform="translate(4.734 23.005)" fill="#f2f2f2"/>
    <path id="Path_53877" data-name="Path 53877" d="M9.081,32.141l10.06-10.06.2-.2a5.018,5.018,0,0,1,1.475,3.554v3.353a5.03,5.03,0,0,1-5.03,5.03H12.435A5.018,5.018,0,0,1,8.88,32.342Z" transform="translate(5.329 14.804)" fill="#f2f2f2"/>
    <path id="Path_53878" data-name="Path 53878" d="M16.383,21a5.018,5.018,0,0,1,3.555,1.476l-.2.2L9.677,32.736l-.2.2A5.018,5.018,0,0,1,8,29.383V26.03A5.03,5.03,0,0,1,13.03,21Z" transform="translate(4.734 14.209)" fill="#f2f2f2"/>
    <path id="Path_53879" data-name="Path 53879" d="M27.149,1V21.119a4.926,4.926,0,0,1-5.03,5.03H2Z" transform="translate(0.674 0.677)" fill="#f2f2f2"/>
    <path id="Path_53880" data-name="Path 53880" d="M60.682,17.766a1.677,1.677,0,1,0-1.677,1.677A1.677,1.677,0,0,0,60.682,17.766Zm5.03-1.677a1.677,1.677,0,1,0,1.677,1.677A1.677,1.677,0,0,0,65.712,16.09ZM23.8,79.8a1.677,1.677,0,1,0-3.353,0H17.09a1.677,1.677,0,1,0-3.353,0H10.383a1.677,1.677,0,1,0-3.353,0H2V26.149H22.119a4.926,4.926,0,0,0,5.03-5.03V1H67.388a8.383,8.383,0,0,1,8.383,8.383V34.532H57.328a1.677,1.677,0,0,0-1.677,1.677v5.03a1.677,1.677,0,0,0,1.677,1.677h1.677V63.035a5.03,5.03,0,0,0,5.03,5.03H75.771V79.8h-5.03a1.677,1.677,0,0,0-3.353,0H64.035a1.677,1.677,0,0,0-3.353,0H57.328a1.677,1.677,0,0,0-3.353,0H50.622a1.677,1.677,0,1,0-3.353,0H43.916a1.677,1.677,0,1,0-3.353,0H37.209a1.677,1.677,0,1,0-3.353,0H30.5a1.677,1.677,0,1,0-3.353,0Zm1.677-15.09V61.358a5.03,5.03,0,0,0-5.03-5.03H17.09a5.03,5.03,0,0,0-5.03,5.03v3.353a5.03,5.03,0,0,0,5.03,5.03h3.353A5.03,5.03,0,0,0,25.473,64.712Zm0-21.8V39.562a5.03,5.03,0,0,0-5.03-5.03H17.09a5.03,5.03,0,0,0-5.03,5.03v3.353a5.03,5.03,0,0,0,5.03,5.03h3.353A5.03,5.03,0,0,0,25.473,42.916Z" transform="translate(0.674 0.677)" fill="#ffc20f"/>
    <circle id="Ellipse_745" data-name="Ellipse 745" cx="1.5" cy="1.5" r="1.5" transform="translate(68.004 79)" fill="#ffa247"/>
    <circle id="Ellipse_746" data-name="Ellipse 746" cx="1.5" cy="1.5" r="1.5" transform="translate(65.004 17)" fill="#ffc247"/>
    <ellipse id="Ellipse_747" data-name="Ellipse 747" cx="2" cy="1.5" rx="2" ry="1.5" transform="translate(61.004 79)" fill="#ffa247"/>
    <circle id="Ellipse_748" data-name="Ellipse 748" cx="1.5" cy="1.5" r="1.5" transform="translate(58.004 17)" fill="#ffc247"/>
    <circle id="Ellipse_749" data-name="Ellipse 749" cx="1.5" cy="1.5" r="1.5" transform="translate(55.004 79)" fill="#ffa247"/>
    <circle id="Ellipse_750" data-name="Ellipse 750" cx="1.5" cy="1.5" r="1.5" transform="translate(48.004 79)" fill="#ffa247"/>
    <ellipse id="Ellipse_751" data-name="Ellipse 751" cx="2" cy="1.5" rx="2" ry="1.5" transform="translate(41.004 79)" fill="#ffa247"/>
    <circle id="Ellipse_752" data-name="Ellipse 752" cx="1.5" cy="1.5" r="1.5" transform="translate(35.004 79)" fill="#ffa247"/>
    <circle id="Ellipse_753" data-name="Ellipse 753" cx="1.5" cy="1.5" r="1.5" transform="translate(28.004 79)" fill="#ffa247"/>
    <circle id="Ellipse_754" data-name="Ellipse 754" cx="1.5" cy="1.5" r="1.5" transform="translate(21.004 79)" fill="#ffa247"/>
    <ellipse id="Ellipse_755" data-name="Ellipse 755" cx="2" cy="1.5" rx="2" ry="1.5" transform="translate(14.004 79)" fill="#ffa247"/>
    <circle id="Ellipse_756" data-name="Ellipse 756" cx="1.5" cy="1.5" r="1.5" transform="translate(8.004 79)" fill="#ffa247"/>
    <path id="Path_53881" data-name="Path 53881" d="M32.179,26.149V1h-5.03V21.119a4.926,4.926,0,0,1-5.03,5.03H2v5.03H27.149a4.926,4.926,0,0,0,5.03-5.03Z" transform="translate(0.674 0.677)" fill="#ffe45c"/>
    <g id="Group_58188" data-name="Group 58188" transform="translate(1.004 0)">
      <path id="Path_53882" data-name="Path 53882" d="M47.766,7.677A1.677,1.677,0,0,0,46.09,6H32.677a1.677,1.677,0,0,0,0,3.353H46.09A1.677,1.677,0,0,0,47.766,7.677Z" transform="translate(19.292 4.06)" fill="#2b1505"/>
      <path id="Path_53883" data-name="Path 53883" d="M94.888,33.532H78.122V10.06A10.07,10.07,0,0,0,68.062,0H27.823a1.656,1.656,0,0,0-.634.126,1.677,1.677,0,0,0-.547.366L1.494,25.641a1.66,1.66,0,0,0-.324.478c-.023.052-.037.1-.055.158a1.663,1.663,0,0,0-.091.443c0,.037-.02.067-.02.1V96.1a1.677,1.677,0,0,0,.314.976A6.9,6.9,0,0,0,6.949,100.6c3.207,0,4.777-2.258,6.036-4.073,1.174-1.677,1.9-2.634,3.284-2.634s2.1.949,3.266,2.627c1.262,1.817,2.832,4.079,6.041,4.079s4.778-2.262,6.036-4.079c1.174-1.677,1.891-2.627,3.266-2.627s2.116.951,3.284,2.634C39.427,98.339,41,100.6,44.2,100.6s4.763-2.257,6.021-4.069c1.169-1.685,1.9-2.637,3.285-2.637s2.116.951,3.284,2.634c1.261,1.814,2.83,4.073,6.038,4.073s4.777-2.258,6.036-4.073c1.174-1.677,1.9-2.634,3.285-2.634,1.2,0,1.926.716,2.924,2.126a1.677,1.677,0,0,0,3.046-.969V70.418h10.06a6.706,6.706,0,0,0,6.706-6.706V45.269a3.353,3.353,0,0,0,3.353-3.353v-5.03a3.353,3.353,0,0,0-3.353-3.353Zm-14.4,8.383,5.03-5.03h3.642l-5.03,5.03Zm-8.383,0,5.03-5.03h3.642l-5.03,5.03Zm-8.383,0,5.03-5.03H72.4l-5.03,5.03Zm-4.741,0H58v-5.03h6.012ZM26.147,5.724V21.8a3.155,3.155,0,0,1-3.353,3.353H6.721ZM74.769,91.149a5.7,5.7,0,0,0-2.616-.612c-3.207,0-4.777,2.258-6.036,4.073-1.174,1.677-1.9,2.634-3.284,2.634s-2.114-.951-3.284-2.634c-1.262-1.814-2.832-4.073-6.039-4.073s-4.778,2.262-6.036,4.079c-1.174,1.677-1.891,2.627-3.266,2.627s-2.114-.951-3.283-2.634c-1.266-1.814-2.835-4.073-6.043-4.073s-4.763,2.257-6.021,4.069c-1.169,1.685-1.9,2.637-3.284,2.637s-2.113-.952-3.286-2.637c-1.256-1.812-2.822-4.069-6.019-4.069S11.495,92.8,10.235,94.61c-1.17,1.683-1.9,2.634-3.286,2.634-1.063,0-1.734-.547-2.6-1.69V28.5H22.793A6.517,6.517,0,0,0,29.5,21.8V3.353H68.062a6.706,6.706,0,0,1,6.706,6.706V33.532H58a3.353,3.353,0,0,0-3.353,3.353v5.03A3.353,3.353,0,0,0,58,45.269V63.712a6.706,6.706,0,0,0,6.706,6.706h10.06ZM91.535,63.712a3.353,3.353,0,0,1-3.353,3.353H64.709a3.353,3.353,0,0,1-3.353-3.353V45.269H91.535Zm3.353-21.8H88.876l5.03-5.03h.982Z" transform="translate(-1.004 0)" fill="#2b1505"/>
      <path id="Path_53884" data-name="Path 53884" d="M54.413,29H44.353A3.353,3.353,0,0,0,41,32.353v3.353a3.353,3.353,0,0,0,3.353,3.353h10.06a3.353,3.353,0,0,0,3.353-3.353V32.353A3.353,3.353,0,0,0,54.413,29Zm0,6.706H44.353V32.353h10.06Z" transform="translate(26.058 19.622)" fill="#2b1505"/>
      <path id="Path_53885" data-name="Path 53885" d="M17.06,20H13.706A6.706,6.706,0,0,0,7,26.706V30.06a6.706,6.706,0,0,0,6.706,6.706H17.06a6.706,6.706,0,0,0,6.706-6.706V26.706A6.706,6.706,0,0,0,17.06,20Zm-6.706,6.706a3.353,3.353,0,0,1,3.353-3.353H17.06a3.318,3.318,0,0,1,.857.126l-7.437,7.437a3.318,3.318,0,0,1-.126-.857Zm10.06,3.353a3.353,3.353,0,0,1-3.353,3.353H13.706a3.318,3.318,0,0,1-.857-.126l7.437-7.437a3.318,3.318,0,0,1,.126.857Z" transform="translate(1.376 14.371)" fill="#2b1505"/>
      <path id="Path_53886" data-name="Path 53886" d="M17.06,33H13.706A6.706,6.706,0,0,0,7,39.706V43.06a6.706,6.706,0,0,0,6.706,6.706H17.06a6.706,6.706,0,0,0,6.706-6.706V39.706A6.706,6.706,0,0,0,17.06,33Zm-6.706,6.706a3.353,3.353,0,0,1,3.353-3.353H17.06a3.318,3.318,0,0,1,.857.126l-7.437,7.437a3.318,3.318,0,0,1-.126-.857Zm10.06,3.353a3.353,3.353,0,0,1-3.353,3.353H13.706a3.318,3.318,0,0,1-.857-.126l7.437-7.437a3.318,3.318,0,0,1,.126.857Z" transform="translate(1.376 23.167)" fill="#2b1505"/>
      <path id="Path_53887" data-name="Path 53887" d="M35.09,26H21.677a1.677,1.677,0,0,0,0,3.353H35.09a1.677,1.677,0,1,0,0-3.353Z" transform="translate(10.172 18.43)" fill="#2b1505"/>
      <path id="Path_53888" data-name="Path 53888" d="M35.09,39H21.677a1.677,1.677,0,1,0,0,3.353H35.09a1.677,1.677,0,1,0,0-3.353Z" transform="translate(10.172 27.226)" fill="#2b1505"/>
      <path id="Path_53889" data-name="Path 53889" d="M21.677,25.353h6.706a1.677,1.677,0,1,0,0-3.353H21.677a1.677,1.677,0,0,0,0,3.353Z" transform="translate(10.172 15.724)" fill="#2b1505"/>
      <path id="Path_53890" data-name="Path 53890" d="M21.677,38.353h6.706a1.677,1.677,0,1,0,0-3.353H21.677a1.677,1.677,0,0,0,0,3.353Z" transform="translate(10.172 24.52)" fill="#2b1505"/>
      <g id="Group_58190" data-name="Group 58190" transform="translate(49.595 23.106)">
        <ellipse id="Ellipse_772" data-name="Ellipse 772" cx="10.5" cy="9.5" rx="10.5" ry="9.5" transform="translate(15.405 16.895)" fill="#e9edf5"/>
        <path id="Path_53908" data-name="Path 53908" d="M55.994,42.5a24.483,24.483,0,0,1-.258,3.478C53.151,63.01,32.5,75.393,32.5,75.393S9,61.295,9,42.5a23.5,23.5,0,1,1,46.994,0Zm-14.1,0a9.4,9.4,0,1,0-9.4,9.4A9.4,9.4,0,0,0,41.9,42.5Z" transform="translate(-6.65 -16.65)" fill="#1ca0e3"/>
        <path id="Path_53909" data-name="Path 53909" d="M30.6,19.042A23.5,23.5,0,0,0,9,42.442a21.591,21.591,0,0,0,.305,3.713,27.257,27.257,0,0,0,2.1,6.779c0-.367-.054-.724-.054-1.093A37.563,37.563,0,0,1,30.6,19.04Z" transform="translate(-6.65 -16.595)" fill="#fff" opacity="0.54"/>
        <path id="Path_53910" data-name="Path 53910" d="M17.049,58.945a37.388,37.388,0,0,1,4.993-18.67,9.385,9.385,0,0,1,3.936-5.616A37.6,37.6,0,0,1,44.07,22.884,23.377,23.377,0,0,0,31.147,19c-.639,0-1.269.045-1.9.1A37.562,37.562,0,0,0,10,51.9c0,.369.045.726.054,1.093a42.205,42.205,0,0,0,7.357,10.891,37.653,37.653,0,0,1-.362-4.934Z" transform="translate(-5.301 -16.65)" fill="#fff" opacity="0.19"/>
        <path id="Path_53911" data-name="Path 53911" d="M33.846,18A25.877,25.877,0,0,0,8,43.847c0,19.9,23.631,34.306,24.636,34.909a2.35,2.35,0,0,0,2.42,0c1.006-.6,24.636-15.01,24.636-34.909A25.877,25.877,0,0,0,33.846,18Zm0,55.946C29.189,70.824,12.7,58.718,12.7,43.847a21.147,21.147,0,1,1,42.294,0C54.994,58.718,38.5,70.824,33.846,73.946Z" transform="translate(-8 -18)" fill="#2b1505"/>
        <path id="Path_53912" data-name="Path 53912" d="M25.748,24A11.748,11.748,0,1,0,37.5,35.748,11.748,11.748,0,0,0,25.748,24Zm0,18.8A7.049,7.049,0,1,1,32.8,35.748,7.049,7.049,0,0,1,25.748,42.8Z" transform="translate(0.098 -9.901)" fill="#2b1505"/>
      </g>
    </g>
  </g>
</svg>
