<svg xmlns="http://www.w3.org/2000/svg" width="13.291" height="9.061" viewBox="0 0 13.291 9.061">
  <g id="money" transform="translate(0 -18.081)">
    <path id="Path_53864" data-name="Path 53864" d="M12.954,27.142H.337A.364.364,0,0,1,0,26.756V18.468a.364.364,0,0,1,.337-.387H12.954a.364.364,0,0,1,.337.387v8.288A.364.364,0,0,1,12.954,27.142ZM.674,26.369H12.617V18.854H.674Z" fill="#00171f"/>
    <path id="Path_53865" data-name="Path 53865" d="M12.766,27.829H4.753a.36.36,0,0,1-.326-.387.724.724,0,0,0-.655-.776.36.36,0,0,1-.326-.387V22.661a.36.36,0,0,1,.326-.387.725.725,0,0,0,.655-.776.36.36,0,0,1,.326-.387h8.012a.36.36,0,0,1,.326.387.725.725,0,0,0,.653.776.36.36,0,0,1,.326.387V26.28a.36.36,0,0,1-.326.387.724.724,0,0,0-.655.776.361.361,0,0,1-.324.387ZM5.04,27.056h7.442a1.458,1.458,0,0,1,.936-1.116V23a1.455,1.455,0,0,1-.94-1.114H5.038A1.454,1.454,0,0,1,4.1,23V25.94a1.455,1.455,0,0,1,.94,1.116Z" transform="translate(-2.113 -1.858)" fill="#00171f"/>
    <path id="Path_53866" data-name="Path 53866" d="M16.343,28.549a2.131,2.131,0,1,1,2.131-2.131A2.131,2.131,0,0,1,16.343,28.549Zm0-3.489A1.358,1.358,0,1,0,17.7,26.418,1.358,1.358,0,0,0,16.343,25.06Z" transform="translate(-9.697 -3.806)" fill="#00171f"/>
  </g>
</svg>
