<svg xmlns="http://www.w3.org/2000/svg" width="25" height="25" viewBox="0 0 25 25">
  <g id="Group_10326" data-name="Group 10326" transform="translate(0.501 0.5)">
    <circle id="Oval_2_" data-name="Oval 2 " cx="12" cy="12" r="12" transform="translate(-0.001)" fill="#f5f7f9" stroke="#e5e5e5" stroke-miterlimit="10" stroke-width="1"/>
    <g id="_2365377" data-name="2365377" transform="translate(5.886 6.115)">
      <path id="Path_8842" data-name="Path 8842" d="M19.413,17.627a.341.341,0,0,0-.445-.033l-.486-.495a.346.346,0,0,0-.243-.1.415.415,0,0,0-.246.1l-.167.164L14.64,14.015a.34.34,0,0,0,.092-.233l-.008-.529a.347.347,0,0,0-.171-.294l-1.387-.811a.346.346,0,0,0-.415.052l-.382.375a.346.346,0,0,0-.059.415l.783,1.4a.347.347,0,0,0,.282.176l.514.029h.019a.344.344,0,0,0,.24-.1l3.184,3.241-.166.167a.346.346,0,0,0,0,.489l.486.495a.331.331,0,0,0,.025.445l4.055,4.129a.345.345,0,0,0,.488,0l1.247-1.225a.346.346,0,0,0,0-.489ZM13.6,13.89l-.564-1.005.005,0,.99.578v.184l-.259.256Zm4.863,4.181-.334.328-.237-.241.334-.328Zm3.512,4.663L18.408,19.1l.755-.741,3.571,3.636Z" transform="translate(-11.76 -11.72)" fill="#7d8699"/>
      <path id="Path_8843" data-name="Path 8843" d="M16.048,25.686l-1.438,1.382a.345.345,0,0,0-.079.384,1.385,1.385,0,0,1-1.567,1.9l.723-.7a.6.6,0,0,0,.015-.85l-.249-.258a.6.6,0,0,0-.849-.015l-.72.7a1.382,1.382,0,0,1,1.954-1.5.346.346,0,0,0,.385-.064l1.883-1.81a.346.346,0,0,0-.479-.5L13.9,26.017a2.077,2.077,0,0,0-2.462,3,.346.346,0,0,0,.541.078l1.038-1,.123.128-1.038,1a.345.345,0,0,0,.059.543,2.08,2.08,0,0,0,3.087-2.354l1.277-1.226a.346.346,0,0,0-.479-.5Z" transform="translate(-11.167 -18.281)" fill="#7d8699"/>
      <path id="Path_8844" data-name="Path 8844" d="M29.84,12.437a.341.341,0,0,0-.3.092l-1.451,1.4-.386-.4,1.451-1.4a.346.346,0,0,0-.073-.553A2.458,2.458,0,0,0,25.6,14.6l-1.089,1.042a.346.346,0,0,0,.478.5l1.264-1.21a.346.346,0,0,0,.069-.406,1.768,1.768,0,0,1,1.967-2.521L27.163,13.1a.6.6,0,0,0-.016.85l.511.53a.6.6,0,0,0,.85.015L29.637,13.4a1.768,1.768,0,0,1-2.588,1.877.347.347,0,0,0-.406.053l-.872.833a.346.346,0,1,0,.478.5l.7-.667a2.458,2.458,0,0,0,3.146-3.374A.346.346,0,0,0,29.84,12.437Z" transform="translate(-18.305 -11.272)" fill="#7d8699"/>
    </g>
  </g>
</svg>
