<svg xmlns="http://www.w3.org/2000/svg" width="20.1" height="19.671" viewBox="0 0 20.1 19.671">
  <g id="ic_Search" transform="translate(0 0)">
    <path id="Path" d="M0,0H20.1V19.671H0Z" transform="translate(0 0)" fill="none"/>
    <path id="Combined_Shape" data-name="Combined Shape" d="M15.641,16.144,12.65,13.218a7.8,7.8,0,0,1-10.407-.4,7.4,7.4,0,0,1,0-10.618,7.79,7.79,0,0,1,10.849,0,7.4,7.4,0,0,1,.706,9.823l3.027,2.963a.828.828,0,1,1-1.184,1.159ZM3.427,3.358a5.788,5.788,0,0,0,0,8.3,6.089,6.089,0,0,0,8.48,0,5.781,5.781,0,0,0,0-8.3,6.091,6.091,0,0,0-8.48,0Z" transform="translate(1.679 1.64)" fill="#00171f"/>
  </g>
</svg>
