<svg xmlns="http://www.w3.org/2000/svg" width="22.493" height="18.25" viewBox="0 0 22.493 18.25">
  <g id="Icon_dollar" transform="translate(-0.754 -2.875)">
    <path id="Path_53928" data-name="Path 53928" d="M.788,8.793a1,1,0,0,1,.707-1.225L18.882,2.909a1,1,0,0,1,1.225.707l3.106,11.591a1,1,0,0,1-.707,1.225L5.118,21.091a1,1,0,0,1-1.225-.707Zm2.191.448L5.567,18.9l15.455-4.141L18.433,5.1Z" fill="#00171f" fill-rule="evenodd"/>
    <path id="Path_53929" data-name="Path 53929" d="M2,6A1,1,0,0,1,3,5H21a1,1,0,0,1,1,1V18a1,1,0,0,1-1,1H3a1,1,0,0,1-1-1ZM4,7V17H20V7Z" fill="#00171f" fill-rule="evenodd"/>
    <path id="Path_53930" data-name="Path 53930" d="M12,11a1,1,0,1,0,1,1A1,1,0,0,0,12,11ZM9,12a3,3,0,1,1,3,3A3,3,0,0,1,9,12Z" fill="#00171f" fill-rule="evenodd"/>
  </g>
</svg>
